SplineFontDB: 1.0
FontName: URWBookmanL-Ligh
FullName: URW Bookman L Light
FamilyName: URW Bookman L
Weight: Regular
Copyright: Copyright (URW)++,Copyright 1999 by (URW)++ Design & Development; Cyrillic glyphs added by Valek Filippov (C) 2001-2002
Version: 1.06
ItalicAngle: 0
UnderlinePosition: -125
UnderlineWidth: 60
Ascent: 800
Descent: 200
NeedsXUIDChange: 1
UniqueID: 4198823
FSType: 0
OS2WinAscent: 0
OS2WinAOffset: 1
OS2WinDescent: 0
OS2WinDOffset: 1
HheadAscent: 0
HheadAOffset: 1
HheadDescent: 0
HheadDOffset: 1
ScriptLang: 2
 1 latn 1 dflt 
 1 DFLT 1 dflt 
Encoding: adobestandard
UnicodeInterp: none
DisplaySize: -36
AntiAlias: 1
FitToEm: 1
WinInfo: 378 21 7
BeginPrivate: 7
BlueValues 23 [-20 0 485 505 681 701]
BlueScale 8 0.039625
StdHW 4 [39]
StdVW 4 [96]
StemSnapH 197 [34 39 44 50 59] 
systemdict /internaldict known
{1183615869 systemdict /internaldict get exec
/StemSnapLength 2 copy known { get 5 lt } { pop pop true } ifelse }
{ true } ifelse { pop [39 44] } if
StemSnapV 200 [49 89 96 101 119] 
systemdict /internaldict known
{1183615869 systemdict /internaldict get exec
/StemSnapLength 2 copy known { get 5 lt } { pop pop true } ifelse }
{ true } ifelse { pop [96 101] } if
ForceBold 5 false
EndPrivate
BeginChars: 767 660
StartChar: exclam
Encoding: 33 33 2
Width: 300
Flags: W
HStem: -13 129<144 156> 674 20G<123 169.5>
VStem: 124 36<174 228>
Fore
144 116 m 0
 179 116 208 87 208 52 c 0
 208 16 179 -13 144 -13 c 0
 108 -13 79 16 79 52 c 0
 79 87 108 116 144 116 c 0
160 174 m 1
 124 174 l 1
 124 206 l 2
 124 244 117 329 109 372 c 1
 87 503 l 1
 75 571 75 571 75 593 c 0
 75 661 99 694 147 694 c 0
 192 694 219 660 219 602 c 0
 219 581 214 546 205 500 c 1
 177 364 l 1
 168 317 160 243 160 205 c 2
 160 174 l 1
EndSplineSet
EndChar
StartChar: quotedbl
Encoding: 34 34 3
Width: 380
Flags: W
HStem: 674 20G<86.5 112.5 267.5 293.5>
VStem: 56 86<636 654> 237 86<636 654>
Fore
86 445 m 1
 58 614 l 1
 57 618 56 634 56 640 c 0
 56 673 73 694 100 694 c 0
 125 694 142 675 142 645 c 0
 142 638 141 624 139 616 c 1
 108 445 l 1
 86 445 l 1
267 445 m 1
 239 614 l 1
 238 618 237 634 237 640 c 0
 237 673 254 694 281 694 c 0
 306 694 323 675 323 645 c 0
 323 638 322 624 320 616 c 1
 289 445 l 1
 267 445 l 1
EndSplineSet
EndChar
StartChar: numbersign
Encoding: 35 35 4
Width: 620
Flags: W
HStem: 0 21G<139 199 329 389> 216 57<65 171 240 362 430 531> 406 57<90 200 268 390 459 556> 406 260<239 390 429 556>
DStem: 171 216 231 216 139 0 199 0 200 406 260 406 180 273 240 273 239 666 299 666 208 463 268 463 362 216 422 216 329 0 389 0 390 406 450 406 370 273 430 273 429 666 489 666 399 463 459 463
Fore
450 406 m 1xd0
 430 273 l 1
 531 273 l 1
 531 216 l 1
 422 216 l 1
 389 0 l 1
 329 0 l 1
 362 216 l 1
 231 216 l 1
 199 0 l 1
 139 0 l 1
 171 216 l 1
 65 216 l 1
 65 273 l 1
 180 273 l 1
 200 406 l 1
 90 406 l 1
 90 463 l 1
 208 463 l 1xe0
 239 666 l 1
 299 666 l 1xd0
 268 463 l 1
 399 463 l 1xe0
 429 666 l 1
 489 666 l 1xd0
 459 463 l 1
 556 463 l 1
 556 406 l 1xe0
 450 406 l 1xd0
390 406 m 1
 260 406 l 1xd0
 240 273 l 1
 370 273 l 1
 390 406 l 1
EndSplineSet
EndChar
StartChar: dollar
Encoding: 36 36 5
Width: 620
Flags: W
VStem: 48 95<476 520> 294 37<-110 17 58 297 407 628 668 791> 437 116<511 529> 498 95<185 220>
Fore
294 791 m 1xd0
 331 791 l 1
 331 669 l 1
 403 663 449 648 487 621 c 0
 530 591 553 555 553 519 c 0
 553 482 528 457 491 457 c 0
 459 457 437 479 437 513 c 0xe0
 437 518 437 524 438 529 c 0
 440 544 440 544 440 549 c 0
 440 594 407 618 331 628 c 1
 331 398 l 1
 416 385 462 375 495 361 c 0
 560 334 593 288 593 220 c 0
 593 109 495 32 331 17 c 1
 331 -110 l 1
 294 -110 l 1
 294 17 l 1
 121 34 34 88 34 178 c 0
 34 222 63 252 105 252 c 0
 140 252 165 226 165 190 c 0
 165 181 164 169 161 157 c 0
 159 146 158 135 158 128 c 0
 158 88 205 64 294 58 c 1
 294 304 l 1
 118 329 48 379 48 476 c 0
 48 587 146 664 294 669 c 1
 294 791 l 1xd0
294 628 m 1
 284 628 l 2
 257 628 219 618 193 604 c 0
 163 587 143 554 143 520 c 0
 143 486 161 455 190 438 c 0
 218 421 239 415 294 407 c 1
 294 628 l 1
331 297 m 1
 331 58 l 1
 431 61 498 112 498 185 c 0xd0
 498 226 473 256 423 275 c 0
 401 283 376 289 331 297 c 1
EndSplineSet
EndChar
StartChar: percent
Encoding: 37 37 6
Width: 900
Flags: W
HStem: -8 37<693 712> 265 37<195 199> 379 37<693 712> 652 37<185 199>
VStem: 22 75<455 489> 294 75<455 489> 526 75<183 217> 798 75<183 217>
DStem: 651 681 710 681 187 0 246 0
Fore
195 689 m 0
 298 689 369 602 369 474 c 0
 369 351 297 265 195 265 c 0
 93 265 22 352 22 478 c 0
 22 541 46 606 83 644 c 0
 111 672 153 689 195 689 c 0
197 652 m 0
 172 652 149 641 134 622 c 0
 113 597 97 533 97 472 c 0
 97 364 133 302 195 302 c 0
 259 302 294 364 294 478 c 0
 294 591 260 652 197 652 c 0
710 681 m 1
 246 0 l 1
 187 0 l 1
 651 681 l 1
 710 681 l 1
699 416 m 0
 802 416 873 329 873 201 c 0
 873 78 801 -8 699 -8 c 0
 597 -8 526 79 526 205 c 0
 526 268 550 333 587 371 c 0
 615 399 657 416 699 416 c 0
701 379 m 0
 676 379 653 368 638 349 c 0
 617 324 601 260 601 199 c 0
 601 90 637 29 700 29 c 0
 763 29 798 91 798 205 c 0
 798 318 764 379 701 379 c 0
EndSplineSet
EndChar
StartChar: ampersand
Encoding: 38 38 7
Width: 800
Flags: W
HStem: 0 37<732 787> 654 40<332 349>
VStem: 45 102<196 218> 168 88<550 567> 428 70<562 580>
Fore
766 458 m 1
 766 428 l 1
 682 412 674 403 649 296 c 1
 632 231 616 192 587 148 c 1
 648 60 683 37 755 37 c 0
 764 37 775 37 787 38 c 1
 787 0 l 1
 690 0 l 2
 625 0 611 2 581 19 c 0
 559 32 546 45 526 77 c 1
 450 10 394 -13 309 -13 c 0
 243 -13 176 6 132 38 c 0
 79 75 45 139 45 200 c 0
 45 251 69 302 111 342 c 0
 145 374 174 389 238 408 c 1
 190 452 168 496 168 550 c 0
 168 631 247 694 347 694 c 0
 434 694 498 639 498 565 c 0
 498 499 443 436 359 408 c 1
 424 358 500 278 559 198 c 1
 591 255 607 310 607 365 c 0
 607 405 594 415 526 428 c 1
 526 458 l 1
 766 458 l 1
325 439 m 1
 352 451 353 451 362 456 c 0
 401 478 428 525 428 572 c 0
 428 620 392 654 342 654 c 0
 293 654 256 616 256 567 c 0
 256 525 275 490 325 439 c 1
267 376 m 1
 186 352 147 301 147 218 c 0
 147 107 218 33 324 33 c 0
 396 33 451 59 505 119 c 1
 428 232 344 323 267 376 c 1
EndSplineSet
EndChar
StartChar: quoteright
Encoding: 39 8217 8
Width: 220
Flags: W
HStem: 674 20G<91 127.5>
Fore
80 476 m 1
 69 498 l 1
 111 525 128 551 131 590 c 1
 117 579 110 576 100 576 c 0
 68 576 46 600 46 633 c 0
 46 666 74 694 108 694 c 0
 147 694 178 657 178 612 c 0
 178 555 142 505 80 476 c 1
EndSplineSet
KernsSLIF: 121 19 1 0 119 17 1 0 118 19 1 0 116 -1 1 0 115 -8 1 0 114 -3 1 0 46 -43 1 0 111 -13 1 0 100 -14 1 0 44 -43 1 0 262 -61 1 0 256 -61 1 0 257 -61 1 0 225 -201 1 0 65 -61 1 0
EndChar
StartChar: parenleft
Encoding: 40 40 9
Width: 300
Flags: W
VStem: 76 95<183.408 362>
Fore
278 717 m 1
 278 679 l 1
 196 650 171 563 171 306 c 2
 171 260 l 2
 171 3 196 -84 278 -113 c 1
 278 -151 l 1
 230 -143 208 -135 178 -112 c 0
 99 -50 76 39 76 283 c 0
 76 469 88 551 126 619 c 0
 144 651 177 682 213 699 c 0
 231 708 245 712 278 717 c 1
EndSplineSet
EndChar
StartChar: parenright
Encoding: 41 41 10
Width: 300
Flags: W
VStem: 124 95<200 362>
Fore
17 -151 m 1
 17 -113 l 1
 99 -84 124 3 124 260 c 2
 124 306 l 2
 124 563 99 650 17 679 c 1
 17 717 l 1
 65 709 87 701 117 678 c 0
 196 616 219 529 219 283 c 0
 219 94 207 16 169 -53 c 0
 151 -85 118 -116 82 -133 c 0
 64 -142 50 -146 17 -151 c 1
EndSplineSet
EndChar
StartChar: asterisk
Encoding: 42 42 11
Width: 440
Flags: W
HStem: 674 20G<210 237>
VStem: 176 91<354 372 650 660>
Fore
213 549 m 1
 186 619 l 2
 181 633 178 644 178 652 c 0
 178 678 196 694 224 694 c 0
 250 694 269 678 269 655 c 0
 269 646 267 636 261 619 c 2
 237 549 l 1
 253 537 l 1
 300 595 l 2
 316 616 330 625 346 625 c 0
 369 625 391 599 391 573 c 0
 391 550 375 537 337 530 c 2
 265 516 l 1
 262 497 l 1
 336 485 l 2
 372 479 390 465 390 443 c 0
 390 416 368 390 345 390 c 0
 329 390 318 397 299 420 c 2
 250 476 l 1
 232 468 l 1
 259 398 l 2
 264 384 267 372 267 364 c 0
 267 339 249 323 222 323 c 0
 195 323 176 339 176 362 c 0
 176 372 178 382 184 398 c 1
 208 468 l 1
 192 480 l 1
 145 422 l 2
 128 401 115 392 99 392 c 0
 76 392 54 418 54 444 c 0
 54 467 70 480 108 487 c 2
 180 501 l 1
 183 520 l 1
 109 532 l 2
 73 538 55 552 55 574 c 0
 55 602 77 627 101 627 c 0
 115 627 128 618 147 597 c 2
 195 541 l 1
 213 549 l 1
EndSplineSet
EndChar
StartChar: plus
Encoding: 43 43 12
Width: 600
Flags: W
HStem: 314 78<51 264 342 555>
VStem: 264 78<111 314 392 595>
Fore
555 392 m 1
 555 314 l 1
 342 314 l 1
 342 111 l 1
 264 111 l 1
 264 314 l 1
 51 314 l 1
 51 392 l 1
 264 392 l 1
 264 595 l 1
 342 595 l 1
 342 392 l 1
 555 392 l 1
EndSplineSet
EndChar
StartChar: comma
Encoding: 44 44 13
Width: 320
Flags: W
HStem: -6 21G<126.5 147.5>
Fore
115 -112 m 1
 104 -92 l 1
 146 -68 169 -38 178 9 c 1
 162 -3 154 -6 141 -6 c 0
 112 -6 90 19 90 51 c 0
 90 89 117 117 153 117 c 0
 193 117 223 80 223 31 c 0
 223 -31 185 -81 115 -112 c 1
EndSplineSet
KernsSLIF: 39 -52 1 0 186 -52 1 0 49 -85 1 0
EndChar
StartChar: hyphen
Encoding: 45 45 14
Width: 400
Flags: W
HStem: 232 57<78 322>
Fore
350 289 m 1
 322 232 l 1
 50 232 l 1
 79 289 l 1
 350 289 l 1
EndSplineSet
KernsSLIF: 89 -64 1 0 87 -27 1 0 86 -43 1 0 84 -70 1 0 262 -6 1 0 256 -6 1 0 257 -6 1 0 225 -75 1 0 65 -6 1 0
EndChar
StartChar: period
Encoding: 46 46 15
Width: 320
Flags: W
HStem: -13 21G<138.5 173.5>
Fore
157 115 m 0
 191 115 220 86 220 51 c 0
 220 16 191 -13 156 -13 c 0
 121 -13 92 16 92 52 c 0
 92 87 121 115 157 115 c 0
EndSplineSet
KernsSLIF: 39 -51 1 0 186 -51 1 0 49 -88 1 0
EndChar
StartChar: slash
Encoding: 47 47 16
Width: 600
Flags: W
DStem: 446 717 532 717 74 -141 158 -141
Fore
532 717 m 1
 158 -141 l 1
 74 -141 l 1
 446 717 l 1
 532 717 l 1
EndSplineSet
EndChar
StartChar: zero
Encoding: 48 48 17
Width: 620
Flags: W
HStem: -13 48<297.375 329> 646 48<310 329>
VStem: 40 108<322 356> 478 108<306 356>
Fore
312 694 m 0
 475 694 586 549 586 336 c 0
 586 131 473 -13 312 -13 c 0
 151 -13 40 132 40 343 c 0
 40 447 78 555 137 619 c 0
 180 666 246 694 312 694 c 0
316 646 m 0
 258 646 209 611 186 554 c 0
 164 498 148 407 148 332 c 0
 148 265 156 203 172 152 c 0
 195 80 250 35 314 35 c 0
 371 35 424 74 446 133 c 0
 467 186 478 261 478 343 c 0
 478 452 459 543 425 588 c 0
 398 626 359 646 316 646 c 0
EndSplineSet
KernsSLIF: 55 -18 1 0 49 -82 1 0 52 8 1 0
EndChar
StartChar: one
Encoding: 49 49 18
Width: 620
Flags: W
HStem: 0 30<160 176.5 485 501> 661 20G<347 379>
VStem: 284 95<111 545>
Fore
379 681 m 1
 379 139 l 2
 379 53 393 37 469 32 c 2
 501 30 l 1
 501 0 l 1
 160 0 l 1
 160 30 l 1
 193 32 l 2
 225 34 255 45 271 61 c 0
 281 71 284 87 284 141 c 2
 284 524 l 2
 284 603 274 615 201 618 c 2
 161 620 l 1
 161 650 l 1
 261 662 282 666 347 681 c 1
 379 681 l 1
EndSplineSet
KernsSLIF: 48 -70 1 0 50 -37 1 0 51 -69 1 0 54 -71 1 0 55 -105 1 0 46 -64 1 0 49 -96 1 0 57 -70 1 0 52 -91 1 0 53 -75 1 0 56 -74 1 0 44 -62 1 0
EndChar
StartChar: two
Encoding: 50 50 19
Width: 620
Flags: W
HStem: 0 82<153 528> 646 48<265 297>
VStem: 46 92<506 554> 415 118<495 515>
Fore
576 187 m 1
 528 0 l 1
 42 0 l 1
 42 70 l 1
 168 147 229 195 295 268 c 0
 378 361 415 437 415 513 c 0
 415 592 361 646 279 646 c 0
 206 646 138 602 138 554 c 0
 138 537 141 530 159 508 c 0
 166 499 171 486 171 476 c 0
 171 448 144 422 114 422 c 0
 76 422 46 458 46 506 c 0
 46 608 156 694 287 694 c 0
 431 694 533 613 533 499 c 0
 533 414 475 322 358 224 c 0
 309 183 272 157 153 82 c 1
 380 82 l 2
 471 82 494 96 528 174 c 2
 538 197 l 1
 576 187 l 1
EndSplineSet
KernsSLIF: 55 -30 1 0 49 -78 1 0 52 2 1 0
EndChar
StartChar: three
Encoding: 51 51 20
Width: 620
Flags: W
HStem: -13 45<269 313> 355 38<269 293> 649 45<279 313>
VStem: 40 117<140 154> 77 113<516 532> 433 108<516 542> 463 113<178 212>
Fore
221 350 m 1xf2
 221 395 l 1
 246 394 263 393 271 393 c 0
 320 393 370 409 396 433 c 0
 418 452 433 490 433 524 c 0
 433 600 379 649 296 649 c 0
 228 649 173 616 173 575 c 0
 173 567 173 567 185 540 c 0
 188 531 190 523 190 516 c 0
 190 490 165 468 135 468 c 0
 102 468 77 495 77 532 c 0
 77 576 106 622 152 653 c 0
 192 680 242 694 302 694 c 0
 440 694 541 625 541 531 c 0xec
 541 491 519 450 484 422 c 0
 458 402 432 391 375 378 c 1
 436 366 462 357 494 338 c 0
 545 308 576 255 576 196 c 0
 576 74 456 -13 288 -13 c 0
 212 -13 153 3 103 38 c 0
 64 66 40 104 40 141 c 0
 40 179 67 210 101 210 c 0
 134 210 157 186 157 154 c 0
 157 142 157 142 150 120 c 0
 149 115 148 112 148 109 c 0
 148 93 163 71 182 59 c 0
 210 41 248 32 292 32 c 0
 399 32 463 92 463 194 c 0
 463 246 443 295 411 320 c 0
 384 341 336 355 291 355 c 0
 279 355 262 354 221 350 c 1xf2
EndSplineSet
KernsSLIF: 55 -26 1 0 49 -90 1 0 52 6 1 0
EndChar
StartChar: four
Encoding: 52 52 21
Width: 620
Flags: W
HStem: 0 30<256 272.5 528.5 545> 186 57<96 353 448 578> 661 20G<353 448>
VStem: 353 95<144 186 243 681>
DStem: 182 436 263 471 25 227 174 349 182 436 174 349 25 227 112 265 335 657 353 596 182 436 263 471
Fore
448 681 m 1
 448 243 l 1
 600 243 l 1
 578 186 l 1
 448 186 l 1
 448 144 l 2
 448 100 451 79 457 64 c 0
 466 46 487 34 512 32 c 2
 545 30 l 1
 545 0 l 1
 256 0 l 1
 256 30 l 1
 289 32 l 2
 314 34 336 46 344 64 c 0
 351 79 353 99 353 144 c 2
 353 186 l 1
 40 186 l 1
 25 227 l 1
 182 436 l 1
 335 657 l 1
 353 681 l 1
 448 681 l 1
353 243 m 1
 353 596 l 1
 263 471 l 1
 174 349 l 1
 112 265 l 1
 106 258 101 251 96 243 c 1
 353 243 l 1
EndSplineSet
KernsSLIF: 55 -54 1 0 49 -74 1 0 52 19 1 0
EndChar
StartChar: five
Encoding: 53 53 22
Width: 620
Flags: W
HStem: -13 45<283 304> 404 58<299 332> 599 82<99 503>
VStem: 60 119<132 144> 99 62<322 599> 471 113<219 244>
Fore
520 717 m 1xec
 503 599 l 1
 161 599 l 1
 161 399 l 1xec
 220 446 265 462 332 462 c 0
 481 462 584 370 584 236 c 0
 584 89 469 -13 302 -13 c 0
 166 -13 60 51 60 134 c 0
 60 169 87 198 121 198 c 0
 152 198 179 172 179 142 c 0xf4
 179 134 179 134 170 105 c 1
 169 94 l 1
 169 60 223 32 288 32 c 0
 399 32 471 106 471 221 c 0
 471 333 405 404 299 404 c 0
 231 404 192 381 142 312 c 1
 99 322 l 1
 99 681 l 1
 401 681 l 2
 452 681 464 686 482 717 c 1
 520 717 l 1xec
EndSplineSet
KernsSLIF: 55 -47 1 0 49 -92 1 0 52 11 1 0
EndChar
StartChar: six
Encoding: 54 54 23
Width: 620
Flags: W
HStem: -13 48<300 334> 383 52<323 349> 654 40<322 352>
VStem: 45 118<203 318> 446 115<565 595> 477 113<194 228>
Fore
154 333 m 1xf8
 206 404 264 435 349 435 c 0
 488 435 590 342 590 215 c 0xf4
 590 86 473 -13 322 -13 c 0
 234 -13 154 25 108 87 c 0
 68 142 45 225 45 318 c 0
 45 403 63 485 96 547 c 0
 145 637 242 694 346 694 c 0
 460 694 561 633 561 565 c 0
 561 537 539 516 509 516 c 0
 471 516 446 548 446 595 c 0
 445 609 443 616 436 623 c 0
 417 642 382 654 343 654 c 0
 242 654 181 582 162 438 c 0
 158 408 158 403 154 333 c 1xf8
326 383 m 0
 226 383 163 313 163 203 c 0
 163 99 222 35 320 35 c 0
 416 35 477 103 477 210 c 0
 477 315 417 383 326 383 c 0
EndSplineSet
KernsSLIF: 55 -20 1 0 49 -77 1 0 52 14 1 0
EndChar
StartChar: seven
Encoding: 55 55 24
Width: 620
Flags: W
HStem: 0 21G<178 307> 503 21G<60 92> 599 82<92 513>
Fore
578 681 m 1
 586 618 l 1
 515 538 459 454 395 329 c 1
 340 214 319 137 307 0 c 1
 178 0 l 1
 214 198 338 420 513 599 c 1
 251 599 l 2
 184 599 161 594 135 574 c 0
 115 558 105 541 92 503 c 1
 60 503 l 1
 92 681 l 1
 578 681 l 1
EndSplineSet
KernsSLIF: 50 -18 1 0 51 -28 1 0 54 -45 1 0 55 -14 1 0 46 -111 1 0 49 -55 1 0 52 -90 1 0 53 -24 1 0 56 -31 1 0 44 -110 1 0 58 -77 1 0
EndChar
StartChar: eight
Encoding: 56 56 25
Width: 620
Flags: W
HStem: -13 40<299 333> 654 40<306 333>
VStem: 44 88<162 180> 80 88<508 534> 473 82<529 537> 495 88<165 203>
Fore
404 386 m 1xd8
 476 360 505 345 535 316 c 0
 566 288 583 247 583 203 c 0
 583 79 465 -13 306 -13 c 0
 156 -13 44 67 44 175 c 0xe4
 44 217 62 260 93 291 c 0
 121 319 149 333 212 352 c 1
 162 372 138 386 118 408 c 0
 93 436 80 470 80 508 c 0
 80 617 178 694 317 694 c 0
 456 694 555 628 555 535 c 0
 555 495 536 457 505 431 c 0
 480 411 457 400 404 386 c 1xd8
279 426 m 2
 353 403 l 1
 428 420 473 467 473 531 c 0
 473 602 412 654 328 654 c 0
 238 654 168 602 168 534 c 0xd8
 168 485 206 449 279 426 c 2
376 298 m 2
 261 334 l 1
 172 299 132 249 132 174 c 0
 132 85 203 27 314 27 c 0
 418 27 495 85 495 165 c 0xe4
 495 228 455 273 376 298 c 2
EndSplineSet
KernsSLIF: 55 -20 1 0 49 -84 1 0 52 10 1 0
EndChar
StartChar: nine
Encoding: 57 57 26
Width: 620
Flags: W
HStem: -13 45<272 303> 246 48<274 301> 649 45<292 326>
VStem: 37 108<450 484> 460 116<357 477> 472 104<322 359>
Fore
472 359 m 1xf4
 447 316 431 298 403 280 c 0
 369 258 322 246 274 246 c 0
 136 246 37 337 37 463 c 0
 37 593 154 694 304 694 c 0
 408 694 499 641 538 559 c 0
 563 505 576 436 576 357 c 0xf8
 576 272 561 194 534 139 c 0
 487 43 392 -13 276 -13 c 0
 166 -13 66 46 66 110 c 0
 66 138 88 160 115 160 c 0
 141 160 165 141 174 113 c 0
 175 110 176 101 178 84 c 0
 179 68 183 62 197 53 c 0
 215 41 250 32 282 32 c 0
 355 32 412 70 441 139 c 0
 459 182 472 273 472 359 c 1xf4
307 649 m 0
 209 649 145 579 145 472 c 0
 145 364 206 294 301 294 c 0
 399 294 460 365 460 477 c 0
 460 583 401 649 307 649 c 0
EndSplineSet
KernsSLIF: 55 -18 1 0 49 -86 1 0 52 2 1 0
EndChar
StartChar: colon
Encoding: 58 58 27
Width: 320
Flags: W
HStem: -13 128<154 159> 366 128<154 159>
Fore
157 115 m 0
 191 115 220 86 220 51 c 0
 220 16 191 -13 156 -13 c 0
 121 -13 92 16 92 52 c 0
 92 87 121 115 157 115 c 0
157 494 m 0
 191 494 220 465 220 430 c 0
 220 395 191 366 156 366 c 0
 121 366 92 395 92 430 c 0
 92 466 121 494 157 494 c 0
EndSplineSet
EndChar
StartChar: semicolon
Encoding: 59 59 28
Width: 320
Flags: W
HStem: -6 123<141 153> 366 128<151 159>
Fore
114 -112 m 1
 103 -92 l 1
 146 -67 168 -38 178 9 c 1
 162 -3 153 -6 141 -6 c 0
 111 -6 90 18 90 51 c 0
 90 89 117 117 153 117 c 0
 193 117 223 80 223 31 c 0
 223 -32 185 -81 114 -112 c 1
157 494 m 0
 191 494 220 465 220 430 c 0
 220 395 191 366 156 366 c 0
 121 366 92 395 92 430 c 0
 92 466 121 494 157 494 c 0
EndSplineSet
EndChar
StartChar: less
Encoding: 60 60 29
Width: 600
Flags: W
DStem: 49 288 155 324 558 49 558 135 558 599 558 512 49 360 155 324
Fore
49 360 m 1
 558 599 l 1
 558 512 l 1
 155 324 l 1
 558 135 l 1
 558 49 l 1
 49 288 l 1
 49 360 l 1
EndSplineSet
EndChar
StartChar: equal
Encoding: 61 61 30
Width: 600
Flags: W
HStem: 217 78<51 555> 411 78<51 555>
Fore
555 489 m 1
 555 411 l 1
 51 411 l 1
 51 489 l 1
 555 489 l 1
555 295 m 1
 555 217 l 1
 51 217 l 1
 51 295 l 1
 555 295 l 1
EndSplineSet
EndChar
StartChar: greater
Encoding: 62 62 31
Width: 600
Flags: W
DStem: 48 512 48 599 451 324 557 360 451 324 557 288 48 135 48 49
Fore
557 360 m 1
 557 288 l 1
 48 49 l 1
 48 135 l 1
 451 324 l 1
 48 512 l 1
 48 599 l 1
 557 360 l 1
EndSplineSet
EndChar
StartChar: question
Encoding: 63 63 32
Width: 540
Flags: W
HStem: -13 129<233 238> 654 40<250 284>
VStem: 27 116<499 524> 211 47<174 218> 406 108<497 526>
Fore
236 116 m 0
 270 116 299 87 299 52 c 0
 299 16 270 -13 235 -13 c 0
 199 -13 170 16 170 52 c 0
 170 87 199 116 236 116 c 0
258 174 m 1
 213 174 l 1
 212 194 211 205 211 218 c 0
 211 282 226 311 280 347 c 2
 337 386 l 2
 382 417 406 462 406 517 c 0
 406 604 355 654 264 654 c 0
 185 654 122 616 122 568 c 0
 122 557 124 549 131 536 c 0
 141 515 143 509 143 499 c 0
 143 474 118 451 89 451 c 0
 53 451 27 482 27 524 c 0
 27 564 53 608 96 642 c 0
 136 673 208 694 274 694 c 0
 331 694 390 678 435 651 c 0
 484 622 514 567 514 508 c 0
 514 469 500 429 476 397 c 1
 455 372 425 352 379 336 c 2
 346 324 l 2
 278 298 257 264 258 174 c 1
EndSplineSet
EndChar
StartChar: at
Encoding: 64 64 33
Width: 820
Flags: W
HStem: -13 45<417 440> 160 37<318 334> 516 37<408 427> 655 45<406 440>
VStem: 55 48<322 356> 184 75<284 306> 475 73<241 255> 712 43<386 420>
Fore
528 546 m 1
 600 546 l 1
 553 292 l 1
 550 274 548 257 548 250 c 0
 548 228 564 211 585 211 c 0
 611 211 642 232 669 267 c 0
 696 304 712 351 712 398 c 0
 712 540 581 655 418 655 c 0
 246 655 103 515 103 346 c 0
 103 172 243 32 417 32 c 0
 499 32 588 65 643 116 c 0
 665 137 679 155 698 188 c 1
 744 188 l 1
 725 145 710 122 685 97 c 0
 619 29 517 -13 417 -13 c 0
 216 -13 55 145 55 342 c 0
 55 540 217 700 420 700 c 0
 605 700 755 567 755 404 c 0
 755 345 734 288 696 243 c 0
 655 194 594 160 546 160 c 0
 507 160 475 198 475 244 c 2
 475 255 l 1
 427 189 379 160 318 160 c 0
 238 160 184 218 184 304 c 0
 184 438 288 553 408 553 c 0
 453 553 494 536 521 507 c 1
 528 546 l 1
515 474 m 1
 511 478 l 2
 489 503 459 516 425 516 c 0
 378 516 335 489 302 437 c 0
 277 398 259 334 259 285 c 0
 259 232 288 197 332 197 c 0
 373 197 422 229 452 274 c 0
 480 318 494 364 515 474 c 1
EndSplineSet
EndChar
StartChar: A
Encoding: 65 65 34
Width: 680
Flags: W
HStem: 0 31<223.8 231> 253 43<208 451> 661 20G<296 389>
DStem: 296 681 319 596 124 240 208 296 296 681 193 253 124 240 161 167 319 596 389 681 433 296 601 145 451 253 389 681 501 124 601 145
Fore
389 681 m 1
 601 145 l 1
 637 52 649 41 714 31 c 1
 714 0 l 1
 433 0 l 1
 433 31 l 1
 468 36 482 39 491 46 c 0
 504 54 512 67 512 81 c 0
 512 89 507 107 501 124 c 1
 451 253 l 1
 193 253 l 1
 161 167 l 2
 149 136 142 108 142 93 c 0
 142 75 152 57 167 47 c 0
 178 40 195 36 231 31 c 1
 231 0 l 1
 -37 0 l 1
 -37 31 l 1
 -26 33 l 2
 41 46 57 69 124 240 c 2
 296 681 l 1
 389 681 l 1
208 296 m 1
 433 296 l 1
 319 596 l 1
 208 296 l 1
EndSplineSet
KernsSLIF: 121 -40 0 0 119 -34 0 0 118 -36 0 0 117 -15 0 0 116 -7 0 0 39 -61 0 0 186 -61 0 0 113 -9 0 0 46 15 0 0 111 -8 0 0 45 -2 0 0 172 -24 0 0 171 -24 0 0 103 24 0 0 101 -13 0 0 100 -5 0 0 44 17 0 0 332 -9 0 0 99 -9 0 0 98 13 0 0 97 21 0 0 89 -14 0 0 87 -58 0 0 86 -71 0 0 300 -34 0 0 298 -34 0 0 301 -34 0 0 299 -34 0 0 85 -34 0 0 84 -18 0 0 81 -36 0 0 286 -35 0 0 79 -35 0 0 71 -34 0 0 264 -33 0 0 67 -34 0 0
EndChar
StartChar: B
Encoding: 66 66 35
Width: 740
Flags: W
HStem: 0 31<31 39.3333> 0 41<334 396> 350 43<221 368> 642 39<31 385> 650 31<31 39.3333>
VStem: 121 100<127 350 144 561> 562 102<511 529> 589 113<191 208>
Fore
31 681 m 1x35
 383 681 l 2
 486 681 545 670 591 643 c 0
 636 617 664 569 664 519 c 0x36
 664 480 647 444 616 421 c 0
 591 401 570 391 519 379 c 1
 573 366 596 357 626 338 c 0
 674 308 702 258 702 201 c 0
 702 143 673 86 627 53 c 0
 576 16 507 0 396 0 c 2x75
 31 0 l 1
 31 31 l 1
 56 34 l 2
 108 41 121 62 121 144 c 2
 121 537 l 2
 121 619 108 640 56 647 c 2
 31 650 l 1xad
 31 681 l 1x35
221 393 m 1
 337 393 l 2
 497 393 562 428 562 516 c 0
 562 601 494 642 356 642 c 0
 241 642 221 629 221 557 c 2
 221 393 l 1
221 350 m 1
 221 154 l 2
 221 105 224 86 233 73 c 0
 247 52 289 41 351 41 c 0
 437 41 495 54 533 83 c 0
 568 109 589 156 589 206 c 0x65
 589 266 562 312 514 333 c 0
 486 345 433 350 339 350 c 2
 221 350 l 1
EndSplineSet
KernsSLIF: 89 -12 0 0 87 -12 0 0 86 -12 0 0 288 -1 0 0 286 -1 0 0 289 -1 0 0 287 -1 0 0 234 -1 0 0 79 -1 0 0
EndChar
StartChar: C
Encoding: 67 67 36
Width: 740
Flags: W
HStem: -13 48<392 414> 646 48<372 399>
VStem: 44 118<322 356>
Fore
633 672 m 1
 681 431 l 1
 649 431 l 1
 618 487 606 508 587 536 c 0
 540 604 466 646 392 646 c 0
 260 646 162 515 162 338 c 0
 162 248 188 167 235 116 c 0
 278 68 350 35 412 35 c 0
 464 35 529 58 577 94 c 0
 610 118 630 140 659 183 c 1
 702 159 l 1
 628 44 526 -13 397 -13 c 0
 195 -13 44 137 44 337 c 0
 44 431 77 519 138 584 c 0
 199 650 293 694 373 694 c 0
 459 694 520 675 579 630 c 1
 600 672 l 1
 633 672 l 1
EndSplineSet
KernsSLIF: 286 -10 0 0 287 -10 0 0 79 -10 0 0 75 -14 0 0 72 -14 0 0 262 -10 0 0 256 -10 0 0 257 -10 0 0 225 -10 0 0 65 -10 0 0
EndChar
StartChar: D
Encoding: 68 68 37
Width: 800
Flags: W
HStem: 0 31<31 39.3333> 0 41<318 368> 640 41<31 368> 650 31<31 39.3333>
VStem: 121 100<111 561> 634 118<319 353>
Fore
121 144 m 2x8c
 121 537 l 2
 121 619 108 640 56 647 c 2
 31 650 l 1x9c
 31 681 l 1
 336 681 l 2
 487 681 583 652 652 587 c 0
 713 529 752 430 752 335 c 0
 752 237 711 141 644 83 c 0
 574 22 491 0 336 0 c 2x6c
 31 0 l 1
 31 31 l 1
 56 34 l 2
 108 41 121 62 121 144 c 2x8c
221 548 m 2
 221 129 l 2
 221 89 224 73 235 63 c 0
 249 50 290 41 339 41 c 0
 440 41 521 74 570 135 c 0
 611 186 634 262 634 342 c 0
 634 416 614 484 579 534 c 0
 529 605 449 640 340 640 c 0x6c
 289 640 245 630 233 615 c 0
 224 605 221 587 221 548 c 2
EndSplineSet
KernsSLIF: 89 -40 0 0 88 -38 0 0 87 -32 0 0 86 -40 0 0 84 16 0 0 74 20 0 0 261 -35 0 0 262 -35 0 0 258 -35 0 0 256 -35 0 0 259 -35 0 0 257 -35 0 0 65 -35 0 0
EndChar
StartChar: E
Encoding: 69 69 38
Width: 720
Flags: W
HStem: 0 31<31 39.3333> 0 43<318 614> 342 43<221 304> 638 43<31 368> 650 31<31 39.3333>
VStem: 121 100<111 342 144 561>
Fore
602 681 m 1x2c
 671 501 l 1
 639 488 l 1
 547 600 471 638 335 638 c 0
 247 638 221 619 221 555 c 2
 221 385 l 1
 297 385 l 2
 382 385 404 408 418 512 c 1
 452 512 l 1
 452 213 l 1
 418 213 l 1
 408 307 374 342 295 342 c 2
 221 342 l 1
 221 131 l 2
 221 99 225 83 234 71 c 0
 250 52 284 43 334 43 c 0
 483 43 565 87 674 227 c 1
 705 213 l 1
 614 0 l 1x74
 31 0 l 1
 31 31 l 1
 56 34 l 2
 108 41 121 62 121 144 c 2
 121 537 l 2
 121 619 108 640 56 647 c 2
 31 650 l 1xac
 31 681 l 1x34
 602 681 l 1x2c
EndSplineSet
EndChar
StartChar: F
Encoding: 70 70 39
Width: 640
Flags: W
HStem: 0 31<31 39.3333 308 319> 342 43<221 304> 639 42<31 352> 650 31<31 39.3333>
VStem: 121 100<144 342 144 561>
Fore
582 681 m 1xd8
 654 510 l 1
 622 494 l 1
 535 598 454 639 333 639 c 0xe8
 289 639 252 631 238 617 c 0
 226 605 221 585 221 541 c 2
 221 385 l 1
 287 385 l 2
 350 385 378 396 397 429 c 0
 407 447 411 465 416 510 c 1
 447 510 l 1
 447 214 l 1
 416 214 l 1
 409 266 403 285 388 304 c 0
 367 330 336 342 287 342 c 2
 221 342 l 1
 221 144 l 2
 221 63 235 39 286 34 c 2
 319 31 l 1
 319 0 l 1
 31 0 l 1
 31 31 l 1
 56 34 l 2
 108 41 121 62 121 144 c 2
 121 537 l 2
 121 619 108 640 56 647 c 2
 31 650 l 1xd8
 31 681 l 1xe8
 582 681 l 1xd8
EndSplineSet
KernsSLIF: 117 18 0 0 114 18 0 0 46 -102 0 0 249 -39 0 0 250 -40 0 0 351 -38 0 0 352 -38 0 0 111 -38 0 0 106 23 0 0 105 17 0 0 45 -33 0 0 335 -38 0 0 101 -38 0 0 44 -101 0 0 328 -28 0 0 241 -30 0 0 322 -28 0 0 323 -28 0 0 97 -28 0 0 286 7 0 0 79 7 0 0 74 -39 0 0 261 -61 0 0 262 -61 0 0 258 -61 0 0 256 -61 0 0 259 -61 0 0 257 -61 0 0 65 -61 0 0
EndChar
StartChar: G
Encoding: 71 71 40
Width: 800
Flags: W
HStem: -13 48<380 413> 294 30<505 513.111> 646 48<377 405>
VStem: 44 118<322 356> 603 92<180 202>
Fore
625 681 m 1
 686 469 l 1
 648 458 l 1
 602 523 576 554 543 582 c 0
 491 625 439 646 385 646 c 0
 251 646 162 522 162 336 c 0
 162 156 259 35 403 35 c 0
 469 35 537 63 571 103 c 1
 591 129 603 164 603 200 c 0
 603 261 578 285 505 294 c 1
 505 324 l 1
 778 324 l 1
 778 293 l 1
 760 290 l 2
 726 284 714 278 707 262 c 0
 699 243 695 218 695 180 c 2
 695 0 l 1
 648 0 l 1
 616 69 l 1
 541 11 475 -13 389 -13 c 0
 192 -13 44 140 44 343 c 0
 44 438 76 522 135 587 c 1
 198 654 289 694 379 694 c 0
 448 694 516 673 574 633 c 1
 594 681 l 1
 625 681 l 1
EndSplineSet
KernsSLIF: 89 -24 0 0 87 -24 0 0 86 -24 0 0 84 -2 0 0 261 8 0 0 262 8 0 0 258 8 0 0 256 8 0 0 259 8 0 0 257 8 0 0 225 8 0 0 65 8 0 0
EndChar
StartChar: H
Encoding: 72 72 41
Width: 800
Flags: W
HStem: 0 31<31 39.3333 302.667 311 489 497.333 760.667 769> 345 43<221 579> 650 31<31 39.3333 302.667 311 489 497.333 760.667 769>
VStem: 121 100<144 345 144 561> 579 100<144 345 388 561>
Fore
221 388 m 1
 579 388 l 1
 579 537 l 2
 579 619 566 640 514 647 c 2
 489 650 l 1
 489 681 l 1
 769 681 l 1
 769 650 l 1
 744 647 l 2
 692 640 679 619 679 537 c 2
 679 144 l 2
 679 62 692 41 744 34 c 2
 769 31 l 1
 769 0 l 1
 489 0 l 1
 489 31 l 1
 514 34 l 2
 566 41 579 62 579 144 c 2
 579 345 l 1
 221 345 l 1
 221 144 l 2
 221 62 234 41 286 34 c 2
 311 31 l 1
 311 0 l 1
 31 0 l 1
 31 31 l 1
 56 34 l 2
 108 41 121 62 121 144 c 2
 121 537 l 2
 121 619 108 640 56 647 c 2
 31 650 l 1
 31 681 l 1
 311 681 l 1
 311 650 l 1
 286 647 l 2
 234 640 221 619 221 537 c 2
 221 388 l 1
EndSplineSet
EndChar
StartChar: I
Encoding: 73 73 42
Width: 340
Flags: W
HStem: 0 21G<31 301> 661 20G<31 301>
VStem: 116 100<144 561>
Fore
216 537 m 2
 216 144 l 2
 216 61 227 43 281 34 c 2
 301 31 l 1
 301 0 l 1
 31 0 l 1
 31 31 l 1
 51 34 l 2
 105 43 116 61 116 144 c 2
 116 537 l 2
 116 620 105 638 51 647 c 2
 31 650 l 1
 31 681 l 1
 301 681 l 1
 301 650 l 1
 281 647 l 2
 227 638 216 620 216 537 c 2
EndSplineSet
EndChar
StartChar: J
Encoding: 74 74 43
Width: 600
Flags: W
HStem: -13 48<207 230> 650 31<287 295.333 558.667 567>
VStem: -23 133<186 221> 377 100<242 564>
Fore
477 537 m 2
 477 260 l 2
 477 148 471 114 442 76 c 0
 402 22 318 -13 228 -13 c 0
 167 -13 108 3 66 31 c 0
 12 67 -23 129 -23 186 c 0
 -23 238 9 275 55 275 c 0
 88 275 110 254 110 221 c 0
 110 203 103 189 85 173 c 0
 70 159 65 149 65 133 c 0
 65 80 132 35 209 35 c 0
 271 35 320 57 345 97 c 0
 370 137 377 185 377 311 c 2
 377 537 l 2
 377 619 364 640 312 647 c 2
 287 650 l 1
 287 681 l 1
 567 681 l 1
 567 650 l 1
 542 647 l 2
 490 640 477 619 477 537 c 2
EndSplineSet
KernsSLIF: 262 -36 0 0 256 -36 0 0 225 -37 0 0 65 -36 0 0
EndChar
StartChar: K
Encoding: 75 75 44
Width: 720
Flags: W
HStem: 0 31<31 39.3333 313.333 327 442 450> 650 31<31 39.3333 313.333 327 417 427>
VStem: 121 100<144 283 144 561>
DStem: 337 386 417 451 498 129 607 141 397 504 337 386 221 345 221 283
Fore
750 0 m 1
 442 0 l 1
 442 31 l 1
 450 32 457 33 460 33 c 0
 504 37 521 49 521 73 c 0
 521 87 515 102 498 129 c 2
 337 386 l 1
 221 283 l 1
 221 144 l 2
 221 63 236 38 286 34 c 2
 327 31 l 1
 327 0 l 1
 31 0 l 1
 31 31 l 1
 56 34 l 2
 108 41 121 62 121 144 c 2
 121 537 l 2
 121 619 108 640 56 647 c 2
 31 650 l 1
 31 681 l 1
 327 681 l 1
 327 650 l 1
 286 647 l 2
 236 643 221 618 221 537 c 2
 221 345 l 1
 397 504 l 1
 403 509 l 1
 426 529 l 2
 477 574 485 585 485 608 c 0
 485 634 470 645 427 649 c 2
 417 650 l 1
 417 681 l 1
 703 681 l 1
 703 650 l 1
 696 648 l 2
 653 640 598 608 537 556 c 2
 417 451 l 1
 607 141 l 1
 656 65 682 45 750 30 c 1
 750 0 l 1
EndSplineSet
KernsSLIF: 121 -53 0 0 362 -17 0 0 117 -17 0 0 351 -10 0 0 352 -10 0 0 111 -10 0 0 45 -32 0 0 101 -15 0 0 328 19 0 0 241 20 0 0 322 19 0 0 97 19 0 0 84 30 0 0 83 16 0 0 286 -39 0 0 287 -39 0 0 234 -38 0 0 79 -39 0 0 71 -37 0 0 67 -37 0 0
EndChar
StartChar: L
Encoding: 76 76 45
Width: 600
Flags: W
HStem: 0 31<31 39.3333> 0 38<288.751 320> 650 31<31 39.3333 307.333 318>
VStem: 121 100<111 561>
Fore
629 214 m 1x70
 549 0 l 1x70
 31 0 l 1
 31 31 l 1xb0
 56 34 l 2
 108 41 121 62 121 144 c 2
 121 537 l 2
 121 619 108 640 56 647 c 2
 31 650 l 1
 31 681 l 1
 318 681 l 1
 318 650 l 1
 286 647 l 2
 235 642 221 618 221 537 c 2
 221 123 l 2
 221 93 225 73 233 63 c 0
 245 48 274 38 307 38 c 0
 368 38 434 62 491 105 c 0
 530 134 555 162 601 227 c 1
 629 214 l 1x70
EndSplineSet
KernsSLIF: 121 -11 0 0 362 -1 0 0 117 -1 0 0 39 -69 0 0 186 -69 0 0 45 56 0 0 89 -50 0 0 87 -36 0 0 86 -52 0 0 84 -54 0 0 83 42 0 0 290 25 0 0 288 25 0 0 286 25 0 0 289 25 0 0 287 25 0 0 79 25 0 0 71 26 0 0 264 27 0 0 67 26 0 0 262 42 0 0 256 42 0 0 257 42 0 0 225 41 0 0 65 42 0 0
EndChar
StartChar: M
Encoding: 77 77 46
Width: 920
Flags: W
HStem: 0 31<26 36.3333 267.333 279 614 622.333 885.667 894> 650 31<32 40.3333 885.667 894>
VStem: 122 57<144 561> 704 100<144 561>
DStem: 179 622 265 681 408 0 457 166 666 681 704 610 457 166 453 0
Fore
453 0 m 1
 408 0 l 1
 179 622 l 1
 179 144 l 2
 179 63 193 39 244 34 c 2
 279 31 l 1
 279 0 l 1
 26 0 l 1
 26 31 l 1
 57 34 l 2
 108 39 122 63 122 144 c 2
 122 537 l 2
 122 619 109 640 57 647 c 2
 32 650 l 1
 32 681 l 1
 265 681 l 1
 457 166 l 1
 666 681 l 1
 894 681 l 1
 894 650 l 1
 869 647 l 2
 817 640 804 619 804 537 c 2
 804 144 l 2
 804 62 817 41 869 34 c 2
 894 31 l 1
 894 0 l 1
 614 0 l 1
 614 31 l 1
 639 34 l 2
 691 41 704 62 704 144 c 2
 704 610 l 1
 453 0 l 1
EndSplineSet
EndChar
StartChar: N
Encoding: 78 78 47
Width: 740
Flags: W
HStem: 0 31<26 34.3333 261.333 273> 650 31<26 34.3333 475 486.667 713.667 722>
VStem: 116 57<144 561> 575 57<142 561>
DStem: 173 606 249 681 544 0 575 142
Fore
173 606 m 1
 173 144 l 2
 173 63 187 39 238 34 c 2
 273 31 l 1
 273 0 l 1
 26 0 l 1
 26 31 l 1
 51 34 l 2
 103 41 116 62 116 144 c 2
 116 537 l 2
 116 619 103 640 51 647 c 2
 26 650 l 1
 26 681 l 1
 249 681 l 1
 575 142 l 1
 575 537 l 2
 575 618 561 642 510 647 c 2
 475 650 l 1
 475 681 l 1
 722 681 l 1
 722 650 l 1
 697 647 l 2
 645 640 632 619 632 537 c 2
 632 0 l 1
 544 0 l 1
 173 606 l 1
EndSplineSet
KernsSLIF: 362 -24 0 0 117 -24 0 0 46 -17 0 0 249 -13 0 0 351 -14 0 0 352 -14 0 0 111 -14 0 0 335 -15 0 0 101 -15 0 0 44 -16 0 0 328 -17 0 0 241 -16 0 0 322 -17 0 0 323 -17 0 0 97 -17 0 0 286 -12 0 0 287 -12 0 0 79 -12 0 0 71 -11 0 0 264 -11 0 0 67 -12 0 0 262 7 0 0 256 7 0 0 257 7 0 0 225 6 0 0 65 7 0 0
EndChar
StartChar: O
Encoding: 79 79 48
Width: 800
Flags: W
HStem: -13 48<379 413> 646 48<379 413>
VStem: 44 118<322 356> 640 118<322 356>
Fore
404 694 m 0
 609 694 758 544 758 338 c 0
 758 254 733 178 684 118 c 0
 618 37 510 -13 400 -13 c 0
 198 -13 44 141 44 343 c 0
 44 539 203 694 404 694 c 0
402 646 m 0
 257 646 162 526 162 342 c 0
 162 155 255 35 401 35 c 0
 546 35 640 152 640 332 c 0
 640 525 548 646 402 646 c 0
EndSplineSet
KernsSLIF: 89 -36 0 0 88 -38 0 0 87 -29 0 0 86 -36 0 0 84 19 0 0 262 -35 0 0 256 -35 0 0 257 -35 0 0 225 -35 0 0 65 -35 0 0
EndChar
StartChar: P
Encoding: 80 80 49
Width: 620
Flags: W
HStem: 0 31<31 39.3333 310.667 323> 291 43<221 368> 639 42<31 366> 650 31<31 39.3333>
VStem: 121 100<144 291 144 575> 511 102<479 497>
Fore
221 291 m 1xec
 221 144 l 2
 221 63 236 38 286 34 c 2
 323 31 l 1
 323 0 l 1
 31 0 l 1
 31 31 l 1
 56 34 l 2
 108 41 121 62 121 144 c 2
 121 537 l 2
 121 619 108 640 56 647 c 2
 31 650 l 1xdc
 31 681 l 1
 363 681 l 2
 517 681 613 608 613 490 c 0
 613 425 579 362 527 329 c 0
 488 305 428 291 362 291 c 2
 221 291 l 1xec
221 334 m 1
 346 334 l 2
 406 334 443 347 473 381 c 0
 498 409 511 445 511 487 c 0
 511 530 498 567 473 594 c 0
 444 626 403 639 335 639 c 0xec
 239 639 221 629 221 575 c 2
 221 334 l 1
EndSplineSet
KernsSLIF: 46 -95 0 0 249 -10 0 0 250 -12 0 0 351 -10 0 0 352 -10 0 0 111 -10 0 0 45 -9 0 0 335 -10 0 0 101 -10 0 0 44 -94 0 0 328 -3 0 0 241 -5 0 0 322 -3 0 0 323 -3 0 0 97 -3 0 0 74 -24 0 0 262 -51 0 0 256 -51 0 0 257 -51 0 0 225 -87 0 0 65 -51 0 0
EndChar
StartChar: Q
Encoding: 81 81 50
Width: 820
Flags: W
HStem: -190 45<370 429> -13 45<407 444> 110 58<459 478> 646 48<411 429>
VStem: 44 118<321 355> 103 118<-70 -57> 333 48<65 86> 629 88<-7 3> 651 118<305 355>
Fore
675 91 m 1xfa80
 706 52 717 25 717 -7 c 0
 717 -113 584 -190 400 -190 c 0
 241 -190 103 -128 103 -57 c 0
 103 -30 126 -11 160 -11 c 0
 197 -11 221 -34 221 -70 c 0
 222 -97 228 -106 260 -120 c 0
 290 -135 348 -145 399 -145 c 0
 531 -145 629 -86 629 -7 c 0xf7
 629 10 625 21 614 42 c 1
 553 6 482 -13 407 -13 c 0
 204 -13 44 141 44 335 c 0
 44 537 204 694 411 694 c 0
 619 694 769 544 769 337 c 0
 769 237 741 164 675 91 c 1xfa80
612 139 m 1
 639 203 651 265 651 341 c 0
 651 524 555 646 411 646 c 0
 263 646 162 517 162 330 c 0xfa80
 162 259 178 195 207 145 c 0
 246 79 284 52 369 32 c 1
 342 51 333 65 333 86 c 0
 333 134 391 168 476 168 c 0
 522 168 545 163 612 139 c 1
571 84 m 1
 563 88 l 2
 535 102 501 110 468 110 c 0
 418 110 381 91 381 65 c 0
 381 45 407 32 444 32 c 0
 489 32 538 52 571 84 c 1
EndSplineSet
EndChar
StartChar: R
Encoding: 82 82 51
Width: 720
Flags: W
HStem: 0 31<31 39.3333 310 322> 321 43<221 365> 640 41<31 400> 650 31<31 39.3333>
VStem: 121 100<144 321 144 581> 561 108<495 513>
DStem: 365 321 484 331 590 0 650 96
Fore
484 331 m 1xdc
 650 96 l 1
 681 56 708 40 757 31 c 1
 757 0 l 1
 590 0 l 1
 365 321 l 1
 221 321 l 1
 221 144 l 2
 221 63 235 39 286 34 c 2
 322 31 l 1
 322 0 l 1
 31 0 l 1
 31 31 l 1
 56 34 l 2
 108 41 121 62 121 144 c 2
 121 537 l 2
 121 619 108 640 56 647 c 2
 31 650 l 1xdc
 31 681 l 1xec
 438 681 l 2
 582 681 669 616 669 509 c 0
 669 457 647 410 607 378 c 0
 574 351 546 340 484 331 c 1xdc
221 364 m 1
 389 364 l 2
 445 364 481 373 509 395 c 0
 542 421 561 461 561 505 c 0
 561 595 497 640 369 640 c 0xec
 318 640 267 633 247 624 c 0
 229 616 221 603 221 581 c 2
 221 364 l 1
EndSplineSet
KernsSLIF: 121 24 0 0 362 2 0 0 363 2 0 0 117 2 0 0 250 -7 0 0 351 -7 0 0 352 -7 0 0 111 -7 0 0 45 -23 0 0 335 -12 0 0 101 -12 0 0 328 23 0 0 241 24 0 0 322 23 0 0 323 23 0 0 97 23 0 0 298 -16 0 0 85 -16 0 0 84 34 0 0 286 -9 0 0 287 -9 0 0 234 -8 0 0 79 -9 0 0 71 -7 0 0 264 -7 0 0 67 -8 0 0
EndChar
StartChar: S
Encoding: 83 83 52
Width: 660
Flags: W
HStem: -13 48<331 365> 646 48<287 317>
VStem: 59 102<515 539> 532 102<183 202>
Fore
525 681 m 1
 586 500 l 1
 554 488 l 1
 484 595 404 646 308 646 c 0
 225 646 161 599 161 539 c 0
 161 485 200 454 297 430 c 2
 422 400 l 2
 530 374 580 347 610 299 c 0
 625 276 634 238 634 202 c 0
 634 82 512 -13 356 -13 c 0
 276 -13 210 7 149 50 c 1
 130 0 l 1
 93 0 l 1
 28 229 l 1
 65 241 l 1
 135 107 236 35 351 35 c 0
 454 35 532 99 532 184 c 0
 532 244 498 274 399 298 c 2
 265 332 l 2
 187 352 134 376 103 407 c 0
 77 434 59 476 59 515 c 0
 59 563 85 612 128 646 c 0
 169 678 222 694 288 694 c 0
 364 694 421 679 477 645 c 1
 489 681 l 1
 525 681 l 1
EndSplineSet
KernsSLIF: 116 -11 0 0 89 -3 0 0 87 -3 0 0 86 -3 0 0 84 22 0 0 262 3 0 0 256 3 0 0 257 3 0 0 225 2 0 0 65 3 0 0
EndChar
StartChar: T
Encoding: 84 84 53
Width: 620
Flags: W
HStem: 0 31<156 169 451 464> 643 38<20 220 20 412>
VStem: 260 100<144 609>
Fore
600 681 m 1
 656 505 l 1
 621 493 l 1
 565 591 489 643 401 643 c 0
 368 643 360 634 360 599 c 2
 360 144 l 2
 360 63 375 38 425 34 c 2
 464 31 l 1
 464 0 l 1
 156 0 l 1
 156 31 l 1
 195 34 l 2
 245 38 260 63 260 144 c 2
 260 603 l 2
 260 633 249 643 216 643 c 0
 124 643 55 597 -4 493 c 1
 -37 505 l 1
 20 681 l 1
 600 681 l 1
EndSplineSet
KernsSLIF: 121 -78 0 0 119 -80 0 0 118 -78 0 0 117 -100 0 0 59 -80 0 0 115 -72 0 0 114 -49 0 0 46 -81 0 0 249 -58 0 0 111 -86 0 0 45 -69 0 0 172 -91 0 0 171 -91 0 0 103 -43 0 0 101 -87 0 0 44 -80 0 0 58 -82 0 0 99 -86 0 0 241 -71 0 0 97 -72 0 0 89 54 0 0 87 54 0 0 86 54 0 0 83 30 0 0 290 17 0 0 233 17 0 0 288 17 0 0 286 17 0 0 289 17 0 0 287 17 0 0 234 18 0 0 79 17 0 0 74 -50 0 0 71 19 0 0 67 18 0 0 261 -16 0 0 262 -16 0 0 258 -16 0 0 256 -16 0 0 259 -16 0 0 257 -16 0 0 225 -16 0 0 65 -16 0 0
EndChar
StartChar: U
Encoding: 85 85 54
Width: 780
Flags: W
HStem: -13 48<390 426> 650 31<25 33.3333 304.667 317 509 520 745.667 754>
VStem: 115 100<202 564> 607 57<226 564>
Fore
664 537 m 2
 664 204 l 2
 664 137 652 97 622 63 c 0
 575 10 506 -13 392 -13 c 0
 309 -13 253 0 203 32 c 0
 138 73 115 118 115 202 c 2
 115 537 l 2
 115 619 102 640 50 647 c 2
 25 650 l 1
 25 681 l 1
 317 681 l 1
 317 650 l 1
 280 647 l 2
 230 643 215 618 215 537 c 2
 215 270 l 2
 215 179 221 141 239 109 c 0
 265 61 325 35 407 35 c 0
 481 35 539 55 570 91 c 0
 599 125 607 164 607 272 c 2
 607 537 l 2
 607 618 593 642 542 647 c 2
 509 650 l 1
 509 681 l 1
 754 681 l 1
 754 650 l 1
 729 647 l 2
 677 640 664 619 664 537 c 2
EndSplineSet
KernsSLIF: 114 -28 0 0 46 -36 0 0 112 -28 0 0 110 -28 0 0 109 -27 0 0 44 -35 0 0 261 -31 0 0 262 -31 0 0 256 -31 0 0 259 -31 0 0 257 -31 0 0 225 -32 0 0 65 -31 0 0
EndChar
StartChar: V
Encoding: 86 86 55
Width: 700
Flags: W
HStem: 0 21G<313 373> 648 33<-30 -20>
DStem: 540 547 592 531 368 111 373 0
Fore
368 111 m 1
 540 547 l 2
 546 562 550 578 550 589 c 0
 550 628 522 647 458 650 c 1
 458 681 l 1
 725 681 l 1
 725 650 l 1
 649 642 634 629 592 531 c 1
 373 0 l 1
 313 0 l 1
 88 546 l 2
 55 625 38 641 -20 648 c 0
 -21 648 -25 649 -30 650 c 1
 -30 681 l 1
 269 681 l 1
 269 650 l 1
 233 649 223 647 210 642 c 0
 194 637 183 622 183 606 c 0
 183 596 187 578 192 565 c 2
 368 111 l 1
EndSplineSet
KernsSLIF: 121 -12 0 0 117 -36 0 0 59 -72 0 0 114 -36 0 0 46 -103 0 0 249 -71 0 0 111 -72 0 0 105 -18 0 0 45 -49 0 0 172 -70 0 0 171 -70 0 0 103 -76 0 0 101 -73 0 0 44 -102 0 0 58 -72 0 0 241 -73 0 0 97 -70 0 0 84 51 0 0 83 -7 0 0 290 -43 0 0 233 -42 0 0 288 -43 0 0 286 -43 0 0 289 -43 0 0 287 -43 0 0 79 -43 0 0 71 -39 0 0 67 -42 0 0 261 -80 0 0 262 -80 0 0 258 -80 0 0 256 -80 0 0 259 -80 0 0 257 -80 0 0 225 -95 0 0 65 -80 0 0
EndChar
StartChar: W
Encoding: 87 87 56
Width: 960
Flags: W
HStem: 0 21G<265 324 617 676> 650 31<228.25 242 589 598 732 739.4 968 984>
DStem: 77 540 176 574 265 0 322 134 441 515 470 437 322 134 324 0 470 437 529 581 617 0 675 136
Fore
676 0 m 1
 617 0 l 1
 470 437 l 1
 324 0 l 1
 265 0 l 1
 77 540 l 1
 46 626 39 633 -30 650 c 1
 -30 681 l 1
 242 681 l 1
 242 650 l 1
 187 646 170 635 170 606 c 0
 170 596 172 585 176 574 c 1
 322 134 l 1
 441 515 l 1
 415 607 390 635 324 650 c 1
 324 681 l 1
 598 681 l 1
 598 650 l 1
 571 647 567 646 556 643 c 0
 536 638 525 624 525 604 c 0
 525 595 526 588 529 581 c 1
 675 136 l 1
 809 552 l 2
 812 562 815 579 815 589 c 0
 815 610 802 630 782 640 c 0
 773 644 769 645 732 650 c 1
 732 681 l 1
 984 681 l 1
 984 650 l 1
 920 646 902 628 870 540 c 2
 676 0 l 1
EndSplineSet
KernsSLIF: 121 -4 0 0 117 -27 0 0 59 -63 0 0 114 -27 0 0 46 -85 0 0 249 -56 0 0 111 -57 0 0 105 -22 0 0 45 -35 0 0 172 -55 0 0 171 -56 0 0 103 -61 0 0 101 -59 0 0 44 -84 0 0 58 -63 0 0 241 -61 0 0 97 -60 0 0 84 50 0 0 83 -7 0 0 290 -38 0 0 233 -35 0 0 288 -38 0 0 286 -38 0 0 289 -38 0 0 287 -38 0 0 79 -38 0 0 71 -37 0 0 67 -37 0 0 261 -68 0 0 262 -68 0 0 258 -68 0 0 256 -68 0 0 259 -68 0 0 257 -68 0 0 225 -74 0 0 65 -68 0 0
EndChar
StartChar: X
Encoding: 88 88 57
Width: 720
Flags: W
HStem: 0 31<228 252 746.5 755> 650 31<16 25.5 298 326 458 475.126 458 506>
DStem: 142 572 267 572 314 353 391 410 314 353 344 312 156 166 191 122 344 312 419 371 484 125 611 121 508 560 550 532 391 410 419 371
Fore
419 371 m 1
 611 121 l 1
 659 57 687 39 755 31 c 1
 755 0 l 1
 427 0 l 1
 427 31 l 1
 434 32 440 32 442 33 c 0
 489 37 508 49 508 72 c 0
 508 87 502 101 484 125 c 2
 344 312 l 1
 191 122 l 2
 182 110 177 96 177 84 c 0
 177 52 204 33 252 31 c 1
 252 0 l 1
 -30 0 l 1
 -30 31 l 1
 53 58 87 82 156 166 c 1
 314 353 l 1
 142 572 l 1
 101 627 73 644 16 650 c 1
 16 681 l 1
 326 681 l 1
 326 650 l 1
 270 648 249 637 249 612 c 0
 249 601 255 586 267 572 c 1
 391 410 l 1
 508 560 l 2
 520 576 528 594 528 607 c 0
 528 635 506 649 458 650 c 1
 458 681 l 1
 727 681 l 1
 727 650 l 1
 649 637 625 621 550 532 c 1
 419 371 l 1
EndSplineSet
KernsSLIF: 121 -50 0 0 117 -15 0 0 111 -8 0 0 45 -47 0 0 101 -13 0 0 97 22 0 0 81 -38 0 0 286 -37 0 0 79 -37 0 0 67 -35 0 0
EndChar
StartChar: Y
Encoding: 89 89 58
Width: 640
Flags: W
HStem: 0 31<149 162.667 447.333 461> 650 31<247.375 255>
VStem: 255 100<144 284>
DStem: 88 550 191 573 255 284 332 345 474 563 520 539 332 345 355 286
Fore
355 286 m 1
 355 144 l 2
 355 63 370 38 420 34 c 2
 461 31 l 1
 461 0 l 1
 149 0 l 1
 149 31 l 1
 190 34 l 2
 240 38 255 63 255 144 c 2
 255 284 l 1
 88 550 l 1
 44 622 26 637 -30 650 c 1
 -30 681 l 1
 255 681 l 1
 255 650 l 1
 194 642 176 632 176 609 c 0
 176 600 180 591 191 573 c 2
 332 345 l 1
 474 563 l 2
 484 578 490 594 490 606 c 0
 490 630 471 641 417 650 c 1
 417 681 l 1
 666 681 l 1
 666 650 l 1
 596 636 572 619 520 539 c 2
 355 286 l 1
EndSplineSet
KernsSLIF: 118 -26 0 0 117 -51 0 0 59 -86 0 0 46 -94 0 0 112 -51 0 0 249 -84 0 0 111 -85 0 0 105 -11 0 0 45 -79 0 0 172 -93 0 0 171 -93 0 0 103 -82 0 0 101 -86 0 0 44 -92 0 0 58 -86 0 0 241 -83 0 0 97 -84 0 0 84 51 0 0 83 -6 0 0 290 -42 0 0 233 -42 0 0 288 -42 0 0 286 -42 0 0 289 -42 0 0 287 -42 0 0 79 -42 0 0 71 -38 0 0 67 -41 0 0 261 -28 0 0 262 -28 0 0 258 -28 0 0 256 -28 0 0 259 -28 0 0 257 -28 0 0 225 -28 0 0 65 -28 0 0
EndChar
StartChar: Z
Encoding: 90 90 59
Width: 640
Flags: W
HStem: 0 43<233 584> 639 42<113 395>
DStem: 481 627 619 644 10 31 151 51
Fore
656 205 m 1
 584 0 l 1
 29 0 l 1
 10 31 l 1
 481 627 l 1
 436 636 405 639 361 639 c 0
 230 639 154 599 73 488 c 1
 40 500 l 1
 113 681 l 1
 608 681 l 1
 619 644 l 1
 151 51 l 1
 207 45 234 43 279 43 c 0
 468 43 565 92 625 218 c 1
 656 205 l 1
EndSplineSet
KernsSLIF: 121 -16 0 0 118 -12 0 0
EndChar
StartChar: bracketleft
Encoding: 91 91 60
Width: 300
Flags: W
HStem: -141 42<219 258> 675 42<92 258>
VStem: 92 90<-141 628>
Fore
92 -141 m 1
 92 717 l 1
 258 717 l 1
 258 675 l 1
 242 675 l 2
 189 675 182 668 182 615 c 2
 182 -26 l 2
 182 -89 190 -99 241 -99 c 2
 258 -99 l 1
 258 -141 l 1
 92 -141 l 1
EndSplineSet
EndChar
StartChar: backslash
Encoding: 92 92 61
Width: 600
Flags: W
HStem: 0 21G<446 532>
DStem: 74 717 160 717 446 0 532 0
Fore
160 717 m 1
 532 0 l 1
 446 0 l 1
 74 717 l 1
 160 717 l 1
EndSplineSet
EndChar
StartChar: bracketright
Encoding: 93 93 62
Width: 300
Flags: W
HStem: -141 42<41 207>
VStem: 117 90<-62 717>
Fore
207 717 m 1
 207 -141 l 1
 41 -141 l 1
 41 -99 l 1
 57 -99 l 2
 110 -99 117 -92 117 -39 c 2
 117 602 l 2
 117 666 109 675 58 675 c 2
 41 675 l 1
 41 717 l 1
 207 717 l 1
EndSplineSet
EndChar
StartChar: asciicircum
Encoding: 94 94 63
Width: 600
Flags: W
DStem: 261 722 303 629 52 318 138 318 303 629 345 722 468 318 554 318
Fore
554 318 m 1
 468 318 l 1
 303 629 l 1
 138 318 l 1
 52 318 l 1
 261 722 l 1
 345 722 l 1
 554 318 l 1
EndSplineSet
EndChar
StartChar: underscore
Encoding: 95 95 64
Width: 500
Flags: W
HStem: -155 60<0 500>
Fore
0 -95 m 1
 500 -95 l 1
 500 -155 l 1
 0 -155 l 1
 0 -95 l 1
EndSplineSet
EndChar
StartChar: quoteleft
Encoding: 96 8216 65
Width: 220
Flags: W
Fore
144 694 m 1
 155 672 l 1
 114 645 96 619 93 580 c 1
 107 591 114 594 125 594 c 0
 156 594 178 570 178 536 c 0
 178 503 150 475 116 475 c 0
 78 475 46 512 46 558 c 0
 46 615 82 666 144 694 c 1
EndSplineSet
KernsSLIF: 89 27 1 0 87 34 1 0 86 28 1 0 84 41 1 0 262 -60 1 0 256 -60 1 0 257 -60 1 0 225 -196 1 0 65 -60 1 0
EndChar
StartChar: a
Encoding: 97 97 66
Width: 580
Flags: W
HStem: -9 45<484 523> 454 40<254 277>
VStem: 35 102<111 127> 57 99<363 374> 372 95<112 248 283 370>
Fore
372 284 m 1xe8
 372 364 l 2
 372 419 327 454 256 454 c 0
 200 454 155 431 155 402 c 1
 156 374 l 1
 156 346 133 323 105 323 c 0
 79 323 57 343 57 367 c 0xd8
 57 402 91 444 138 465 c 0
 178 482 232 494 275 494 c 0
 321 494 373 481 410 460 c 0
 451 437 467 406 467 346 c 2
 467 134 l 2
 467 91 469 78 476 64 c 0
 484 47 502 36 523 36 c 0
 540 36 551 41 568 56 c 1
 587 30 l 1
 559 3 526 -9 484 -9 c 0
 425 -9 391 14 372 68 c 1
 305 12 256 -9 189 -9 c 0
 100 -9 35 43 35 115 c 0
 35 182 92 231 203 259 c 0
 247 270 252 271 372 284 c 1xe8
372 113 m 1
 372 249 l 1
 221 236 137 192 137 125 c 0xe8
 137 77 176 39 224 39 c 0
 274 39 316 60 372 113 c 1
EndSplineSet
KernsSLIF: 121 -37 0 0 119 -31 0 0 118 -29 0 0 39 -38 0 0 106 -15 0 0
EndChar
StartChar: b
Encoding: 98 98 67
Width: 620
Flags: W
HStem: -9 48<315 340> 446 48<328 354>
VStem: 85 95<0 368 0 717> 480 102<230 264>
Fore
180 717 m 1
 180 422 l 1
 236 474 285 494 354 494 c 0
 487 494 582 391 582 248 c 0
 582 97 482 -9 340 -9 c 0
 276 -9 231 8 165 58 c 1
 141 0 l 1
 85 0 l 1
 85 538 l 2
 85 627 74 645 20 650 c 2
 -2 652 l 1
 -2 683 l 1
 66 691 89 697 140 717 c 1
 180 717 l 1
180 368 m 1
 180 95 l 1
 218 58 263 39 317 39 c 0
 416 39 480 119 480 245 c 0
 480 369 422 446 328 446 c 0
 270 446 231 425 180 368 c 1
EndSplineSet
KernsSLIF: 121 -24 0 0 119 -20 0 0 118 -18 0 0
EndChar
StartChar: c
Encoding: 99 99 68
Width: 520
Flags: W
HStem: -9 40<283 311> 454 40<276 294>
VStem: 37 102<230 264> 383 102<351 357>
Fore
469 126 m 1
 498 108 l 1
 446 27 379 -9 283 -9 c 0
 136 -9 37 93 37 242 c 0
 37 313 63 382 108 428 c 0
 150 472 209 494 281 494 c 0
 341 494 388 480 428 451 c 0
 464 424 485 390 485 357 c 0
 485 326 463 302 434 302 c 0
 405 302 383 324 383 353 c 1
 384 388 l 1
 384 423 337 454 285 454 c 0
 230 454 191 430 168 382 c 0
 149 343 139 294 139 238 c 0
 139 114 208 31 311 31 c 0
 372 31 413 56 469 126 c 1
EndSplineSet
KernsSLIF: 107 -17 0 0 104 -17 0 0
EndChar
StartChar: d
Encoding: 100 100 69
Width: 620
Flags: W
HStem: -9 48<250 279> 449 45<257 287>
VStem: 37 102<230 264> 423 95<117 717>
Fore
423 441 m 1
 423 538 l 2
 423 627 412 645 358 650 c 2
 337 652 l 1
 337 683 l 1
 405 691 428 697 478 717 c 1
 518 717 l 1
 518 115 l 2
 518 62 533 42 579 32 c 2
 591 30 l 1
 591 0 l 1
 423 0 l 1
 423 67 l 1
 394 36 379 26 350 13 c 0
 317 -1 282 -9 250 -9 c 0
 188 -9 127 20 92 67 c 0
 58 112 37 179 37 241 c 0
 37 385 132 494 257 494 c 0
 318 494 369 478 423 441 c 1
423 118 m 1
 423 389 l 1
 369 434 335 449 287 449 c 0
 230 449 188 422 165 371 c 0
 149 335 139 288 139 243 c 0
 139 197 149 148 166 112 c 0
 187 66 229 39 279 39 c 0
 335 39 378 63 423 118 c 1
EndSplineSet
EndChar
StartChar: e
Encoding: 101 101 70
Width: 520
Flags: W
HStem: -9 45<284 314> 289 40<147 491> 454 40<260 286>
VStem: 37 107<245 289>
Fore
458 132 m 1
 491 116 l 1
 440 29 376 -9 284 -9 c 0
 209 -9 148 16 103 67 c 0
 62 113 37 180 37 247 c 0
 37 391 136 494 273 494 c 0
 343 494 404 468 444 421 c 0
 477 383 490 347 491 289 c 1
 144 289 l 1
 144 218 149 174 164 139 c 0
 191 72 243 36 314 36 c 0
 376 36 422 66 458 132 c 1
147 329 m 1
 387 329 l 1
 387 332 l 1
 388 343 383 369 379 380 c 0
 360 429 322 454 269 454 c 0
 229 454 197 439 176 410 c 0
 160 389 154 371 147 329 c 1
EndSplineSet
KernsSLIF: 121 -12 0 0 120 -6 0 0 119 -8 0 0 118 -6 0 0 116 -25 0 0 39 -6 0 0
EndChar
StartChar: f
Encoding: 102 102 71
Width: 320
Flags: W
HStem: 0 30<20 32.5 276.5 289> 452 33<23 107 202 301> 634 100<328 368>
VStem: 107 95<115 452 485 591>
Fore
107 452 m 1
 23 452 l 1
 23 485 l 1
 107 485 l 1
 107 532 l 2
 107 605 121 642 162 675 c 0
 205 711 270 734 328 734 c 0
 377 734 414 710 414 677 c 0
 414 654 392 634 368 634 c 0
 350 634 336 643 322 662 c 0
 307 681 292 691 275 691 c 0
 258 691 239 682 225 668 c 0
 209 651 202 629 202 591 c 2
 202 485 l 1
 301 485 l 1
 301 452 l 1
 202 452 l 1
 202 115 l 2
 202 60 220 37 264 32 c 2
 289 30 l 1
 289 0 l 1
 20 0 l 1
 20 30 l 1
 45 32 l 2
 89 37 107 60 107 115 c 2
 107 452 l 1
EndSplineSet
KernsSLIF: 116 15 0 0 115 -14 0 0 39 60 0 0 249 -22 0 0 250 -24 0 0 351 5 0 0 352 -23 0 0 111 -23 0 0 108 72 0 0 106 22 0 0 105 17 0 0 102 14 0 0 335 -24 0 0 101 -24 0 0 328 -6 0 0 241 -13 0 0 322 11 0 0 323 -14 0 0 97 -14 0 0
EndChar
StartChar: g
Encoding: 103 103 72
Width: 540
Flags: W
HStem: -241 37<271 290> 148 32<256 290> 462 32<269 290> 501 62<451 488>
VStem: 17 60<-120 -107> 49 82<74 111> 66 102<302 324> 379 102<302 325> 468 70<-111 -79>
Fore
196 70 m 2xf5
 387 44 l 2
 457 34 494 20 514 -7 c 0
 529 -26 538 -52 538 -79 c 0
 538 -177 433 -241 271 -241 c 0
 203 -241 137 -229 87 -207 c 0
 45 -189 17 -154 17 -119 c 0xf880
 17 -70 48 -38 122 -10 c 1
 71 8 49 34 49 74 c 0xf4
 49 121 80 152 147 174 c 1
 93 211 66 258 66 316 c 0xf2
 66 415 158 494 272 494 c 0
 303 494 326 489 366 474 c 1
 384 507 392 517 404 529 c 0
 424 550 458 563 488 563 c 0
 520 563 542 545 542 520 c 0
 542 498 526 482 504 482 c 0
 494 482 485 485 474 492 c 0
 461 500 458 501 451 501 c 0
 434 501 418 488 398 458 c 1
 450 423 481 371 481 316 c 0
 481 277 462 232 434 203 c 1
 397 167 343 148 271 148 c 0
 237 148 217 151 177 164 c 1
 148 149 131 129 131 111 c 0
 131 88 151 76 196 70 c 2xf5
277 462 m 0
 208 462 168 410 168 322 c 0
 168 226 203 180 274 180 c 0
 308 180 340 195 356 217 c 0
 371 238 379 276 379 321 c 0xf3
 379 416 346 462 277 462 c 0
365 -44 m 2
 160 -19 l 1
 106 -39 77 -71 77 -109 c 0
 77 -165 156 -204 271 -204 c 0
 336 -204 397 -192 427 -172 c 0
 454 -155 468 -134 468 -111 c 0xf880
 468 -72 439 -53 365 -44 c 2
EndSplineSet
KernsSLIF: 114 9 0 0 351 -16 0 0 352 -16 0 0 108 11 0 0 335 -15 0 0 101 -15 0 0 328 -22 0 0 241 -21 0 0 322 -22 0 0 97 -22 0 0
EndChar
StartChar: h
Encoding: 104 104 73
Width: 660
Flags: W
HStem: 0 30<20 32.5 276.5 289 374 386.5 630.5 643> 446 48<375 399>
VStem: 107 95<115 364 115 717> 461 95<115 366>
Fore
202 717 m 1
 202 411 l 1
 268 468 330 494 399 494 c 0
 445 494 483 484 511 465 c 0
 545 442 556 413 556 351 c 2
 556 115 l 2
 556 60 574 37 618 32 c 2
 643 30 l 1
 643 0 l 1
 374 0 l 1
 374 30 l 1
 399 32 l 2
 443 37 461 60 461 115 c 2
 461 345 l 2
 461 412 432 446 375 446 c 0
 317 446 261 420 202 364 c 1
 202 115 l 2
 202 60 220 37 264 32 c 2
 289 30 l 1
 289 0 l 1
 20 0 l 1
 20 30 l 1
 45 32 l 2
 89 37 107 60 107 115 c 2
 107 538 l 2
 107 627 96 645 42 650 c 2
 20 652 l 1
 20 683 l 1
 88 691 111 697 162 717 c 1
 202 717 l 1
EndSplineSet
KernsSLIF: 121 -23 0 0 39 -31 0 0
EndChar
StartChar: i
Encoding: 105 105 74
Width: 300
Flags: W
HStem: 0 30<20 32.5 276 288> 465 20G<168 202> 533 121<147 165>
VStem: 107 95<115 369>
Fore
202 485 m 1
 202 115 l 2
 202 60 219 37 264 32 c 2
 288 30 l 1
 288 0 l 1
 20 0 l 1
 20 30 l 1
 45 32 l 2
 89 37 107 60 107 115 c 2
 107 350 l 2
 107 410 93 428 41 433 c 2
 21 435 l 1
 21 465 l 1
 74 469 107 474 168 485 c 1
 202 485 l 1
156 654 m 0
 189 654 216 626 216 593 c 0
 216 560 189 533 155 533 c 0
 122 533 95 560 95 594 c 0
 95 627 122 654 156 654 c 0
EndSplineSet
KernsSLIF: 106 -22 0 0 84 5 0 0
EndChar
StartChar: j
Encoding: 106 106 75
Width: 300
Flags: W
HStem: -241 45<-2 36> 465 20G<169 203> 533 121<142 164>
VStem: 108 95<-66 368>
Fore
203 485 m 1
 203 -47 l 2
 203 -120 189 -155 143 -192 c 0
 104 -224 52 -241 -2 -241 c 0
 -66 -241 -109 -216 -109 -180 c 0
 -109 -158 -88 -140 -63 -140 c 0
 -47 -140 -36 -146 -19 -166 c 0
 2 -190 13 -196 36 -196 c 0
 55 -196 74 -188 84 -177 c 0
 105 -151 108 -128 108 5 c 2
 108 350 l 2
 108 410 93 429 42 433 c 2
 18 435 l 1
 18 465 l 1
 74 469 107 473 169 485 c 1
 203 485 l 1
154 654 m 0
 187 654 214 626 214 593 c 0
 214 560 187 533 153 533 c 0
 120 533 93 560 93 594 c 0
 93 627 120 654 154 654 c 0
EndSplineSet
EndChar
StartChar: k
Encoding: 107 107 76
Width: 620
Flags: W
HStem: 0 30<20 32.5 276 289 358 371.5> 456 29<329 341.667>
VStem: 107 95<115 198 115 717>
DStem: 283 267 358 328 388 115 507 115 358 385 403 368 202 249 358 328 358 385 283 267 202 249 202 198
Fore
358 328 m 1
 507 115 l 1
 544 66 582 40 628 32 c 1
 628 0 l 1
 358 0 l 1
 358 30 l 1
 385 32 l 2
 404 34 414 41 414 55 c 0
 414 70 405 92 388 115 c 1
 283 267 l 1
 202 198 l 1
 202 115 l 2
 202 61 220 37 263 32 c 2
 289 30 l 1
 289 0 l 1
 20 0 l 1
 20 30 l 1
 45 32 l 2
 89 37 107 60 107 115 c 2
 107 538 l 2
 107 627 96 645 42 650 c 2
 20 652 l 1
 20 683 l 1
 88 691 111 697 162 717 c 1
 202 717 l 1
 202 249 l 1
 358 385 l 2
 379 403 385 412 385 424 c 0
 385 443 367 453 329 456 c 1
 329 485 l 1
 595 485 l 1
 595 455 l 1
 509 442 464 422 403 368 c 2
 358 328 l 1
EndSplineSet
KernsSLIF: 362 12 0 0 117 12 0 0 115 5 0 0 46 -4 0 0 351 -24 0 0 352 -24 0 0 111 -24 0 0 45 -64 0 0 103 7 0 0 335 -28 0 0 101 -28 0 0 44 -2 0 0 328 5 0 0 241 6 0 0 322 5 0 0 323 5 0 0 97 5 0 0
EndChar
StartChar: l
Encoding: 108 108 77
Width: 300
Flags: W
HStem: 0 30<20 32 274.5 286>
VStem: 106 95<115 561>
Fore
201 717 m 1
 201 115 l 2
 201 60 218 37 263 32 c 2
 286 30 l 1
 286 0 l 1
 20 0 l 1
 20 30 l 1
 44 32 l 2
 89 37 106 60 106 115 c 2
 106 538 l 2
 106 627 95 645 41 650 c 2
 20 652 l 1
 20 683 l 1
 88 691 111 697 161 717 c 1
 201 717 l 1
EndSplineSet
KernsSLIF: 121 -2 0 0 118 -2 0 0
EndChar
StartChar: m
Encoding: 109 109 78
Width: 940
Flags: W
HStem: 0 30<17 29.5 270 279 342 352.5 592.5 603 666 675 915.5 928> 442 52<343 381 667 708>
VStem: 104 95<115 373> 425 95<115 360> 746 95<115 352>
CounterMasks: 1 00
Fore
520 373 m 1
 520 115 l 2
 520 60 537 38 582 32 c 2
 603 30 l 1
 603 0 l 1
 342 0 l 1
 342 30 l 1
 363 32 l 2
 408 38 425 60 425 115 c 2
 425 336 l 2
 425 409 400 442 343 442 c 0
 297 442 257 423 199 373 c 1
 199 115 l 2
 199 88 204 67 213 55 c 0
 226 40 233 36 261 32 c 2
 279 30 l 1
 279 0 l 1
 17 0 l 1
 17 30 l 1
 42 32 l 2
 86 37 104 60 104 115 c 2
 104 350 l 2
 104 410 90 428 38 433 c 2
 17 435 l 1
 17 465 l 1
 76 470 107 474 165 485 c 1
 199 485 l 1
 199 418 l 1
 263 474 311 494 381 494 c 0
 453 494 491 471 518 411 c 1
 590 472 641 494 708 494 c 0
 791 494 841 444 841 360 c 2
 841 115 l 2
 841 60 859 37 903 32 c 2
 928 30 l 1
 928 0 l 1
 666 0 l 1
 666 30 l 1
 684 32 l 2
 713 37 723 42 735 60 c 0
 742 70 746 91 746 115 c 2
 746 333 l 2
 746 405 719 442 667 442 c 0
 621 442 581 424 520 373 c 1
EndSplineSet
KernsSLIF: 121 -19 0 0 119 -17 0 0 118 -15 0 0 112 -24 0 0
EndChar
StartChar: n
Encoding: 110 110 79
Width: 660
Flags: W
HStem: 0 30<23 35.5 279.5 292 380 392.5 636.5 649> 446 48<382 411>
VStem: 110 95<115 362> 467 95<115 364>
Fore
205 485 m 1
 205 406 l 1
 276 469 335 494 411 494 c 0
 505 494 562 445 562 362 c 2
 562 115 l 2
 562 60 580 37 624 32 c 2
 649 30 l 1
 649 0 l 1
 380 0 l 1
 380 30 l 1
 405 32 l 2
 449 37 467 60 467 115 c 2
 467 346 l 2
 467 411 437 446 382 446 c 0
 326 446 267 418 205 362 c 1
 205 115 l 2
 205 60 223 37 267 32 c 2
 292 30 l 1
 292 0 l 1
 23 0 l 1
 23 30 l 1
 48 32 l 2
 92 37 110 60 110 115 c 2
 110 350 l 2
 110 410 95 429 44 433 c 2
 20 435 l 1
 20 465 l 1
 76 469 109 473 171 485 c 1
 205 485 l 1
EndSplineSet
KernsSLIF: 121 -22 0 0 119 -18 0 0 118 -16 0 0 39 -29 0 0 112 -23 0 0 84 -44 0 0
EndChar
StartChar: o
Encoding: 111 111 80
Width: 560
Flags: W
HStem: -9 40<276 294> 454 40<263.945 294>
VStem: 37 102<214 264> 424 102<214 248>
Fore
279 494 m 0
 357 494 424 466 466 416 c 0
 503 370 526 304 526 239 c 0
 526 91 428 -9 283 -9 c 0
 134 -9 37 90 37 241 c 0
 37 311 65 385 107 429 c 0
 147 470 209 494 279 494 c 0
280 454 m 0
 195 454 139 371 139 243 c 0
 139 108 192 31 284 31 c 0
 372 31 424 107 424 234 c 0
 424 371 370 454 280 454 c 0
EndSplineSet
KernsSLIF: 121 -23 0 0 120 -20 0 0 119 -18 0 0 118 -16 0 0 116 -22 0 0 39 -16 0 0 84 -85 0 0
EndChar
StartChar: p
Encoding: 112 112 81
Width: 620
Flags: W
HStem: -228 30<20 32.5 276.5 289> -9 45<333 360> 449 45<334 365>
VStem: 107 95<-113 42 -113 369> 481 102<219 253>
Fore
202 485 m 1
 202 419 l 1
 247 470 299 494 365 494 c 0
 430 494 492 464 528 417 c 0
 562 372 583 307 583 245 c 0
 583 101 487 -9 360 -9 c 0
 297 -9 248 7 202 42 c 1
 202 -113 l 2
 202 -167 220 -192 264 -196 c 2
 289 -198 l 1
 289 -228 l 1
 20 -228 l 1
 20 -198 l 1
 45 -196 l 2
 89 -192 107 -167 107 -113 c 2
 107 350 l 2
 107 410 93 428 41 433 c 2
 20 435 l 1
 20 465 l 1
 79 470 110 474 168 485 c 1
 202 485 l 1
202 369 m 1
 202 91 l 1
 240 55 285 36 335 36 c 0
 419 36 481 119 481 233 c 0
 481 364 423 449 334 449 c 0
 283 449 244 425 202 369 c 1
EndSplineSet
KernsSLIF: 121 -21 0 0 116 -23 0 0
EndChar
StartChar: q
Encoding: 113 113 82
Width: 580
Flags: W
HStem: -228 30<320 332.5 576.5 589> -9 45<255 282> 449 45<263 292>
VStem: 37 102<219 253> 407 95<-113 50 98 485>
Fore
502 485 m 1
 502 -113 l 2
 502 -167 520 -192 564 -196 c 2
 589 -198 l 1
 589 -228 l 1
 320 -228 l 1
 320 -198 l 1
 345 -196 l 2
 389 -192 407 -167 407 -113 c 2
 407 51 l 1
 347 7 306 -9 255 -9 c 0
 205 -9 151 13 112 48 c 0
 63 92 37 156 37 235 c 0
 37 303 57 364 93 409 c 0
 134 461 201 494 263 494 c 0
 319 494 373 472 424 428 c 1
 450 485 l 1
 502 485 l 1
407 99 m 1
 407 388 l 1
 371 432 338 449 292 449 c 0
 243 449 194 420 170 377 c 0
 150 342 139 292 139 237 c 0
 139 119 199 36 282 36 c 0
 321 36 357 54 407 99 c 1
EndSplineSet
KernsSLIF: 117 -13 0 0 99 -11 0 0
EndChar
StartChar: r
Encoding: 114 114 83
Width: 440
Flags: W
HStem: 0 30<23 35.5 279.5 292> 383 111<374 390>
VStem: 110 95<115 360>
Fore
205 485 m 1
 205 405 l 1
 215 413 223 420 226 423 c 0
 274 464 279 468 303 478 c 0
 327 489 351 494 374 494 c 0
 417 494 447 471 447 438 c 0
 447 406 423 383 390 383 c 0
 372 383 356 388 339 401 c 0
 321 413 314 416 297 416 c 0
 268 416 241 400 205 360 c 1
 205 115 l 2
 205 60 223 37 267 32 c 2
 292 30 l 1
 292 0 l 1
 23 0 l 1
 23 30 l 1
 48 32 l 2
 92 37 110 60 110 115 c 2
 110 350 l 2
 110 410 95 429 44 433 c 2
 20 435 l 1
 20 465 l 1
 76 469 109 473 171 485 c 1
 205 485 l 1
EndSplineSet
KernsSLIF: 122 11 0 0 121 48 0 0 120 32 0 0 119 47 0 0 118 49 0 0 117 28 0 0 116 28 0 0 59 -3 0 0 115 2 0 0 114 28 0 0 39 4 0 0 113 -8 0 0 46 -82 0 0 112 28 0 0 249 -6 0 0 353 -6 0 0 250 -7 0 0 351 -6 0 0 354 -6 0 0 352 -6 0 0 111 -6 0 0 110 28 0 0 109 30 0 0 108 -14 0 0 107 -14 0 0 106 29 0 0 105 28 0 0 45 -76 0 0 104 -14 0 0 103 -6 0 0 102 26 0 0 336 -6 0 0 337 -6 0 0 335 -6 0 0 101 -6 0 0 100 -6 0 0 44 -80 0 0 58 -3 0 0 332 -6 0 0 99 -6 0 0 328 2 0 0 324 2 0 0 322 2 0 0 325 2 0 0 323 2 0 0 97 2 0 0
EndChar
StartChar: s
Encoding: 115 115 84
Width: 520
Flags: W
HStem: -9 40<263 281> 454 40<231 249>
VStem: 55 88<348 379> 405 82<123 153>
Fore
419 481 m 1
 451 327 l 1
 419 327 l 1
 386 406 320 454 244 454 c 0
 185 454 143 422 143 379 c 0
 143 359 155 341 174 331 c 0
 185 326 197 322 221 316 c 2
 360 282 l 2
 447 261 487 221 487 153 c 0
 487 60 399 -9 279 -9 c 0
 214 -9 172 5 118 46 c 1
 107 4 l 1
 74 4 l 1
 40 182 l 1
 74 182 l 1
 88 144 98 124 116 103 c 0
 153 58 214 31 276 31 c 0
 349 31 405 71 405 123 c 0
 405 155 382 176 332 189 c 2
 204 221 l 2
 98 248 55 285 55 348 c 0
 55 430 136 494 238 494 c 0
 294 494 338 479 381 445 c 1
 391 481 l 1
 419 481 l 1
EndSplineSet
KernsSLIF: 116 -22 0 0 39 -19 0 0
EndChar
StartChar: t
Encoding: 116 116 85
Width: 380
Flags: W
HStem: -9 40<247 274> 452 33<20 44.5 199 342>
VStem: 104 95<117 452>
Fore
342 485 m 1
 342 452 l 1
 199 452 l 1
 199 163 l 2
 199 72 223 31 274 31 c 0
 304 31 327 44 361 83 c 1
 388 61 l 1
 352 14 306 -9 247 -9 c 0
 212 -9 176 1 150 17 c 0
 118 37 104 68 104 117 c 2
 104 452 l 1
 20 452 l 1
 20 485 l 1
 118 489 162 544 161 667 c 1
 199 667 l 1
 199 485 l 1
 342 485 l 1
EndSplineSet
KernsSLIF: 59 -3 0 0 39 -14 0 0 351 -8 0 0 352 -8 0 0 111 -8 0 0 104 18 0 0 335 -12 0 0 101 -12 0 0 58 -4 0 0 328 15 0 0 241 15 0 0 322 15 0 0 323 15 0 0 97 15 0 0 83 4 0 0
EndChar
StartChar: u
Encoding: 117 117 86
Width: 680
Flags: W
HStem: -9 48<259 296> 0 30<640.5 653> 465 20G<171 205 532 566>
VStem: 110 95<125 360> 471 95<126 485>
Fore
471 0 m 1x78
 471 84 l 1
 386 15 331 -9 259 -9 c 0
 207 -9 169 6 142 37 c 0
 119 63 110 91 110 141 c 2
 110 350 l 2
 110 410 95 429 44 433 c 2
 20 435 l 1
 20 465 l 1
 97 470 119 473 171 485 c 1
 205 485 l 1
 205 149 l 2
 205 73 233 39 296 39 c 0xb8
 345 39 404 68 471 127 c 1
 471 350 l 2
 471 410 456 429 405 433 c 2
 381 435 l 1
 381 465 l 1
 460 471 480 473 532 485 c 1
 566 485 l 1
 566 115 l 2
 566 60 584 37 628 32 c 2
 653 30 l 1
 653 0 l 1
 471 0 l 1x78
EndSplineSet
KernsSLIF: 39 -30 0 0
EndChar
StartChar: v
Encoding: 118 118 87
Width: 520
Flags: W
HStem: 0 21G<218 277> 453 32<-23 206>
DStem: 59 385 165 385 218 0 278 88
Fore
278 88 m 1
 382 362 l 2
 388 377 392 394 392 404 c 0
 392 435 376 448 328 455 c 1
 328 485 l 1
 534 485 l 1
 534 453 l 1
 487 442 457 413 430 354 c 1
 277 0 l 1
 218 0 l 1
 59 385 l 1
 36 436 22 447 -23 454 c 1
 -23 485 l 1
 221 485 l 1
 221 455 l 1
 213 454 206 453 204 453 c 0
 171 450 157 440 157 419 c 0
 157 412 161 397 165 385 c 1
 278 88 l 1
EndSplineSet
KernsSLIF: 59 -1 0 0 115 -9 0 0 46 -82 0 0 249 -22 0 0 353 -21 0 0 351 -21 0 0 352 -21 0 0 111 -21 0 0 108 -10 0 0 45 -24 0 0 103 -18 0 0 336 -22 0 0 337 -22 0 0 335 -22 0 0 101 -22 0 0 44 -82 0 0 58 -1 0 0 99 -21 0 0 327 -10 0 0 328 -10 0 0 324 -10 0 0 241 -12 0 0 322 -10 0 0 325 -10 0 0 323 -10 0 0 97 -10 0 0
EndChar
StartChar: w
Encoding: 119 119 88
Width: 780
Flags: W
HStem: 0 21G<208 273 491 561> 455 30<-19 -9.5 203.667 217 503.667 511 583 598.667>
DStem: 59 387 166 387 208 0 272 89 369 345 391 287 272 89 273 0 391 287 456 387 491 0 560 90
Fore
560 90 m 1
 650 354 l 2
 654 366 657 386 657 397 c 0
 657 431 630 452 583 455 c 1
 583 485 l 1
 804 485 l 1
 804 455 l 1
 750 441 729 421 701 354 c 1
 561 0 l 1
 491 0 l 1
 391 287 l 1
 273 0 l 1
 208 0 l 1
 59 387 l 1
 41 432 19 451 -19 455 c 1
 -19 485 l 1
 217 485 l 1
 217 455 l 1
 177 452 160 442 160 421 c 0
 160 413 163 395 166 387 c 2
 272 89 l 1
 369 345 l 1
 352 387 l 2
 333 434 321 444 273 455 c 1
 273 485 l 1
 511 485 l 1
 511 455 l 1
 467 449 451 439 451 414 c 0
 451 407 453 396 456 387 c 2
 560 90 l 1
EndSplineSet
KernsSLIF: 59 3 0 0 115 -4 0 0 46 -72 0 0 249 -17 0 0 353 -16 0 0 351 -16 0 0 352 -16 0 0 111 -16 0 0 108 -5 0 0 45 -17 0 0 103 -14 0 0 336 -17 0 0 337 -17 0 0 335 -17 0 0 101 -17 0 0 44 -72 0 0 58 3 0 0 99 -17 0 0 327 -5 0 0 328 -5 0 0 324 -5 0 0 241 -8 0 0 322 -5 0 0 325 -5 0 0 323 -5 0 0 97 -5 0 0
EndChar
StartChar: x
Encoding: 120 120 89
Width: 560
Flags: W
HStem: 0 21G<-16 208 299 576> 455 30<249 259 349 356.4>
DStem: 113 394 220 405 230 247 299 309 230 247 259 216 103 104 159 104 384 405 410 372 299 309 323 279
Fore
323 279 m 1
 460 104 l 1
 504 51 522 39 576 30 c 1
 576 0 l 1
 299 0 l 1
 299 30 l 1
 347 37 359 44 359 63 c 0
 359 70 355 82 349 90 c 2
 259 216 l 1
 159 104 l 2
 148 92 141 78 141 68 c 0
 141 48 157 38 200 32 c 2
 208 30 l 1
 208 0 l 1
 -16 0 l 1
 -16 30 l 1
 32 37 58 53 103 104 c 2
 230 247 l 1
 113 394 l 1
 77 436 59 448 11 455 c 1
 11 485 l 1
 259 485 l 1
 259 455 l 1
 249 454 l 2
 220 451 208 444 208 430 c 0
 208 424 213 415 220 405 c 1
 299 309 l 1
 384 405 l 1
 390 413 394 422 394 429 c 0
 394 446 386 450 349 455 c 1
 349 485 l 1
 560 485 l 1
 560 455 l 1
 494 442 464 425 410 372 c 1
 323 279 l 1
EndSplineSet
KernsSLIF: 113 -22 0 0 111 -21 0 0 335 -26 0 0 101 -26 0 0 99 -22 0 0 97 8 0 0
EndChar
StartChar: y
Encoding: 121 121 90
Width: 540
Flags: W
HStem: -241 117<39 80> 455 30<202.2 210>
DStem: 57 391 160 398 236 -27 285 94
Fore
285 94 m 1
 378 330 l 2
 390 360 397 388 397 406 c 0
 397 434 382 445 329 455 c 1
 329 485 l 1
 549 485 l 1
 549 454 l 1
 495 441 471 419 447 363 c 2
 274 -43 l 1
 241 -123 220 -158 189 -190 c 0
 156 -224 120 -241 80 -241 c 0
 26 -241 -14 -212 -14 -173 c 0
 -14 -147 10 -124 39 -124 c 0
 59 -124 69 -130 94 -157 c 0
 107 -170 117 -176 127 -176 c 0
 154 -176 189 -139 211 -85 c 1
 236 -27 l 1
 57 391 l 1
 38 437 26 447 -23 454 c 1
 -23 485 l 1
 210 485 l 1
 210 455 l 1
 171 450 156 439 156 418 c 0
 156 411 157 405 160 398 c 2
 285 94 l 1
EndSplineSet
KernsSLIF: 59 -5 0 0 115 -17 0 0 46 -88 0 0 249 -31 0 0 353 -29 0 0 351 -29 0 0 352 -29 0 0 111 -29 0 0 108 -13 0 0 45 -29 0 0 103 -27 0 0 336 -31 0 0 337 -31 0 0 335 -31 0 0 101 -31 0 0 44 -88 0 0 58 -5 0 0 99 -30 0 0 327 -20 0 0 328 -20 0 0 324 -20 0 0 241 -22 0 0 322 -20 0 0 325 -20 0 0 323 -20 0 0 97 -20 0 0
EndChar
StartChar: z
Encoding: 122 122 91
Width: 480
Flags: W
HStem: 0 30<198 422> 455 30<79 280>
DStem: 335 447 464 460 7 29 129 44
Fore
476 158 m 1
 422 0 l 1
 23 0 l 1
 7 29 l 1
 335 447 l 1
 305 453 290 455 268 455 c 0
 214 455 158 440 123 416 c 0
 95 397 78 376 54 327 c 1
 23 338 l 1
 79 485 l 1
 453 485 l 1
 464 460 l 1
 129 44 l 1
 166 33 186 30 224 30 c 0
 325 30 384 67 448 168 c 1
 476 158 l 1
EndSplineSet
EndChar
StartChar: braceleft
Encoding: 123 123 92
Width: 280
Flags: W
VStem: 110 62<-20 225 389 636>
Fore
248 -89 m 1
 248 -121 l 1
 237 -122 224 -122 219 -122 c 0
 145 -122 110 -83 110 3 c 2
 110 223 l 2
 110 264 87 284 35 292 c 1
 35 324 l 1
 87 332 110 352 110 393 c 2
 110 613 l 2
 110 700 144 738 223 738 c 2
 248 737 l 1
 248 705 l 1
 194 695 172 674 172 634 c 2
 172 413 l 2
 172 355 160 332 116 308 c 1
 160 284 172 261 172 203 c 2
 172 -18 l 2
 172 -58 194 -79 248 -89 c 1
EndSplineSet
EndChar
StartChar: bar
Encoding: 124 124 93
Width: 600
Flags: W
HStem: 0 21G<264 342>
VStem: 264 78<0 722>
Fore
342 722 m 1
 342 0 l 1
 264 0 l 1
 264 722 l 1
 342 722 l 1
EndSplineSet
EndChar
StartChar: braceright
Encoding: 125 125 94
Width: 280
Flags: W
VStem: 111 62<-20 225 389 636>
Fore
35 705 m 1
 35 737 l 1
 46 738 59 738 64 738 c 0
 138 738 173 698 173 613 c 2
 173 393 l 2
 173 352 196 332 248 324 c 1
 248 292 l 1
 196 284 173 264 173 223 c 2
 173 3 l 2
 173 -84 139 -122 60 -122 c 2
 35 -121 l 1
 35 -89 l 1
 89 -79 111 -58 111 -18 c 2
 111 203 l 2
 111 261 123 284 167 308 c 1
 123 332 111 355 111 413 c 2
 111 634 l 2
 111 674 89 695 35 705 c 1
EndSplineSet
EndChar
StartChar: asciitilde
Encoding: 126 126 95
Width: 600
Flags: W
Fore
513 332 m 1
 556 285 l 1
 519 214 468 173 416 173 c 0
 393 173 368 180 323 199 c 2
 269 221 l 2
 226 239 215 242 196 242 c 0
 170 242 146 229 129 207 c 0
 119 192 113 184 94 152 c 1
 52 199 l 1
 103 288 140 319 196 319 c 0
 217 319 243 313 272 300 c 2
 337 273 l 2
 380 255 398 250 417 250 c 0
 450 250 478 274 513 332 c 1
EndSplineSet
EndChar
StartChar: exclamdown
Encoding: 161 161 96
Width: 300
Flags: W
HStem: 365 129<150 156>
VStem: 134 36<250 307>
Fore
150 365 m 0
 115 365 86 394 86 429 c 0
 86 465 115 494 150 494 c 0
 186 494 215 465 215 429 c 0
 215 394 186 365 150 365 c 0
134 307 m 1
 170 307 l 1
 170 275 l 2
 170 237 177 152 185 109 c 1
 207 -22 l 1
 219 -90 219 -90 219 -112 c 0
 219 -180 195 -213 147 -213 c 0
 102 -213 75 -179 75 -121 c 0
 75 -100 80 -65 89 -19 c 1
 117 117 l 1
 126 164 134 238 134 276 c 2
 134 307 l 1
EndSplineSet
EndChar
StartChar: cent
Encoding: 162 162 97
Width: 620
Flags: W
VStem: 116 108<344 367> 305 37<21 141 221 504 548 652>
Fore
342 504 m 1
 342 209 l 1
 356 207 363 206 372 206 c 0
 412 206 437 218 487 261 c 1
 511 247 l 1
 476 185 414 146 342 141 c 1
 342 21 l 1
 305 21 l 1
 305 141 l 1
 197 151 116 239 116 346 c 0
 116 457 192 538 305 549 c 1
 305 652 l 1
 342 652 l 1
 342 549 l 1
 433 543 500 496 500 437 c 0
 500 408 478 385 451 385 c 0
 421 385 400 408 395 449 c 1
 393 481 374 501 342 504 c 1
305 221 m 1
 305 505 l 1
 254 490 224 440 224 365 c 0
 224 341 228 316 236 294 c 0
 249 259 265 241 305 221 c 1
EndSplineSet
EndChar
StartChar: sterling
Encoding: 163 163 98
Width: 620
Flags: W
HStem: -13 40<119 138> -9 83<479 505> 133 40<119 138> 182 40<509 527> 357 43<55 169 257 442> 484 21G<498 527> 662 32<359 382>
VStem: 8 53<80 84> 135 92<491 509> 464 101<526 548> 568 63<117 134>
Fore
257 400 m 1xbfe0
 458 400 l 1
 442 357 l 1
 277 357 l 1
 313 272 l 2
 322 251 328 224 328 201 c 0
 328 179 325 162 313 125 c 1
 408 95 l 2
 471 74 471 74 493 74 c 0
 536 74 568 100 568 134 c 0
 568 163 546 182 514 182 c 0
 496 182 483 179 456 167 c 1
 440 195 l 1
 469 214 494 222 527 222 c 0
 586 222 631 177 631 117 c 0
 631 46 574 -9 499 -9 c 0x7fe0
 465 -9 444 -2 380 30 c 2
 289 76 l 1
 243 17 188 -13 123 -13 c 0
 58 -13 8 27 8 80 c 0
 8 133 59 173 126 173 c 0
 157 173 189 167 244 150 c 1
 242 182 239 190 203 277 c 1
 169 357 l 1
 42 357 l 1
 56 400 l 1
 154 400 l 1
 140 449 135 472 135 493 c 0
 135 536 160 592 194 626 c 0
 236 669 304 694 376 694 c 0
 486 694 565 633 565 548 c 0
 565 510 543 484 511 484 c 0
 485 484 464 503 464 526 c 0
 464 538 466 545 479 573 c 0
 482 578 483 584 483 589 c 0
 483 627 427 662 368 662 c 0
 284 662 227 601 227 509 c 0
 227 481 230 466 246 426 c 2
 257 400 l 1xbfe0
237 100 m 1
 197 124 168 133 132 133 c 0
 89 133 61 112 61 80 c 0
 61 49 89 27 128 27 c 0xbfe0
 173 27 207 50 237 100 c 1
EndSplineSet
EndChar
StartChar: fraction
Encoding: 164 8260 99
Width: 140
Flags: W
HStem: 0 21G<-188 -130> 661 20G<276 335>
DStem: 276 681 335 681 -188 0 -130 0
Fore
335 681 m 1
 -130 0 l 1
 -188 0 l 1
 276 681 l 1
 335 681 l 1
EndSplineSet
EndChar
StartChar: yen
Encoding: 165 165 100
Width: 620
Flags: W
HStem: 0 30<158 176 419 446> 235 40<30 257 347 578> 394 40<30 193 430 578> 661 20G<-22 246 404 647>
VStem: 257 90<130 235 275 308>
DStem: 95 556 193 560 168 434 324 346 193 394 193 560 257 285 324 346 446 549 499 537 324 346 430 434 446 549 404 394 324 346 347 308
Fore
347 235 m 1
 347 130 l 2
 347 51 365 33 446 30 c 1
 446 0 l 1
 158 0 l 1
 158 30 l 1
 176 31 l 2
 241 34 257 54 257 130 c 2
 257 235 l 1
 30 235 l 1
 30 275 l 1
 257 275 l 1
 257 285 l 1
 193 394 l 1
 30 394 l 1
 30 434 l 1
 168 434 l 1
 95 556 l 2
 51 631 41 639 -22 654 c 1
 -22 681 l 1
 246 681 l 1
 246 654 l 1
 235 652 l 2
 186 643 171 633 171 611 c 0
 171 599 174 592 193 560 c 2
 324 346 l 1
 446 549 l 2
 471 590 473 594 473 607 c 0
 473 632 461 640 404 654 c 1
 404 681 l 1
 647 681 l 1
 647 654 l 1
 576 641 557 626 499 537 c 1
 430 434 l 1
 578 434 l 1
 578 394 l 1
 404 394 l 1
 347 308 l 1
 347 275 l 1
 578 275 l 1
 578 235 l 1
 347 235 l 1
EndSplineSet
EndChar
StartChar: florin
Encoding: 166 402 101
Width: 620
Flags: W
HStem: -155 32<97 116> 463 33<198 289 389 489> 717 32<484 518>
DStem: 289 463 382 463 230 127 324 128
Fore
382 463 m 1
 324 128 l 1
 304 16 281 -39 233 -90 c 0
 189 -135 148 -155 98 -155 c 0
 33 -155 -29 -110 -29 -63 c 0
 -29 -40 -10 -22 15 -22 c 0
 38 -22 52 -36 61 -67 c 0
 74 -112 84 -123 109 -123 c 0
 134 -123 159 -103 180 -65 c 0
 198 -33 210 14 230 127 c 2
 289 463 l 1
 192 463 l 1
 199 496 l 1
 295 496 l 1
 300 523 l 2
 320 635 329 657 369 692 c 0
 411 729 464 749 518 749 c 0
 584 749 633 725 633 692 c 0
 633 669 613 651 588 651 c 0
 567 651 552 660 538 681 c 0
 520 710 509 717 484 717 c 0
 448 717 431 701 419 656 c 0
 415 643 410 618 405 587 c 1
 389 496 l 1
 496 496 l 1
 489 463 l 1
 382 463 l 1
EndSplineSet
EndChar
StartChar: section
Encoding: 167 167 102
Width: 520
Flags: W
HStem: -183 40<259 274> -183 204<85 259> 500 21G<408.5 436> 654 40<255 274>
VStem: 37 78<242 275> 46 88<536 559> 373 96<552 570> 409 70<230 284>
Fore
219 467 m 2xb6
 354 429 l 2
 431 406 479 351 479 284 c 0
 479 228 460 181 417 126 c 1
 464 91 486 50 486 -5 c 0
 486 -111 394 -183 259 -183 c 0xb5
 133 -183 33 -118 33 -36 c 0
 33 -4 55 21 85 21 c 0x75
 113 21 133 0 133 -29 c 0
 133 -35 133 -35 129 -60 c 0
 128 -65 128 -69 128 -74 c 0
 128 -95 138 -111 157 -121 c 0
 184 -134 224 -143 259 -143 c 0
 344 -143 398 -97 398 -26 c 0
 398 23 372 50 312 62 c 2
 204 85 l 2
 143 97 103 115 78 142 c 0
 51 170 37 204 37 242 c 0xb9
 37 301 63 343 134 399 c 1
 70 435 46 473 46 536 c 0
 46 630 131 694 257 694 c 0
 376 694 469 634 469 557 c 0
 469 524 449 500 423 500 c 0
 394 500 373 523 373 554 c 0
 373 557 373 557 374 575 c 1
 374 587 l 2
 374 628 332 654 265 654 c 0
 182 654 134 619 134 559 c 0
 134 512 159 485 219 467 c 2xb6
298 350 m 2
 170 387 l 1
 130 343 115 313 115 275 c 0x39
 115 226 158 188 227 174 c 2
 298 159 l 2
 331 152 348 149 382 140 c 1
 403 178 409 199 409 230 c 0
 409 291 377 326 298 350 c 2
EndSplineSet
EndChar
StartChar: currency
Encoding: 168 164 103
Width: 620
Flags: W
HStem: 106 83<311 317> 520 83<297 331>
VStem: 63 82<344 362> 477 82<344 362>
DStem: 58 554 109 606 112 500 163 552 112 209 162 158 59 156 109 105 460 158 510 209 513 105 563 156 511 606 561 554 458 553 508 502
Fore
59 156 m 1
 112 209 l 1
 76 260 63 298 63 354 c 0
 63 413 77 453 112 500 c 1
 58 554 l 1
 109 606 l 1
 163 552 l 1
 210 587 257 603 312 603 c 0
 366 603 409 588 458 553 c 1
 511 606 l 1
 561 554 l 1
 508 502 l 1
 545 454 559 412 559 354 c 0
 559 297 545 256 510 209 c 1
 563 156 l 1
 513 105 l 1
 460 158 l 1
 411 121 368 106 311 106 c 0
 254 106 211 121 162 158 c 1
 109 105 l 1
 59 156 l 1
314 520 m 0
 220 520 145 447 145 356 c 0
 145 263 219 189 311 189 c 0
 402 189 477 264 477 355 c 0
 477 444 402 520 314 520 c 0
EndSplineSet
EndChar
StartChar: quotesingle
Encoding: 169 39 104
Width: 220
Flags: W
HStem: 674 20G<97.5 123.5>
Fore
97 445 m 1
 69 614 l 1
 68 618 67 634 67 640 c 0
 67 673 84 694 111 694 c 0
 136 694 153 675 153 645 c 0
 153 638 152 624 150 616 c 1
 119 445 l 1
 97 445 l 1
EndSplineSet
EndChar
StartChar: quotedblleft
Encoding: 170 8220 105
Width: 400
Flags: W
Fore
314 694 m 1
 325 672 l 1
 284 646 266 618 263 580 c 1
 277 591 285 594 295 594 c 0
 325 594 348 570 348 537 c 0
 348 503 320 475 286 475 c 0
 248 475 216 512 216 558 c 0
 216 615 253 666 314 694 c 1
144 694 m 1
 155 672 l 1
 114 646 96 619 93 580 c 1
 107 591 114 594 125 594 c 0
 156 594 178 570 178 537 c 0
 178 503 150 475 116 475 c 0
 78 475 46 512 46 558 c 0
 46 615 82 666 144 694 c 1
EndSplineSet
KernsSLIF: 89 22 1 0 87 29 1 0 86 23 1 0 84 36 1 0 262 -65 1 0 256 -65 1 0 257 -65 1 0 225 -201 1 0 65 -65 1 0
EndChar
StartChar: guillemotleft
Encoding: 171 171 106
Width: 360
Flags: W
Fore
301 107 m 1
 271 89 l 1
 174 265 l 1
 282 437 l 1
 312 420 l 1
 250 265 l 1
 301 107 l 1
179 107 m 1
 149 89 l 1
 51 265 l 1
 160 437 l 1
 189 420 l 1
 127 265 l 1
 179 107 l 1
EndSplineSet
EndChar
StartChar: guilsinglleft
Encoding: 172 8249 107
Width: 240
Flags: W
Fore
179 107 m 1
 148 89 l 1
 51 265 l 1
 159 437 l 1
 189 420 l 1
 127 265 l 1
 179 107 l 1
EndSplineSet
EndChar
StartChar: guilsinglright
Encoding: 173 8250 108
Width: 240
Flags: W
Fore
62 419 m 1
 92 437 l 1
 189 261 l 1
 81 89 l 1
 51 106 l 1
 113 261 l 1
 62 419 l 1
EndSplineSet
KernsSLIF: 89 -78 1 0 87 -47 1 0 86 -63 1 0 84 -91 1 0 262 -27 1 0 256 -27 1 0 257 -27 1 0 225 -94 1 0 65 -27 1 0
EndChar
StartChar: fi
Encoding: 174 64257 109
Width: 620
Flags: W
HStem: 0 30<20 32.5 276.5 289 339 351.5 595.5 608> 452 33<22 107 202 357> 702 32<307 337>
VStem: 107 95<115 452 485 549> 426 95<115 369>
Fore
202 485 m 1
 521 485 l 1
 521 115 l 2
 521 60 539 37 583 32 c 2
 608 30 l 1
 608 0 l 1
 339 0 l 1
 339 30 l 1
 364 32 l 2
 408 37 426 60 426 115 c 2
 426 347 l 2
 426 431 408 452 335 452 c 2
 202 452 l 1
 202 115 l 2
 202 60 220 37 264 32 c 2
 289 30 l 1
 289 0 l 1
 20 0 l 1
 20 30 l 1
 45 32 l 2
 89 37 107 60 107 115 c 2
 107 452 l 1
 22 452 l 1
 22 485 l 1
 107 485 l 1
 107 523 l 2
 107 592 118 634 145 666 c 0
 181 708 251 734 328 734 c 0
 398 734 453 713 493 672 c 0
 514 650 523 630 523 608 c 0
 523 579 502 558 473 558 c 0
 454 558 437 567 428 583 c 0
 420 596 420 596 419 638 c 0
 418 672 372 702 322 702 c 0
 277 702 237 682 218 649 c 0
 204 625 202 612 202 547 c 2
 202 485 l 1
EndSplineSet
Ligature: 0 0 'liga' f i
EndChar
StartChar: fl
Encoding: 175 64258 110
Width: 620
Flags: W
HStem: 0 30<20 32.5 276.5 289 337 349.5 593.5 606> 452 33<22 107 202 303> 702 32<307 337>
VStem: 107 95<115 452 485 549> 424 95<115 577>
Fore
519 713 m 1
 519 115 l 2
 519 60 537 37 581 32 c 2
 606 30 l 1
 606 0 l 1
 337 0 l 1
 337 30 l 1
 362 32 l 2
 406 37 424 60 424 115 c 2
 424 563 l 2
 424 598 418 642 412 656 c 0
 400 682 361 702 321 702 c 0
 279 702 238 680 218 649 c 0
 205 627 202 607 202 547 c 2
 202 485 l 1
 303 485 l 1
 303 452 l 1
 202 452 l 1
 202 115 l 2
 202 60 220 37 264 32 c 2
 289 30 l 1
 289 0 l 1
 20 0 l 1
 20 30 l 1
 45 32 l 2
 89 37 107 60 107 115 c 2
 107 452 l 1
 22 452 l 1
 22 485 l 1
 107 485 l 1
 107 522 l 2
 107 596 117 632 147 665 c 0
 189 712 246 734 323 734 c 0
 369 734 398 731 519 713 c 1
EndSplineSet
Ligature: 0 0 'liga' f l
EndChar
StartChar: endash
Encoding: 177 8211 111
Width: 500
Flags: W
HStem: 232 57<13 488>
Fore
515 289 m 1
 488 232 l 1
 -15 232 l 1
 14 289 l 1
 515 289 l 1
EndSplineSet
EndChar
StartChar: dagger
Encoding: 178 8224 112
Width: 540
Flags: W
HStem: 378 94<124 130 398 416> 674 20G<245 289>
VStem: 249 35<-161 16>
Fore
249 -161 m 1
 250 -73 l 1
 251 -34 251 -5 251 4 c 0
 251 137 238 199 189 294 c 1
 231 343 247 371 253 408 c 1
 166 383 l 2
 156 381 137 378 126 378 c 0
 95 378 79 394 79 426 c 0
 79 455 97 472 128 472 c 0
 137 472 149 470 160 467 c 2
 253 442 l 1
 240 508 235 523 212 579 c 0
 202 603 198 618 198 632 c 0
 198 671 223 694 267 694 c 0
 311 694 336 671 336 631 c 0
 336 613 335 608 309 543 c 0
 298 513 288 474 282 442 c 1
 374 467 l 2
 385 470 397 472 406 472 c 0
 437 472 455 455 455 425 c 0
 455 393 440 378 408 378 c 0
 396 378 379 380 368 383 c 2
 282 408 l 1
 287 377 299 352 341 294 c 1
 305 208 292 162 288 101 c 0
 286 83 283 -8 283 -27 c 0
 283 -37 283 -51 284 -73 c 0
 284 -85 285 -121 286 -161 c 1
 249 -161 l 1
EndSplineSet
EndChar
StartChar: daggerdbl
Encoding: 179 8225 113
Width: 540
Flags: W
HStem: 64 96<125 131 398 416> 374 95<125 131 398 416> 674 20G<245 289>
VStem: 198 138<-108.979 -93 629 640>
Fore
166 154 m 2
 253 129 l 1
 239 204 228 231 196 267 c 1
 230 305 242 334 253 405 c 1
 166 380 l 2
 153 376 139 374 127 374 c 0
 94 374 79 389 79 422 c 0
 79 452 97 469 129 469 c 0
 139 469 150 468 160 465 c 2
 253 439 l 1
 239 498 229 532 211 576 c 0
 202 599 198 615 198 629 c 0
 198 670 223 694 267 694 c 0
 311 694 336 670 336 629 c 0
 336 615 333 600 324 576 c 0
 315 552 307 526 298 500 c 0
 287 464 284 456 281 439 c 1
 374 465 l 2
 385 468 395 469 405 469 c 0
 437 469 455 452 455 422 c 0
 455 389 440 374 408 374 c 0
 396 374 381 376 368 380 c 2
 281 405 l 1
 291 340 303 310 334 267 c 1
 312 236 307 225 288 160 c 0
 287 158 283 145 278 129 c 1
 368 154 l 2
 381 157 395 159 407 159 c 0
 440 159 455 144 455 111 c 0
 455 81 437 64 405 64 c 0
 396 64 384 66 374 69 c 2
 281 95 l 1
 285 73 304 13 324 -43 c 0
 332 -66 336 -82 336 -95 c 0
 336 -137 311 -161 267 -161 c 0
 223 -161 198 -137 198 -96 c 0
 198 -77 199 -72 225 -6 c 1
 241 44 249 73 253 95 c 1
 160 69 l 2
 150 66 138 64 129 64 c 0
 97 64 79 81 79 112 c 0
 79 145 94 160 127 160 c 0
 138 160 151 158 166 154 c 2
EndSplineSet
EndChar
StartChar: periodcentered
Encoding: 180 183 114
Width: 320
Flags: W
Fore
158 326 m 0
 193 326 222 296 222 261 c 0
 222 225 193 196 157 196 c 0
 121 196 92 225 92 262 c 0
 92 297 121 326 158 326 c 0
EndSplineSet
EndChar
StartChar: paragraph
Encoding: 182 182 115
Width: 600
Flags: W
HStem: 0 32<168 177.5 566.5 577> 648 33<250 274 274 417 566.5 577>
VStem: 14 100<479 496> 268 74<111 648> 417 71<33 577>
Fore
268 297 m 1
 252 297 l 2
 184 297 137 308 97 333 c 0
 47 365 14 427 14 489 c 0
 14 560 53 622 116 653 c 0
 161 674 199 681 274 681 c 2
 577 681 l 1
 577 648 l 1
 556 646 l 2
 499 640 488 624 488 544 c 2
 488 129 l 2
 488 62 504 39 556 34 c 2
 577 32 l 1
 577 0 l 1
 168 0 l 1
 168 32 l 1
 187 34 l 2
 254 41 268 57 268 129 c 2
 268 297 l 1
417 648 m 1
 342 648 l 1
 342 33 l 1
 417 33 l 1
 417 648 l 1
268 327 m 1
 268 648 l 1
 171 647 114 590 114 494 c 0
 114 399 175 333 268 327 c 1
EndSplineSet
EndChar
StartChar: bullet
Encoding: 183 8226 116
Width: 460
Flags: W
Fore
232 557 m 0
 327 557 404 480 404 386 c 0
 404 289 327 213 230 213 c 0
 137 213 60 291 60 385 c 0
 60 480 137 557 232 557 c 0
EndSplineSet
EndChar
StartChar: quotesinglbase
Encoding: 184 8218 117
Width: 220
Flags: W
HStem: -6 21G<84 105>
Fore
80 -106 m 1
 69 -84 l 1
 111 -57 128 -31 131 7 c 1
 117 -3 110 -6 100 -6 c 0
 68 -6 46 18 46 51 c 0
 46 84 74 112 108 112 c 0
 147 112 178 75 178 30 c 0
 178 -27 141 -78 80 -106 c 1
EndSplineSet
EndChar
StartChar: quotedblbase
Encoding: 185 8222 118
Width: 400
Flags: W
HStem: -7 21G<84.5 105 254.5 275>
Fore
80 -107 m 1
 69 -85 l 1
 110 -58 128 -31 131 7 c 1
 117 -4 110 -7 100 -7 c 0
 69 -7 46 17 46 51 c 0
 46 84 74 112 108 112 c 0
 146 112 178 75 178 29 c 0
 178 -28 142 -78 80 -107 c 1
250 -107 m 1
 239 -85 l 1
 280 -58 298 -32 301 7 c 1
 287 -4 280 -7 270 -7 c 0
 239 -7 216 18 216 51 c 0
 216 84 244 112 278 112 c 0
 316 112 348 75 348 29 c 0
 348 -28 312 -78 250 -107 c 1
EndSplineSet
KernsSLIF: 89 -57 1 0 87 -58 1 0 86 -78 1 0 84 -61 1 0 225 34 1 0 65 36 1 0
EndChar
StartChar: quotedblright
Encoding: 186 8221 119
Width: 400
Flags: W
HStem: 674 20G<91 127 261 297>
Fore
80 475 m 1
 69 497 l 1
 110 524 128 551 131 589 c 1
 117 579 110 576 100 576 c 0
 69 576 46 600 46 633 c 0
 46 666 74 694 108 694 c 0
 146 694 178 657 178 611 c 0
 178 554 142 504 80 475 c 1
250 475 m 1
 239 497 l 1
 280 524 298 550 301 589 c 1
 287 579 280 576 270 576 c 0
 239 576 216 600 216 633 c 0
 216 666 244 694 278 694 c 0
 316 694 348 657 348 611 c 0
 348 554 312 504 250 475 c 1
EndSplineSet
KernsSLIF: 89 29 1 0 87 30 1 0 86 29 1 0 84 36 1 0 262 -66 1 0 256 -66 1 0 257 -66 1 0 225 -206 1 0 65 -66 1 0
EndChar
StartChar: guillemotright
Encoding: 187 187 120
Width: 360
Flags: W
Fore
61 419 m 1
 92 437 l 1
 189 261 l 1
 81 89 l 1
 51 106 l 1
 113 261 l 1
 61 419 l 1
184 419 m 1
 214 437 l 1
 312 261 l 1
 203 89 l 1
 174 106 l 1
 236 261 l 1
 184 419 l 1
EndSplineSet
KernsSLIF: 89 -76 1 0 87 -46 1 0 86 -61 1 0 84 -90 1 0 262 -26 1 0 256 -26 1 0 257 -26 1 0 225 -93 1 0 65 -26 1 0
EndChar
StartChar: ellipsis
Encoding: 188 8230 121
Width: 1000
Flags: W
HStem: -13 21G<147.5 182.5 482.5 517.5 816.5 851.5>
VStem: 101 128<49 54> 436 128<49 54> 770 128<49 54>
Fore
166 115 m 0
 200 115 229 86 229 51 c 0
 229 16 200 -13 165 -13 c 0
 130 -13 101 16 101 52 c 0
 101 87 130 115 166 115 c 0
501 115 m 0
 535 115 564 86 564 51 c 0
 564 16 535 -13 500 -13 c 0
 465 -13 436 16 436 52 c 0
 436 87 465 115 501 115 c 0
835 115 m 0
 869 115 898 86 898 51 c 0
 898 16 869 -13 834 -13 c 0
 799 -13 770 16 770 52 c 0
 770 87 799 115 835 115 c 0
EndSplineSet
Ligature: 0 1 'liga' period period period
EndChar
StartChar: perthousand
Encoding: 189 8240 122
Width: 1280
Flags: W
HStem: -8 37<699 712 1078.78 1097> 265 37<185 200> 379 37<693 712 1090 1096> 652 37<185 199>
VStem: 22 75<455 489> 294 75<455 489> 526 75<183 217> 798 75<183 217> 919 75<183 217> 1191 75<183 217>
DStem: 651 681 710 681 187 0 246 0
Fore
195 689 m 0
 298 689 369 602 369 474 c 0
 369 351 297 265 195 265 c 0
 93 265 22 352 22 478 c 0
 22 541 46 606 83 644 c 0
 111 672 153 689 195 689 c 0
197 652 m 0
 172 652 149 641 134 622 c 0
 113 597 97 533 97 472 c 0
 97 363 133 302 196 302 c 0
 259 302 294 364 294 478 c 0
 294 591 260 652 197 652 c 0
710 681 m 1
 246 0 l 1
 187 0 l 1
 651 681 l 1
 710 681 l 1
699 416 m 0
 802 416 873 329 873 201 c 0
 873 78 801 -8 699 -8 c 0
 597 -8 526 79 526 205 c 0
 526 268 550 333 587 371 c 0
 615 399 657 416 699 416 c 0
701 379 m 0
 676 379 653 368 638 349 c 0
 617 324 601 260 601 199 c 0
 601 90 637 29 699 29 c 0
 763 29 798 91 798 205 c 0
 798 318 764 379 701 379 c 0
1092 416 m 0
 1195 416 1266 329 1266 201 c 0
 1266 78 1194 -8 1092 -8 c 0
 990 -8 919 79 919 205 c 0
 919 268 943 333 980 371 c 0
 1008 399 1050 416 1092 416 c 0
1094 379 m 0
 1069 379 1046 368 1031 349 c 0
 1010 324 994 260 994 199 c 0
 994 91 1030 29 1092 29 c 0
 1156 29 1191 91 1191 205 c 0
 1191 318 1157 379 1094 379 c 0
EndSplineSet
EndChar
StartChar: questiondown
Encoding: 191 191 123
Width: 540
Flags: W
HStem: -213 40<255 281> 365 129<294 312>
VStem: 23 108<-45 -16> 279 47<263 307> 394 116<-43 -18>
Fore
23 -27 m 0
 23 -27 l 0
301 365 m 0
 267 365 238 394 238 429 c 0
 238 465 267 494 302 494 c 0
 338 494 367 465 367 429 c 0
 367 394 338 365 301 365 c 0
279 307 m 1
 324 307 l 1
 325 287 326 276 326 263 c 0
 326 199 311 170 257 134 c 2
 200 95 l 2
 155 64 131 19 131 -36 c 0
 131 -123 182 -173 273 -173 c 0
 352 -173 415 -135 415 -87 c 0
 415 -76 413 -68 406 -55 c 0
 396 -34 394 -28 394 -18 c 0
 394 7 419 30 448 30 c 0
 484 30 510 -1 510 -43 c 0
 510 -83 484 -127 441 -161 c 0
 401 -192 329 -213 263 -213 c 0
 206 -213 147 -197 102 -170 c 0
 53 -141 23 -86 23 -27 c 0
 23 12 37 52 61 84 c 1
 82 109 112 129 158 145 c 2
 191 157 l 2
 259 183 280 217 279 307 c 1
EndSplineSet
EndChar
StartChar: grave
Encoding: 193 96 124
Width: 340
Flags: W
HStem: 660 20G<93 112.5>
Fore
269 564 m 1
 130 593 l 2
 87 602 68 617 68 643 c 0
 68 664 83 680 103 680 c 0
 122 680 150 668 179 646 c 2
 274 578 l 1
 269 564 l 1
EndSplineSet
EndChar
StartChar: acute
Encoding: 194 180 125
Width: 340
Flags: W
HStem: 660 20G<229 249>
Fore
73 564 m 1
 68 578 l 1
 163 646 l 2
 192 668 219 680 239 680 c 0
 259 680 274 664 274 643 c 0
 274 617 255 602 212 593 c 2
 73 564 l 1
EndSplineSet
Ligature: 0 1 'liga' space acutecomb
EndChar
StartChar: circumflex
Encoding: 195 710 126
Width: 420
Flags: W
Fore
210 681 m 1
 352 588 l 1
 338 563 l 1
 210 608 l 1
 81 563 l 1
 68 588 l 1
 210 681 l 1
EndSplineSet
EndChar
StartChar: tilde
Encoding: 196 732 127
Width: 440
Flags: W
Fore
346 654 m 1
 375 645 l 1
 360 595 333 573 285 573 c 0
 261 573 239 577 190 591 c 0
 159 599 150 601 136 601 c 0
 121 601 110 596 97 581 c 1
 68 591 l 1
 81 632 115 659 154 659 c 0
 177 659 198 655 249 641 c 0
 273 634 285 632 298 632 c 0
 318 632 335 640 346 654 c 1
EndSplineSet
Ligature: 0 1 'liga' space tildecomb
EndChar
StartChar: macron
Encoding: 197 175 128
Width: 440
Flags: W
HStem: 587 50<68 364>
Fore
364 637 m 1
 364 587 l 1
 68 587 l 1
 68 637 l 1
 364 637 l 1
EndSplineSet
Ligature: 0 1 'liga' space uni0304
EndChar
StartChar: breve
Encoding: 198 728 129
Width: 460
Flags: W
Fore
68 664 m 1
 91 682 l 1
 133 648 181 630 233 630 c 0
 283 630 339 651 373 682 c 1
 396 664 l 1
 365 603 300 563 231 563 c 0
 157 563 98 600 68 664 c 1
EndSplineSet
Ligature: 0 1 'liga' space uni0306
EndChar
StartChar: dotaccent
Encoding: 199 729 130
Width: 260
Flags: W
HStem: 661 20G<111.5 143.5>
Fore
128 681 m 0
 159 681 186 654 186 622 c 0
 186 590 159 563 127 563 c 0
 95 563 68 590 68 622 c 0
 68 655 95 681 128 681 c 0
EndSplineSet
Ligature: 0 1 'liga' space uni0307
EndChar
StartChar: dieresis
Encoding: 200 168 131
Width: 420
Flags: W
HStem: 661 20G<111.5 143.5 274.5 306.5>
Fore
128 681 m 0
 159 681 186 654 186 622 c 0
 186 590 159 563 127 563 c 0
 95 563 68 590 68 622 c 0
 68 655 95 681 128 681 c 0
291 681 m 0
 322 681 349 654 349 622 c 0
 349 590 322 563 290 563 c 0
 258 563 231 590 231 622 c 0
 231 655 258 681 291 681 c 0
EndSplineSet
Ligature: 0 1 'liga' space uni0308
EndChar
StartChar: ring
Encoding: 202 730 132
Width: 320
Flags: W
HStem: 547 37<149.388 165> 695 37<161 165>
VStem: 68 37<629.138 643> 215 37<629.35 643>
Fore
161 732 m 0
 211 732 252 690 252 640 c 0
 252 589 211 547 160 547 c 0
 109 547 68 589 68 640 c 0
 68 691 110 732 161 732 c 0
161 695 m 0
 130 695 105 671 105 640 c 0
 105 609 129 584 160 584 c 0
 190 584 215 609 215 640 c 0
 215 669 190 695 161 695 c 0
EndSplineSet
Ligature: 0 1 'liga' space uni030A
EndChar
StartChar: cedilla
Encoding: 203 184 133
Width: 320
Flags: W
HStem: -200 27<155 171> -68 26<145 163> -68 68<127 149>
VStem: 209 48<-121 -113>
DStem: 127 0 158 0 102 -78 145 -43
Fore
158 0 m 1xb0
 145 -43 l 1
 150 -42 155 -42 157 -42 c 0
 163 -41 167 -41 169 -41 c 0
 223 -41 257 -69 257 -115 c 0
 257 -166 220 -200 165 -200 c 0
 113 -200 68 -174 68 -144 c 0
 68 -130 79 -119 93 -119 c 0
 109 -119 117 -125 124 -143 c 0
 134 -166 143 -173 163 -173 c 0
 189 -173 209 -150 209 -119 c 0
 209 -86 188 -68 149 -68 c 0xd0
 136 -68 123 -71 102 -78 c 1
 127 0 l 1
 158 0 l 1xb0
EndSplineSet
Ligature: 0 1 'liga' space uni0327
EndChar
StartChar: hungarumlaut
Encoding: 205 733 134
Width: 380
Flags: W
HStem: 680 20G<145 163.5 275 294>
Fore
84 539 m 1
 68 550 l 1
 103 640 l 2
 120 684 134 700 156 700 c 0
 171 700 181 689 181 671 c 0
 181 653 173 633 161 620 c 2
 84 539 l 1
214 539 m 1
 198 550 l 1
 233 640 l 1
 249 683 264 700 286 700 c 0
 302 700 311 689 311 670 c 0
 311 653 303 634 290 620 c 2
 214 539 l 1
EndSplineSet
Ligature: 0 1 'liga' space uni030B
EndChar
StartChar: ogonek
Encoding: 206 731 135
Width: 320
Flags: W
HStem: -152 40<134 162> -20 20G<118 155>
VStem: 68 48<-84 -67>
Fore
118 0 m 1
 155 0 l 1
 131 -19 116 -44 116 -67 c 0
 116 -93 136 -112 162 -112 c 0
 181 -112 200 -102 229 -75 c 1
 245 -96 l 1
 196 -139 170 -152 134 -152 c 0
 96 -152 68 -123 68 -84 c 0
 68 -49 83 -24 118 0 c 1
EndSplineSet
Ligature: 0 1 'liga' space uni0328
EndChar
StartChar: caron
Encoding: 207 711 136
Width: 420
Flags: W
Fore
210 562 m 1
 68 655 l 1
 81 680 l 1
 210 634 l 1
 338 680 l 1
 352 655 l 1
 210 562 l 1
EndSplineSet
EndChar
StartChar: emdash
Encoding: 208 8212 137
Width: 1000
Flags: W
HStem: 232 57<12 991>
Fore
1015 289 m 1
 991 232 l 1
 -15 232 l 1
 13 289 l 1
 1015 289 l 1
EndSplineSet
EndChar
StartChar: AE
Encoding: 225 198 138
Width: 1260
Flags: W
HStem: 0 31<276.333 298 572 580.333> 0 43<859 1165> 341 43<454 662 762 845> 638 43<647 893>
VStem: 662 100<111 341 384 561> 950 35<208 512>
DStem: 647 681 662 628 189 164 454 384 647 681 413 341 189 164 250 154
Fore
647 681 m 1xbc
 1141 681 l 1
 1216 503 l 1
 1181 493 l 1
 1112 594 1017 638 871 638 c 0
 787 638 762 618 762 552 c 2
 762 384 l 1
 831 384 l 2
 879 384 900 389 918 405 c 0
 935 421 950 466 950 503 c 2
 950 512 l 1
 985 512 l 1
 985 208 l 1
 950 208 l 1
 950 220 l 2
 950 255 938 292 920 313 c 0
 905 332 875 341 831 341 c 2
 762 341 l 1
 762 119 l 2
 762 88 768 72 785 61 c 0
 801 50 837 43 875 43 c 2
 913 43 l 2
 987 43 1065 73 1121 122 c 0
 1154 151 1179 180 1216 233 c 1
 1250 220 l 1
 1165 0 l 1x7c
 572 0 l 1
 572 31 l 1
 597 34 l 2
 649 41 662 62 662 144 c 2
 662 341 l 1
 413 341 l 1
 250 154 l 1
 217 113 206 94 206 74 c 0
 206 47 233 34 298 31 c 1
 298 0 l 1xbc
 -36 0 l 1x7c
 -36 31 l 1
 59 46 115 79 189 164 c 1
 647 681 l 1xbc
454 384 m 1
 662 384 l 1
 662 628 l 1
 454 384 l 1
EndSplineSet
EndChar
StartChar: ordfeminine
Encoding: 227 170 139
Width: 420
Flags: W
HStem: 288 40<63 368> 380 37<147 169 330 346> 653 32<176 197>
VStem: 49 70<455 470> 69 70<608 620> 251 68<456 533 563 615>
Fore
374 429 m 1xec
 393 405 l 1
 371 387 356 381 330 381 c 0
 291 381 266 394 254 420 c 1
 216 391 186 380 147 380 c 0
 89 380 49 412 49 459 c 0xf4
 49 489 68 515 101 530 c 0
 135 546 165 552 251 564 c 1
 251 609 l 2
 251 636 226 653 186 653 c 0
 168 653 154 648 143 639 c 0
 139 636 139 634 139 625 c 2
 139 618 l 2
 139 595 124 580 103 580 c 0
 85 580 69 595 69 612 c 0
 69 649 131 685 195 685 c 0
 233 685 273 674 294 658 c 0
 312 645 319 628 319 599 c 2
 319 468 l 2
 319 431 325 418 344 418 c 0
 354 418 365 422 374 429 c 1xec
251 457 m 1
 251 533 l 1
 155 518 119 499 119 463 c 0
 119 436 140 417 169 417 c 0
 195 417 219 429 251 457 c 1
368 328 m 1
 368 288 l 1
 63 288 l 1
 63 328 l 1
 368 328 l 1
EndSplineSet
EndChar
StartChar: Lslash
Encoding: 232 321 140
Width: 600
Flags: W
HStem: 0 31<31 39.3333> 0 38<288.751 320> 650 31<31 39.3333 307.333 318>
VStem: 121 100<111 279 336 341 337 561>
DStem: 121 337 121 279 35 273 35 215 364 501 364 443 221 399 221 341
Fore
121 279 m 1xb0
 35 215 l 1
 35 273 l 1
 121 337 l 1
 121 537 l 2
 121 619 108 640 56 647 c 2
 31 650 l 1
 31 681 l 1
 318 681 l 1
 318 650 l 1
 286 647 l 2
 235 642 221 618 221 537 c 2
 221 399 l 1
 364 501 l 1
 364 443 l 1
 221 341 l 1
 221 123 l 2
 221 93 225 73 233 63 c 0
 245 48 274 38 307 38 c 0
 367 38 434 62 490 105 c 0
 529 134 554 162 600 227 c 1
 629 214 l 1
 548 0 l 1x70
 31 0 l 1
 31 31 l 1
 56 34 l 2
 108 41 121 62 121 144 c 2
 121 279 l 1xb0
EndSplineSet
EndChar
StartChar: Oslash
Encoding: 233 216 141
Width: 800
Flags: W
HStem: -13 48<379 413> 646 48<379 413>
VStem: 44 118<314 364> 640 118<314 364>
DStem: 160 76 198 45 57 -53 120 -53 560 582 590 541 213 143 243 103 680 734 741 734 605 639 642 611
Fore
741 734 m 1
 642 611 l 1
 724 528 758 450 758 340 c 0
 758 237 722 151 653 86 c 0
 586 23 493 -13 399 -13 c 0
 325 -13 267 4 198 45 c 1
 120 -53 l 1
 57 -53 l 1
 160 76 l 1
 81 152 44 235 44 339 c 0
 44 539 201 694 405 694 c 0
 481 694 542 678 605 639 c 1
 680 734 l 1
 741 734 l 1
213 143 m 1
 560 582 l 1
 510 628 467 646 403 646 c 0
 254 646 162 528 162 336 c 0
 162 257 174 211 213 143 c 1
590 541 m 1
 243 103 l 1
 290 55 337 35 402 35 c 0
 546 35 640 152 640 331 c 0
 640 420 627 474 590 541 c 1
EndSplineSet
KernsSLIF: 65 -34 0 0
EndChar
StartChar: OE
Encoding: 234 338 142
Width: 1240
Flags: W
HStem: -13 48<379 413> 0 43<827 1127> 355 43<725 797> 638 43<633 876> 646 48<379 413>
VStem: 44 118<322 357> 629 96<322 355> 916 38<219 526>
Fore
633 681 m 1x37
 1098 681 l 1
 1176 508 l 1
 1143 495 l 1
 1101 548 1078 570 1044 590 c 0
 992 621 921 638 845 638 c 0
 793 638 762 633 747 621 c 0
 728 606 725 590 725 515 c 2
 725 398 l 1
 773 398 l 2
 832 398 866 406 885 422 c 0
 902 438 916 476 916 509 c 2
 916 526 l 1
 954 526 l 1
 954 219 l 1
 916 219 l 1
 916 234 l 2
 916 273 899 316 876 334 c 0
 857 348 824 355 772 355 c 2
 725 355 l 1
 725 143 l 2
 725 85 730 70 755 57 c 0
 771 49 811 43 853 43 c 0
 934 43 1009 67 1066 109 c 0
 1100 135 1130 167 1180 233 c 1
 1214 218 l 1
 1127 0 l 1
 633 0 l 1x77
 633 86 l 1
 567 21 484 -13 392 -13 c 0
 195 -13 44 141 44 341 c 0
 44 541 196 694 394 694 c 0xaf
 482 694 565 662 633 603 c 1
 633 681 l 1x37
393 646 m 0xaf
 254 646 162 528 162 349 c 0
 162 159 254 35 394 35 c 0
 535 35 629 158 629 344 c 0
 629 523 533 646 393 646 c 0xaf
EndSplineSet
EndChar
StartChar: ordmasculine
Encoding: 235 186 143
Width: 420
Flags: W
HStem: 288 40<56 361> 380 32<209 217> 653 32<199 217>
VStem: 56 70<527 545> 290 70<511.831 545>
Fore
207 685 m 0
 299 685 360 624 360 532 c 0
 360 441 299 380 209 380 c 0
 116 380 56 440 56 534 c 0
 56 624 116 685 207 685 c 0
208 653 m 0
 157 653 126 608 126 535 c 0
 126 455 156 412 209 412 c 0
 261 412 290 454 290 530 c 0
 290 608 260 653 208 653 c 0
361 328 m 1
 361 288 l 1
 56 288 l 1
 56 328 l 1
 361 328 l 1
EndSplineSet
EndChar
StartChar: ae
Encoding: 241 230 144
Width: 860
Flags: W
HStem: -9 40<619 644> 259 33<472 832> 454 40<258 275 594 621>
VStem: 35 92<114 130> 61 97<364 378> 733 99<281 306>
Fore
798 131 m 1xec
 830 114 l 1
 778 31 709 -9 619 -9 c 0
 569 -9 523 5 482 32 c 0
 449 53 432 71 405 114 c 1
 357 27 297 -9 197 -9 c 0
 100 -9 35 40 35 114 c 0xf4
 35 180 88 235 179 264 c 0
 242 284 271 288 370 288 c 1
 370 359 l 2
 370 419 330 454 262 454 c 0
 200 454 158 429 158 392 c 2
 158 376 l 2
 158 344 138 323 106 323 c 0
 81 323 61 342 61 366 c 0
 61 435 158 494 273 494 c 0
 352 494 405 473 442 427 c 1
 499 474 550 494 615 494 c 0
 666 494 716 477 756 447 c 0
 808 409 832 355 832 281 c 2
 832 259 l 1
 471 259 l 1
 473 203 479 166 491 132 c 0
 513 72 573 31 640 31 c 0
 677 31 716 45 744 67 c 0
 764 82 776 96 798 131 c 1xec
370 232 m 1
 370 259 l 1
 272 252 223 240 181 213 c 0
 145 189 127 161 127 128 c 0
 127 76 171 36 229 36 c 0
 289 36 344 75 361 130 c 0
 369 155 369 158 370 232 c 1
472 292 m 1
 733 292 l 1
 733 306 l 2
 733 397 685 454 609 454 c 0
 557 454 510 424 490 378 c 0
 481 357 477 336 472 292 c 1
EndSplineSet
KernsSLIF: 121 -13 0 0 119 -8 0 0 118 -6 0 0
EndChar
StartChar: dotlessi
Encoding: 245 305 145
Width: 300
Flags: W
HStem: 0 30<20 32.5 276 288> 465 20G<168 202>
VStem: 107 95<115 369>
Fore
202 485 m 1
 202 115 l 2
 202 60 219 37 264 32 c 2
 288 30 l 1
 288 0 l 1
 20 0 l 1
 20 30 l 1
 45 32 l 2
 89 37 107 60 107 115 c 2
 107 350 l 2
 107 410 93 428 41 433 c 2
 21 435 l 1
 21 465 l 1
 74 469 107 474 168 485 c 1
 202 485 l 1
EndSplineSet
EndChar
StartChar: lslash
Encoding: 248 322 146
Width: 320
Flags: W
HStem: 0 30<23 35 277.5 289>
VStem: 109 95<115 317 365 370 366 717>
DStem: 109 366 109 317 20 301 20 252 291 482 291 434 204 419 204 370
Fore
204 370 m 1
 204 115 l 2
 204 60 221 37 266 32 c 2
 289 30 l 1
 289 0 l 1
 23 0 l 1
 23 30 l 1
 47 32 l 2
 92 37 109 60 109 115 c 2
 109 317 l 1
 20 252 l 1
 20 301 l 1
 109 366 l 1
 109 538 l 2
 109 627 98 645 44 650 c 2
 23 652 l 1
 23 683 l 1
 91 691 114 697 164 717 c 1
 204 717 l 1
 204 419 l 1
 291 482 l 1
 291 434 l 1
 204 370 l 1
EndSplineSet
EndChar
StartChar: oslash
Encoding: 249 248 147
Width: 560
Flags: W
HStem: -9 40<276 294> 454 40<276 294>
VStem: 37 102<213 263> 424 102<229 263>
DStem: 131 37 167 16 82 -42 132 -42 366 420 393 386 169 100 197 64 442 543 489 543 397 469 432 449
Fore
82 -42 m 1
 131 37 l 1
 69 84 37 151 37 236 c 0
 37 392 133 494 279 494 c 0
 323 494 368 485 397 469 c 1
 442 543 l 1
 489 543 l 1
 432 449 l 1
 490 405 526 326 526 241 c 0
 526 91 429 -9 284 -9 c 0
 239 -9 196 0 167 16 c 1
 132 -42 l 1
 82 -42 l 1
169 100 m 1
 366 420 l 1
 343 444 318 454 284 454 c 0
 194 454 139 373 139 239 c 0
 139 184 149 139 169 100 c 1
393 386 m 1
 197 64 l 1
 218 44 252 31 286 31 c 0
 373 31 424 107 424 236 c 0
 424 296 413 351 393 386 c 1
EndSplineSet
EndChar
StartChar: oe
Encoding: 250 339 148
Width: 900
Flags: W
HStem: -9 40<274 294 662 686> 293 33<527 876> 454 40<644 665> 462 32<274 294>
VStem: 37 102<214 264> 423 99<230 264> 776 100<293 326>
Fore
843 129 m 1xee
 876 113 l 1
 839 38 757 -9 662 -9 c 0
 587 -9 525 22 474 85 c 1
 425 24 356 -9 276 -9 c 0
 136 -9 37 94 37 239 c 0
 37 390 136 494 280 494 c 0xde
 356 494 425 462 474 404 c 1
 521 463 587 494 663 494 c 0
 785 494 876 408 876 293 c 1
 525 293 l 1
 523 272 522 262 522 239 c 0
 522 190 527 161 539 129 c 0
 563 69 620 31 686 31 c 0
 752 31 803 63 843 129 c 1xee
284 462 m 0
 191 462 139 383 139 242 c 0
 139 103 187 31 281 31 c 0
 337 31 378 60 399 112 c 0
 414 153 423 204 423 257 c 0
 423 391 375 462 284 462 c 0
527 326 m 1
 776 326 l 1
 776 406 730 454 656 454 c 0xee
 586 454 543 412 527 326 c 1
EndSplineSet
EndChar
StartChar: germandbls
Encoding: 251 223 149
Width: 660
Flags: W
HStem: -110 40<-28.7538 4> -9 44<329 356> 452 33<37 121> 657 37<351 383>
VStem: 121 95<131 451> 288 113<409 425> 461 82<571 579> 512 102<200 218>
Fore
-109 -90 m 1xfe
 -93 -51 l 1
 -52 -66 -34 -70 -10 -70 c 0
 22 -70 58 -52 80 -26 c 0
 110 9 121 54 121 133 c 2
 121 452 l 1
 37 452 l 1
 37 485 l 1
 121 485 l 1
 135 548 148 577 177 610 c 0
 224 663 296 694 373 694 c 0
 471 694 543 642 543 571 c 0xfe
 543 525 510 483 457 462 c 2
 434 453 l 2
 410 444 401 436 401 425 c 0
 401 417 410 409 431 399 c 2
 488 373 l 2
 572 335 614 282 614 216 c 0
 614 92 496 -9 351 -9 c 0
 306 -9 258 3 217 26 c 1
 240 64 l 1
 286 42 312 35 343 35 c 0
 430 35 512 116 512 202 c 0xfd
 512 240 498 267 465 291 c 0
 454 300 454 300 381 337 c 2
 331 363 l 2
 297 381 288 391 288 409 c 0
 288 432 309 453 344 466 c 2
 371 475 l 2
 434 498 461 526 461 571 c 0
 461 622 424 657 368 657 c 0
 325 657 286 637 258 599 c 0
 226 557 216 519 216 433 c 2
 216 166 l 2
 216 80 199 17 164 -26 c 0
 121 -79 58 -110 -8 -110 c 0
 -45 -110 -81 -103 -109 -90 c 1xfe
EndSplineSet
EndChar
StartChar: Adieresis
Encoding: 256 196 150
Width: 680
Flags: W
HStem: 0 31<223.8 231> 253 43<208 451> 661 20G<296 389> 752 118<250 268 410 428>
VStem: 198 118<800.343 817> 361 118<800.343 817>
DStem: 296 681 319 596 124 240 208 296 296 681 193 253 124 240 161 167 319 596 389 681 433 296 601 145 451 253 389 681 501 124 601 145
Fore
258 870 m 0
 289 870 316 843 316 811 c 0
 316 779 289 752 257 752 c 0
 225 752 198 779 198 811 c 0
 198 844 225 870 258 870 c 0
421 870 m 0
 452 870 479 843 479 811 c 0
 479 779 452 752 420 752 c 0
 388 752 361 779 361 811 c 0
 361 844 388 870 421 870 c 0
389 681 m 1
 601 145 l 1
 637 52 649 41 714 31 c 1
 714 0 l 1
 433 0 l 1
 433 31 l 1
 468 36 482 39 491 46 c 0
 504 54 512 67 512 81 c 0
 512 89 507 107 501 124 c 1
 451 253 l 1
 193 253 l 1
 161 167 l 2
 149 136 142 108 142 93 c 0
 142 75 152 57 167 47 c 0
 178 40 195 36 231 31 c 1
 231 0 l 1
 -37 0 l 1
 -37 31 l 1
 -26 33 l 2
 41 46 57 69 124 240 c 2
 296 681 l 1
 389 681 l 1
208 296 m 1
 433 296 l 1
 319 596 l 1
 208 296 l 1
EndSplineSet
KernsSLIF: 121 -40 0 0 119 -34 0 0 118 -36 0 0 117 -15 0 0 116 -7 0 0 39 -61 0 0 186 -61 0 0 113 -9 0 0 46 15 0 0 111 -8 0 0 45 -2 0 0 172 -24 0 0 171 -24 0 0 103 24 0 0 100 -5 0 0 44 17 0 0 99 -9 0 0 98 13 0 0 97 21 0 0 89 -14 0 0 87 -58 0 0 86 -71 0 0 85 -34 0 0 84 -18 0 0 81 -36 0 0 79 -35 0 0 71 -34 0 0 67 -34 0 0
Ligature: 0 0 'liga' A uni0308
EndChar
StartChar: Aacute
Encoding: 257 193 151
Width: 680
Flags: W
HStem: 0 31<223.8 231> 253 43<208 451> 661 20G<296 389>
DStem: 296 681 319 596 124 240 208 296 296 681 193 253 124 240 161 167 319 596 389 681 433 296 601 145 451 253 389 681 501 124 601 145
Fore
290 753 m 1
 285 767 l 1
 380 835 l 2
 409 857 436 869 456 869 c 0
 476 869 491 853 491 832 c 0
 491 806 472 791 429 782 c 2
 290 753 l 1
389 681 m 1
 601 145 l 1
 637 52 649 41 714 31 c 1
 714 0 l 1
 433 0 l 1
 433 31 l 1
 468 36 482 39 491 46 c 0
 504 54 512 67 512 81 c 0
 512 89 507 107 501 124 c 1
 451 253 l 1
 193 253 l 1
 161 167 l 2
 149 136 142 108 142 93 c 0
 142 75 152 57 167 47 c 0
 178 40 195 36 231 31 c 1
 231 0 l 1
 -37 0 l 1
 -37 31 l 1
 -26 33 l 2
 41 46 57 69 124 240 c 2
 296 681 l 1
 389 681 l 1
208 296 m 1
 433 296 l 1
 319 596 l 1
 208 296 l 1
EndSplineSet
KernsSLIF: 121 -40 0 0 119 -34 0 0 118 -36 0 0 117 -15 0 0 116 -7 0 0 39 -61 0 0 113 -9 0 0 46 15 0 0 111 -8 0 0 45 -2 0 0 172 -24 0 0 171 -24 0 0 103 24 0 0 101 -13 0 0 100 -5 0 0 44 17 0 0 99 -9 0 0 98 13 0 0 97 21 0 0 89 -14 0 0 87 -58 0 0 86 -71 0 0 85 -34 0 0 84 -18 0 0 81 -36 0 0 79 -35 0 0 71 -34 0 0 67 -34 0 0
Ligature: 0 0 'liga' A acutecomb
EndChar
StartChar: Agrave
Encoding: 258 192 152
Width: 680
Flags: W
HStem: 0 31<223.8 231> 253 43<208 451> 661 20G<296 389>
DStem: 296 681 319 596 124 240 208 296 296 681 193 253 124 240 161 167 319 596 389 681 433 296 601 145 451 253 389 681 501 124 601 145
Fore
386 753 m 1
 247 782 l 2
 204 791 185 806 185 832 c 0
 185 853 200 869 220 869 c 0
 239 869 267 857 296 835 c 2
 391 767 l 1
 386 753 l 1
389 681 m 1
 601 145 l 1
 637 52 649 41 714 31 c 1
 714 0 l 1
 433 0 l 1
 433 31 l 1
 468 36 482 39 491 46 c 0
 504 54 512 67 512 81 c 0
 512 89 507 107 501 124 c 1
 451 253 l 1
 193 253 l 1
 161 167 l 2
 149 136 142 108 142 93 c 0
 142 75 152 57 167 47 c 0
 178 40 195 36 231 31 c 1
 231 0 l 1
 -37 0 l 1
 -37 31 l 1
 -26 33 l 2
 41 46 57 69 124 240 c 2
 296 681 l 1
 389 681 l 1
208 296 m 1
 433 296 l 1
 319 596 l 1
 208 296 l 1
EndSplineSet
KernsSLIF: 46 15 0 0 44 17 0 0 89 -14 0 0 87 -58 0 0 86 -71 0 0 85 -34 0 0 84 -18 0 0 81 -36 0 0 79 -35 0 0 71 -34 0 0 67 -34 0 0
Ligature: 0 0 'liga' A gravecomb
EndChar
StartChar: Acircumflex
Encoding: 259 194 153
Width: 680
Flags: W
HStem: 0 31<223.8 231> 253 43<208 451> 661 20G<296 389>
DStem: 296 681 319 596 124 240 208 296 296 681 193 253 124 240 161 167 319 596 389 681 433 296 601 145 451 253 389 681 501 124 601 145
Fore
339 870 m 1
 481 777 l 1
 467 752 l 1
 339 797 l 1
 210 752 l 1
 197 777 l 1
 339 870 l 1
389 681 m 1
 601 145 l 1
 637 52 649 41 714 31 c 1
 714 0 l 1
 433 0 l 1
 433 31 l 1
 468 36 482 39 491 46 c 0
 504 54 512 67 512 81 c 0
 512 89 507 107 501 124 c 1
 451 253 l 1
 193 253 l 1
 161 167 l 2
 149 136 142 108 142 93 c 0
 142 75 152 57 167 47 c 0
 178 40 195 36 231 31 c 1
 231 0 l 1
 -37 0 l 1
 -37 31 l 1
 -26 33 l 2
 41 46 57 69 124 240 c 2
 296 681 l 1
 389 681 l 1
208 296 m 1
 433 296 l 1
 319 596 l 1
 208 296 l 1
EndSplineSet
KernsSLIF: 46 15 0 0 44 17 0 0 89 -14 0 0 87 -58 0 0 86 -71 0 0 85 -34 0 0 84 -18 0 0 81 -36 0 0 79 -35 0 0 71 -34 0 0 67 -34 0 0
Ligature: 0 0 'liga' A uni0302
EndChar
StartChar: Abreve
Encoding: 260 258 154
Width: 680
Flags: W
HStem: 0 31<223.8 231> 253 43<208 451> 661 20G<296 389> 752 67<320 348>
DStem: 296 681 319 596 124 240 208 296 296 681 193 253 124 240 161 167 319 596 389 681 433 296 601 145 451 253 389 681 501 124 601 145
Fore
177 853 m 1
 200 871 l 1
 242 837 290 819 342 819 c 0
 392 819 448 840 482 871 c 1
 505 853 l 1
 474 792 409 752 340 752 c 0
 266 752 207 789 177 853 c 1
389 681 m 1
 601 145 l 1
 637 52 649 41 714 31 c 1
 714 0 l 1
 433 0 l 1
 433 31 l 1
 468 36 482 39 491 46 c 0
 504 54 512 67 512 81 c 0
 512 89 507 107 501 124 c 1
 451 253 l 1
 193 253 l 1
 161 167 l 2
 149 136 142 108 142 93 c 0
 142 75 152 57 167 47 c 0
 178 40 195 36 231 31 c 1
 231 0 l 1
 -37 0 l 1
 -37 31 l 1
 -26 33 l 2
 41 46 57 69 124 240 c 2
 296 681 l 1
 389 681 l 1
208 296 m 1
 433 296 l 1
 319 596 l 1
 208 296 l 1
EndSplineSet
Ligature: 0 0 'liga' A uni0306
EndChar
StartChar: Atilde
Encoding: 261 195 155
Width: 680
Flags: W
HStem: 0 31<223.8 231> 253 43<208 451> 661 20G<296 389> 766 59<410 427> 794 58<263 281>
DStem: 296 681 319 596 124 240 208 296 296 681 193 253 124 240 161 167 319 596 389 681 433 296 601 145 451 253 389 681 501 124 601 145
Fore
473 847 m 1xf0
 502 838 l 1
 487 788 460 766 412 766 c 0xf0
 388 766 366 770 317 784 c 0
 286 792 277 794 263 794 c 0
 248 794 237 789 224 774 c 1
 195 784 l 1
 208 825 242 852 281 852 c 0xe8
 304 852 325 848 376 834 c 0
 400 827 412 825 425 825 c 0
 445 825 462 833 473 847 c 1xf0
389 681 m 1
 601 145 l 1
 637 52 649 41 714 31 c 1
 714 0 l 1
 433 0 l 1
 433 31 l 1
 468 36 482 39 491 46 c 0
 504 54 512 67 512 81 c 0
 512 89 507 107 501 124 c 1
 451 253 l 1
 193 253 l 1
 161 167 l 2
 149 136 142 108 142 93 c 0
 142 75 152 57 167 47 c 0
 178 40 195 36 231 31 c 1
 231 0 l 1
 -37 0 l 1
 -37 31 l 1
 -26 33 l 2
 41 46 57 69 124 240 c 2
 296 681 l 1
 389 681 l 1
208 296 m 1
 433 296 l 1
 319 596 l 1
 208 296 l 1
EndSplineSet
KernsSLIF: 46 15 0 0 44 17 0 0 89 -14 0 0 87 -58 0 0 86 -71 0 0 85 -34 0 0 84 -18 0 0 81 -36 0 0 79 -35 0 0 71 -34 0 0 67 -34 0 0
Ligature: 0 0 'liga' A tildecomb
EndChar
StartChar: Aring
Encoding: 262 197 156
Width: 680
Flags: W
HStem: 0 31<223.8 231> 253 43<208 451> 661 20G<296 389> 737 37<339 348> 885 37<340 348>
VStem: 247 37<819.138 833> 394 37<819.35 833>
DStem: 296 681 319 596 124 240 208 296 296 681 193 253 124 240 161 167 319 596 389 681 433 296 601 145 451 253 389 681 501 124 601 145
Fore
340 922 m 0
 390 922 431 880 431 830 c 0
 431 779 390 737 339 737 c 0
 288 737 247 779 247 830 c 0
 247 881 289 922 340 922 c 0
340 885 m 0
 309 885 284 861 284 830 c 0
 284 799 308 774 339 774 c 0
 369 774 394 799 394 830 c 0
 394 859 369 885 340 885 c 0
389 681 m 1
 601 145 l 1
 637 52 649 41 714 31 c 1
 714 0 l 1
 433 0 l 1
 433 31 l 1
 468 36 482 39 491 46 c 0
 504 54 512 67 512 81 c 0
 512 89 507 107 501 124 c 1
 451 253 l 1
 193 253 l 1
 161 167 l 2
 149 136 142 108 142 93 c 0
 142 75 152 57 167 47 c 0
 178 40 195 36 231 31 c 1
 231 0 l 1
 -37 0 l 1
 -37 31 l 1
 -26 33 l 2
 41 46 57 69 124 240 c 2
 296 681 l 1
 389 681 l 1
208 296 m 1
 433 296 l 1
 319 596 l 1
 208 296 l 1
EndSplineSet
KernsSLIF: 121 -40 0 0 119 -34 0 0 118 -36 0 0 117 -15 0 0 116 -7 0 0 39 -61 0 0 186 -61 0 0 113 -9 0 0 46 15 0 0 111 -8 0 0 45 -2 0 0 172 -24 0 0 171 -24 0 0 103 24 0 0 101 -13 0 0 100 -5 0 0 44 17 0 0 99 -9 0 0 98 13 0 0 97 21 0 0 89 -14 0 0 87 -58 0 0 86 -71 0 0 85 -34 0 0 84 -18 0 0 81 -36 0 0 79 -35 0 0 71 -34 0 0 67 -34 0 0
Ligature: 0 0 'liga' A uni030A
EndChar
StartChar: Aogonek
Encoding: 263 260 157
Width: 680
Flags: W
HStem: -152 40<692 720> 0 0<675 714> 0 31<223.8 231> 253 43<208 451> 661 20G<296 389>
VStem: 626 48<-84 -67>
DStem: 296 681 319 596 124 240 208 296 296 681 193 253 124 240 161 167 319 596 389 681 433 296 601 145 451 253 389 681 501 124 601 145
Fore
676 0 m 1
 713 0 l 1
 689 -19 674 -44 674 -67 c 0
 674 -93 694 -112 720 -112 c 0
 739 -112 758 -102 787 -75 c 1
 803 -96 l 1
 754 -139 728 -152 692 -152 c 0
 654 -152 626 -123 626 -84 c 0
 626 -49 641 -24 676 0 c 1
389 681 m 1
 601 145 l 1
 637 52 649 41 714 31 c 1
 714 0 l 1
 433 0 l 1
 433 31 l 1
 468 36 482 39 491 46 c 0
 504 54 512 67 512 81 c 0
 512 89 507 107 501 124 c 1
 451 253 l 1
 193 253 l 1
 161 167 l 2
 149 136 142 108 142 93 c 0
 142 75 152 57 167 47 c 0
 178 40 195 36 231 31 c 1
 231 0 l 1
 -37 0 l 1
 -37 31 l 1
 -26 33 l 2
 41 46 57 69 124 240 c 2
 296 681 l 1
 389 681 l 1
208 296 m 1
 433 296 l 1
 319 596 l 1
 208 296 l 1
EndSplineSet
Ligature: 0 0 'liga' A uni0328
EndChar
StartChar: Ccedilla
Encoding: 264 199 158
Width: 740
Flags: W
HStem: -200 27<390 409> -68 26<383 401> -13 48<392 414> 646 48<372 406>
VStem: 44 118<311 361> 447 48<-121 -113>
DStem: 365 0 396 0 340 -78 383 -43
Fore
396 0 m 1
 383 -43 l 1
 388 -42 393 -42 395 -42 c 0
 401 -41 405 -41 407 -41 c 0
 461 -41 495 -69 495 -115 c 0
 495 -166 458 -200 403 -200 c 0
 351 -200 306 -174 306 -144 c 0
 306 -130 317 -119 331 -119 c 0
 347 -119 355 -125 362 -143 c 0
 372 -166 381 -173 401 -173 c 0
 427 -173 447 -150 447 -119 c 0
 447 -86 426 -68 387 -68 c 0
 374 -68 361 -71 340 -78 c 1
 365 0 l 1
 396 0 l 1
633 672 m 1
 681 431 l 1
 649 431 l 1
 618 487 606 508 587 536 c 0
 540 604 466 646 392 646 c 0
 260 646 162 515 162 338 c 0
 162 248 188 167 235 116 c 0
 278 68 350 35 412 35 c 0
 464 35 529 58 577 94 c 0
 610 118 630 140 659 183 c 1
 702 159 l 1
 628 44 526 -13 397 -13 c 0
 195 -13 44 137 44 337 c 0
 44 431 77 519 138 584 c 0
 199 650 293 694 373 694 c 0
 459 694 520 675 579 630 c 1
 600 672 l 1
 633 672 l 1
EndSplineSet
KernsSLIF: 65 -7 0 0
Ligature: 0 0 'liga' C uni0327
EndChar
StartChar: Cacute
Encoding: 265 262 159
Width: 740
Flags: W
HStem: -13 48<392 414> 646 48<372 399>
VStem: 44 118<322 356>
Fore
353 753 m 1
 348 767 l 1
 443 835 l 2
 472 857 499 869 519 869 c 0
 539 869 554 853 554 832 c 0
 554 806 535 791 492 782 c 2
 353 753 l 1
633 672 m 1
 681 431 l 1
 649 431 l 1
 618 487 606 508 587 536 c 0
 540 604 466 646 392 646 c 0
 260 646 162 515 162 338 c 0
 162 248 188 167 235 116 c 0
 278 68 350 35 412 35 c 0
 464 35 529 58 577 94 c 0
 610 118 630 140 659 183 c 1
 702 159 l 1
 628 44 526 -13 397 -13 c 0
 195 -13 44 137 44 337 c 0
 44 431 77 519 138 584 c 0
 199 650 293 694 373 694 c 0
 459 694 520 675 579 630 c 1
 600 672 l 1
 633 672 l 1
EndSplineSet
Ligature: 0 0 'liga' C acutecomb
EndChar
StartChar: Ccaron
Encoding: 266 268 160
Width: 740
Flags: W
HStem: -13 48<392 414> 646 48<372 399>
VStem: 44 118<322 356>
Fore
389 751 m 1
 247 844 l 1
 260 869 l 1
 389 823 l 1
 517 869 l 1
 531 844 l 1
 389 751 l 1
633 672 m 1
 681 431 l 1
 649 431 l 1
 618 487 606 508 587 536 c 0
 540 604 466 646 392 646 c 0
 260 646 162 515 162 338 c 0
 162 248 188 167 235 116 c 0
 278 68 350 35 412 35 c 0
 464 35 529 58 577 94 c 0
 610 118 630 140 659 183 c 1
 702 159 l 1
 628 44 526 -13 397 -13 c 0
 195 -13 44 137 44 337 c 0
 44 431 77 519 138 584 c 0
 199 650 293 694 373 694 c 0
 459 694 520 675 579 630 c 1
 600 672 l 1
 633 672 l 1
EndSplineSet
Ligature: 0 0 'liga' C uni030C
EndChar
StartChar: Dcaron
Encoding: 267 270 161
Width: 800
Flags: W
HStem: 0 31<31 39.3333> 0 41<318 368> 640 41<31 368> 650 31<31 39.3333>
VStem: 121 100<111 561> 634 118<319 353>
Fore
399 751 m 1x0c
 257 844 l 1
 270 869 l 1
 399 823 l 1
 527 869 l 1
 541 844 l 1
 399 751 l 1x0c
121 144 m 2
 121 537 l 2
 121 619 108 640 56 647 c 2
 31 650 l 1x9c
 31 681 l 1
 336 681 l 2
 487 681 583 652 652 587 c 0
 713 529 752 430 752 335 c 0
 752 237 711 141 644 83 c 0
 574 22 491 0 336 0 c 2x6c
 31 0 l 1
 31 31 l 1x8c
 56 34 l 2
 108 41 121 62 121 144 c 2
221 548 m 2
 221 129 l 2
 221 89 224 73 235 63 c 0
 249 50 290 41 339 41 c 0
 440 41 521 74 570 135 c 0
 611 186 634 262 634 342 c 0
 634 416 614 484 579 534 c 0
 529 605 449 640 340 640 c 0x6c
 289 640 245 630 233 615 c 0
 224 605 221 587 221 548 c 2
EndSplineSet
Ligature: 0 0 'liga' D uni030C
EndChar
StartChar: Edieresis
Encoding: 268 203 162
Width: 720
Flags: W
HStem: 0 31<31 39.3333> 0 43<318 614> 342 43<221 304> 638 43<31 368> 650 31<31 39.3333> 753 118<270 279 430 448>
VStem: 121 100<111 342 144 561> 217 118<801.343 817> 380 118<801.343 817>
Fore
277 871 m 0x2580
 308 871 335 844 335 812 c 0
 335 780 308 753 276 753 c 0
 244 753 217 780 217 812 c 0
 217 845 244 871 277 871 c 0x2580
440 871 m 0
 471 871 498 844 498 812 c 0
 498 780 471 753 439 753 c 0
 407 753 380 780 380 812 c 0
 380 845 407 871 440 871 c 0
602 681 m 1x2e80
 671 501 l 1
 639 488 l 1
 547 600 471 638 335 638 c 0x3580
 247 638 221 619 221 555 c 2
 221 385 l 1
 297 385 l 2
 382 385 404 408 418 512 c 1
 452 512 l 1
 452 213 l 1
 418 213 l 1
 408 307 374 342 295 342 c 2
 221 342 l 1
 221 131 l 2
 221 99 225 83 234 71 c 0
 250 52 284 43 334 43 c 0
 483 43 565 87 674 227 c 1
 705 213 l 1
 614 0 l 1x7680
 31 0 l 1
 31 31 l 1
 56 34 l 2
 108 41 121 62 121 144 c 2
 121 537 l 2
 121 619 108 640 56 647 c 2
 31 650 l 1xae80
 31 681 l 1x3680
 602 681 l 1x2e80
EndSplineSet
Ligature: 0 0 'liga' E uni0308
EndChar
StartChar: Eacute
Encoding: 269 201 163
Width: 720
Flags: W
HStem: 0 31<31 39.3333> 0 43<308 614> 342 43<221 312> 638 43<31 368> 650 31<31 39.3333>
VStem: 121 100<111 342 144 561>
Fore
310 753 m 1x24
 305 767 l 1
 400 835 l 2
 429 857 456 869 476 869 c 0
 496 869 511 853 511 832 c 0
 511 806 492 791 449 782 c 2
 310 753 l 1x24
602 681 m 1x2c
 671 501 l 1
 639 488 l 1
 547 600 471 638 335 638 c 0
 247 638 221 619 221 555 c 2
 221 385 l 1
 297 385 l 2
 382 385 404 408 418 512 c 1
 452 512 l 1
 452 213 l 1
 418 213 l 1
 408 307 374 342 295 342 c 2
 221 342 l 1
 221 131 l 2
 221 99 225 83 234 71 c 0
 250 52 284 43 334 43 c 0
 483 43 565 87 674 227 c 1
 705 213 l 1
 614 0 l 1x74
 31 0 l 1
 31 31 l 1
 56 34 l 2
 108 41 121 62 121 144 c 2
 121 537 l 2
 121 619 108 640 56 647 c 2
 31 650 l 1xac
 31 681 l 1x34
 602 681 l 1x2c
EndSplineSet
Ligature: 0 0 'liga' E acutecomb
EndChar
StartChar: Egrave
Encoding: 270 200 164
Width: 720
Flags: W
HStem: 0 31<31 39.3333> 0 43<318 614> 342 43<221 304> 638 43<31 368> 650 31<31 39.3333>
VStem: 121 100<111 342 144 561>
Fore
429 753 m 1x24
 290 782 l 2
 247 791 228 806 228 832 c 0
 228 853 243 869 263 869 c 0
 282 869 310 857 339 835 c 2
 434 767 l 1
 429 753 l 1x24
602 681 m 1x2c
 671 501 l 1
 639 488 l 1
 547 600 471 638 335 638 c 0
 247 638 221 619 221 555 c 2
 221 385 l 1
 297 385 l 2
 382 385 404 408 418 512 c 1
 452 512 l 1
 452 213 l 1
 418 213 l 1
 408 307 374 342 295 342 c 2
 221 342 l 1
 221 131 l 2
 221 99 225 83 234 71 c 0
 250 52 284 43 334 43 c 0
 483 43 565 87 674 227 c 1
 705 213 l 1
 614 0 l 1x74
 31 0 l 1
 31 31 l 1
 56 34 l 2
 108 41 121 62 121 144 c 2
 121 537 l 2
 121 619 108 640 56 647 c 2
 31 650 l 1xac
 31 681 l 1x34
 602 681 l 1x2c
EndSplineSet
Ligature: 0 0 'liga' E gravecomb
EndChar
StartChar: Ecircumflex
Encoding: 271 202 165
Width: 720
Flags: W
HStem: 0 31<31 39.3333> 0 43<318 614> 342 43<221 304> 638 43<31 368> 650 31<31 39.3333>
VStem: 121 100<111 342 144 561>
Fore
361 871 m 1x24
 503 778 l 1
 489 753 l 1
 361 798 l 1
 232 753 l 1
 219 778 l 1
 361 871 l 1x24
602 681 m 1x2c
 671 501 l 1
 639 488 l 1
 547 600 471 638 335 638 c 0
 247 638 221 619 221 555 c 2
 221 385 l 1
 297 385 l 2
 382 385 404 408 418 512 c 1
 452 512 l 1
 452 213 l 1
 418 213 l 1
 408 307 374 342 295 342 c 2
 221 342 l 1
 221 131 l 2
 221 99 225 83 234 71 c 0
 250 52 284 43 334 43 c 0
 483 43 565 87 674 227 c 1
 705 213 l 1
 614 0 l 1x74
 31 0 l 1
 31 31 l 1
 56 34 l 2
 108 41 121 62 121 144 c 2
 121 537 l 2
 121 619 108 640 56 647 c 2
 31 650 l 1xac
 31 681 l 1x34
 602 681 l 1x2c
EndSplineSet
Ligature: 0 0 'liga' E uni0302
EndChar
StartChar: Ecaron
Encoding: 272 282 166
Width: 720
Flags: W
HStem: 0 31<31 39.3333> 0 43<318 614> 342 43<221 304> 638 43<31 368> 650 31<31 39.3333>
VStem: 121 100<111 342 144 561>
Fore
360 751 m 1x24
 218 844 l 1
 231 869 l 1
 360 823 l 1
 488 869 l 1
 502 844 l 1
 360 751 l 1x24
602 681 m 1x2c
 671 501 l 1
 639 488 l 1
 547 600 471 638 335 638 c 0
 247 638 221 619 221 555 c 2
 221 385 l 1
 297 385 l 2
 382 385 404 408 418 512 c 1
 452 512 l 1
 452 213 l 1
 418 213 l 1
 408 307 374 342 295 342 c 2
 221 342 l 1
 221 131 l 2
 221 99 225 83 234 71 c 0
 250 52 284 43 334 43 c 0
 483 43 565 87 674 227 c 1
 705 213 l 1
 614 0 l 1x74
 31 0 l 1
 31 31 l 1
 56 34 l 2
 108 41 121 62 121 144 c 2
 121 537 l 2
 121 619 108 640 56 647 c 2
 31 650 l 1xac
 31 681 l 1x34
 602 681 l 1x2c
EndSplineSet
Ligature: 0 0 'liga' E uni030C
EndChar
StartChar: Edotaccent
Encoding: 273 278 167
Width: 720
Flags: W
HStem: 0 31<31 39.3333> 0 43<318 614> 342 43<221 304> 638 43<31 368> 650 31<31 39.3333> 752 118<350 368>
VStem: 121 100<111 342 144 561> 298 118<800.343 817>
Fore
358 870 m 0x27
 389 870 416 843 416 811 c 0
 416 779 389 752 357 752 c 0
 325 752 298 779 298 811 c 0
 298 844 325 870 358 870 c 0x27
602 681 m 1x2f
 671 501 l 1
 639 488 l 1
 547 600 471 638 335 638 c 0
 247 638 221 619 221 555 c 2
 221 385 l 1
 297 385 l 2
 382 385 404 408 418 512 c 1
 452 512 l 1
 452 213 l 1
 418 213 l 1
 408 307 374 342 295 342 c 2
 221 342 l 1
 221 131 l 2
 221 99 225 83 234 71 c 0
 250 52 284 43 334 43 c 0
 483 43 565 87 674 227 c 1
 705 213 l 1
 614 0 l 1x77
 31 0 l 1
 31 31 l 1
 56 34 l 2
 108 41 121 62 121 144 c 2
 121 537 l 2
 121 619 108 640 56 647 c 2
 31 650 l 1xaf
 31 681 l 1x37
 602 681 l 1x2f
EndSplineSet
Ligature: 0 0 'liga' E uni0307
EndChar
StartChar: Eogonek
Encoding: 274 280 168
Width: 720
Flags: W
HStem: -152 40<593 621> 0 0<576 614> 0 31<31 39.3333> 0 43<318 614> 342 43<221 304> 638 43<31 368> 650 31<31 39.3333>
VStem: 121 100<119 342 144 569> 527 48<-84 -67>
Fore
577 0 m 1xc980
 614 0 l 1
 590 -19 575 -44 575 -67 c 0
 575 -93 595 -112 621 -112 c 0
 640 -112 659 -102 688 -75 c 1
 704 -96 l 1
 655 -139 629 -152 593 -152 c 0
 555 -152 527 -123 527 -84 c 0
 527 -49 542 -24 577 0 c 1xc980
602 681 m 1xcb80
 671 501 l 1
 639 488 l 1
 547 600 471 638 335 638 c 0xcd80
 247 638 221 619 221 555 c 2
 221 385 l 1
 297 385 l 2
 382 385 404 408 418 512 c 1
 452 512 l 1
 452 213 l 1
 418 213 l 1
 408 307 374 342 295 342 c 2
 221 342 l 1
 221 131 l 2
 221 99 225 83 234 71 c 0
 250 52 284 43 334 43 c 0xc980
 483 43 565 87 674 227 c 1
 705 213 l 1
 614 0 l 1
 31 0 l 1
 31 31 l 1xc980
 56 34 l 2
 108 41 121 62 121 144 c 2
 121 537 l 2
 121 619 108 640 56 647 c 2
 31 650 l 1xcb80
 31 681 l 1xcd80
 602 681 l 1xcb80
EndSplineSet
Ligature: 0 0 'liga' E uni0328
EndChar
StartChar: Gbreve
Encoding: 275 286 169
Width: 800
Flags: W
HStem: -13 48<380 413> 294 30<505 513.111> 646 48<377 405> 752 67<383 413>
VStem: 44 118<322 356> 603 92<180 202>
Fore
238 853 m 1
 261 871 l 1
 303 837 351 819 403 819 c 0
 453 819 509 840 543 871 c 1
 566 853 l 1
 535 792 470 752 401 752 c 0
 327 752 268 789 238 853 c 1
625 681 m 1
 686 469 l 1
 648 458 l 1
 602 523 576 554 543 582 c 0
 491 625 439 646 385 646 c 0
 251 646 162 522 162 336 c 0
 162 156 259 35 403 35 c 0
 469 35 537 63 571 103 c 1
 591 129 603 164 603 200 c 0
 603 261 578 285 505 294 c 1
 505 324 l 1
 778 324 l 1
 778 293 l 1
 760 290 l 2
 726 284 714 278 707 262 c 0
 699 243 695 218 695 180 c 2
 695 0 l 1
 648 0 l 1
 616 69 l 1
 541 11 475 -13 389 -13 c 0
 192 -13 44 140 44 343 c 0
 44 438 76 522 135 587 c 1
 198 654 289 694 379 694 c 0
 448 694 516 673 574 633 c 1
 594 681 l 1
 625 681 l 1
EndSplineSet
Ligature: 0 0 'liga' G uni0306
EndChar
StartChar: Idieresis
Encoding: 276 207 170
Width: 340
Flags: W
HStem: 0 21G<31 301> 661 20G<31 301> 753 118<85 93 248 253>
VStem: 116 100<144 561>
Fore
88 871 m 0
 119 871 146 844 146 812 c 0
 146 780 119 753 87 753 c 0
 55 753 28 780 28 812 c 0
 28 845 55 871 88 871 c 0
251 871 m 0
 282 871 309 844 309 812 c 0
 309 780 282 753 250 753 c 0
 218 753 191 780 191 812 c 0
 191 845 218 871 251 871 c 0
216 537 m 2
 216 144 l 2
 216 61 227 43 281 34 c 2
 301 31 l 1
 301 0 l 1
 31 0 l 1
 31 31 l 1
 51 34 l 2
 105 43 116 61 116 144 c 2
 116 537 l 2
 116 620 105 638 51 647 c 2
 31 650 l 1
 31 681 l 1
 301 681 l 1
 301 650 l 1
 281 647 l 2
 227 638 216 620 216 537 c 2
EndSplineSet
Ligature: 0 0 'liga' I uni0308
EndChar
StartChar: Iacute
Encoding: 277 205 171
Width: 340
Flags: W
HStem: 0 21G<31 301> 661 20G<31 301>
VStem: 116 100<144 561>
Fore
73 753 m 1
 68 767 l 1
 163 835 l 2
 192 857 219 869 239 869 c 0
 259 869 274 853 274 832 c 0
 274 806 255 791 212 782 c 2
 73 753 l 1
216 537 m 2
 216 144 l 2
 216 61 227 43 281 34 c 2
 301 31 l 1
 301 0 l 1
 31 0 l 1
 31 31 l 1
 51 34 l 2
 105 43 116 61 116 144 c 2
 116 537 l 2
 116 620 105 638 51 647 c 2
 31 650 l 1
 31 681 l 1
 301 681 l 1
 301 650 l 1
 281 647 l 2
 227 638 216 620 216 537 c 2
EndSplineSet
Ligature: 0 0 'liga' I acutecomb
EndChar
StartChar: Igrave
Encoding: 278 204 172
Width: 340
Flags: W
HStem: 0 21G<31 301> 661 20G<31 301>
VStem: 116 100<144 561>
Fore
234 753 m 1
 95 782 l 2
 52 791 33 806 33 832 c 0
 33 853 48 869 68 869 c 0
 87 869 115 857 144 835 c 2
 239 767 l 1
 234 753 l 1
216 537 m 2
 216 144 l 2
 216 61 227 43 281 34 c 2
 301 31 l 1
 301 0 l 1
 31 0 l 1
 31 31 l 1
 51 34 l 2
 105 43 116 61 116 144 c 2
 116 537 l 2
 116 620 105 638 51 647 c 2
 31 650 l 1
 31 681 l 1
 301 681 l 1
 301 650 l 1
 281 647 l 2
 227 638 216 620 216 537 c 2
EndSplineSet
Ligature: 0 0 'liga' I gravecomb
EndChar
StartChar: Icircumflex
Encoding: 279 206 173
Width: 340
Flags: W
HStem: 0 21G<31 301> 661 20G<31 301>
VStem: 116 100<144 561>
Fore
170 871 m 1
 312 778 l 1
 298 753 l 1
 170 798 l 1
 41 753 l 1
 28 778 l 1
 170 871 l 1
216 537 m 2
 216 144 l 2
 216 61 227 43 281 34 c 2
 301 31 l 1
 301 0 l 1
 31 0 l 1
 31 31 l 1
 51 34 l 2
 105 43 116 61 116 144 c 2
 116 537 l 2
 116 620 105 638 51 647 c 2
 31 650 l 1
 31 681 l 1
 301 681 l 1
 301 650 l 1
 281 647 l 2
 227 638 216 620 216 537 c 2
EndSplineSet
Ligature: 0 0 'liga' I uni0302
EndChar
StartChar: Idotaccent
Encoding: 280 304 174
Width: 340
Flags: W
HStem: 0 21G<31 301> 661 20G<31 301> 752 118<158 176>
VStem: 116 100<144 561>
Fore
168 870 m 0
 199 870 226 843 226 811 c 0
 226 779 199 752 167 752 c 0
 135 752 108 779 108 811 c 0
 108 844 135 870 168 870 c 0
216 537 m 2
 216 144 l 2
 216 61 227 43 281 34 c 2
 301 31 l 1
 301 0 l 1
 31 0 l 1
 31 31 l 1
 51 34 l 2
 105 43 116 61 116 144 c 2
 116 537 l 2
 116 620 105 638 51 647 c 2
 31 650 l 1
 31 681 l 1
 301 681 l 1
 301 650 l 1
 281 647 l 2
 227 638 216 620 216 537 c 2
EndSplineSet
Ligature: 0 0 'liga' I uni0307
EndChar
StartChar: Lacute
Encoding: 281 313 175
Width: 600
Flags: W
HStem: 0 31<31 39.3333> 0 38<291 549> 650 31<31 39.3333 307.333 318>
VStem: 121 100<111 561>
Fore
203 753 m 1x30
 198 767 l 1
 293 835 l 2
 322 857 349 869 369 869 c 0
 389 869 404 853 404 832 c 0
 404 806 385 791 342 782 c 2
 203 753 l 1x30
629 214 m 1
 549 0 l 1x70
 31 0 l 1
 31 31 l 1xb0
 56 34 l 2
 108 41 121 62 121 144 c 2
 121 537 l 2
 121 619 108 640 56 647 c 2
 31 650 l 1
 31 681 l 1
 318 681 l 1
 318 650 l 1
 286 647 l 2
 235 642 221 618 221 537 c 2
 221 123 l 2
 221 93 225 73 233 63 c 0
 245 48 274 38 307 38 c 0x70
 368 38 434 62 491 105 c 0
 530 134 555 162 601 227 c 1
 629 214 l 1
EndSplineSet
Ligature: 0 0 'liga' L acutecomb
EndChar
StartChar: Lcaron
Encoding: 282 317 176
Width: 600
Flags: W
HStem: 0 31<31 39.3333> 0 38<288.751 320> 576 118<506 516> 650 31<31 39.3333 307.333 318>
VStem: 121 100<111 561> 454 132<612 633>
Fore
488 476 m 1x2c
 477 498 l 1
 519 525 536 551 539 589 c 1
 525 579 518 576 508 576 c 0
 476 576 454 600 454 633 c 0
 454 666 482 694 516 694 c 0
 555 694 586 657 586 612 c 0
 586 555 549 504 488 476 c 1x2c
629 214 m 1
 549 0 l 1x5c
 31 0 l 1
 31 31 l 1x8c
 56 34 l 2
 108 41 121 62 121 144 c 2
 121 537 l 2
 121 619 108 640 56 647 c 2
 31 650 l 1
 31 681 l 1
 318 681 l 1
 318 650 l 1
 286 647 l 2
 235 642 221 618 221 537 c 2
 221 123 l 2
 221 93 225 73 233 63 c 0
 245 48 274 38 307 38 c 0x5c
 368 38 434 62 491 105 c 0
 530 134 555 162 601 227 c 1
 629 214 l 1
EndSplineSet
Ligature: 0 0 'liga' L uni030C
EndChar
StartChar: Nacute
Encoding: 283 323 177
Width: 740
Flags: W
HStem: 0 31<26 34.3333 261.333 273> 650 31<26 34.3333 475 486.667 713.667 722>
VStem: 116 57<144 561> 575 57<142 561>
DStem: 173 606 249 681 544 0 575 142
Fore
333 753 m 1
 328 767 l 1
 423 835 l 2
 452 857 479 869 499 869 c 0
 519 869 534 853 534 832 c 0
 534 806 515 791 472 782 c 2
 333 753 l 1
173 606 m 1
 173 144 l 2
 173 63 187 39 238 34 c 2
 273 31 l 1
 273 0 l 1
 26 0 l 1
 26 31 l 1
 51 34 l 2
 103 41 116 62 116 144 c 2
 116 537 l 2
 116 619 103 640 51 647 c 2
 26 650 l 1
 26 681 l 1
 249 681 l 1
 575 142 l 1
 575 537 l 2
 575 618 561 642 510 647 c 2
 475 650 l 1
 475 681 l 1
 722 681 l 1
 722 650 l 1
 697 647 l 2
 645 640 632 619 632 537 c 2
 632 0 l 1
 544 0 l 1
 173 606 l 1
EndSplineSet
Ligature: 0 0 'liga' N acutecomb
EndChar
StartChar: Ncaron
Encoding: 284 327 178
Width: 740
Flags: W
HStem: 0 31<26 34.3333 261.333 273> 650 31<26 34.3333 475 486.667 713.667 722>
VStem: 116 57<144 561> 575 57<142 561>
DStem: 173 606 249 681 544 0 575 142
Fore
370 751 m 1
 228 844 l 1
 241 869 l 1
 370 823 l 1
 498 869 l 1
 512 844 l 1
 370 751 l 1
173 606 m 1
 173 144 l 2
 173 63 187 39 238 34 c 2
 273 31 l 1
 273 0 l 1
 26 0 l 1
 26 31 l 1
 51 34 l 2
 103 41 116 62 116 144 c 2
 116 537 l 2
 116 619 103 640 51 647 c 2
 26 650 l 1
 26 681 l 1
 249 681 l 1
 575 142 l 1
 575 537 l 2
 575 618 561 642 510 647 c 2
 475 650 l 1
 475 681 l 1
 722 681 l 1
 722 650 l 1
 697 647 l 2
 645 640 632 619 632 537 c 2
 632 0 l 1
 544 0 l 1
 173 606 l 1
EndSplineSet
Ligature: 0 0 'liga' N uni030C
EndChar
StartChar: Ntilde
Encoding: 285 209 179
Width: 740
Flags: W
HStem: 0 31<26 34.3333 261.333 273> 650 31<26 34.3333 475 486.667 713.667 722> 766 59<433 450> 794 58<286 304>
VStem: 116 57<144 561> 575 57<142 561>
DStem: 173 606 249 681 544 0 575 142
Fore
496 847 m 1xec
 525 838 l 1
 510 788 483 766 435 766 c 0xec
 411 766 389 770 340 784 c 0
 309 792 300 794 286 794 c 0
 271 794 260 789 247 774 c 1
 218 784 l 1
 231 825 265 852 304 852 c 0xdc
 327 852 348 848 399 834 c 0
 423 827 435 825 448 825 c 0
 468 825 485 833 496 847 c 1xec
173 606 m 1
 173 144 l 2
 173 63 187 39 238 34 c 2
 273 31 l 1
 273 0 l 1
 26 0 l 1
 26 31 l 1
 51 34 l 2
 103 41 116 62 116 144 c 2
 116 537 l 2
 116 619 103 640 51 647 c 2
 26 650 l 1
 26 681 l 1
 249 681 l 1
 575 142 l 1
 575 537 l 2
 575 618 561 642 510 647 c 2
 475 650 l 1
 475 681 l 1
 722 681 l 1
 722 650 l 1
 697 647 l 2
 645 640 632 619 632 537 c 2
 632 0 l 1
 544 0 l 1
 173 606 l 1
EndSplineSet
Ligature: 0 0 'liga' N tildecomb
EndChar
StartChar: Odieresis
Encoding: 286 214 180
Width: 800
Flags: W
HStem: -13 48<378 413> 646 48<379 425> 753 118<315 324 475 493>
VStem: 44 118<322 356> 262 118<812 820> 425 118<812 820> 640 118<322 356>
Fore
322 871 m 0
 353 871 380 844 380 812 c 0
 380 780 353 753 321 753 c 0
 289 753 262 780 262 812 c 0
 262 845 289 871 322 871 c 0
485 871 m 0
 516 871 543 844 543 812 c 0
 543 780 516 753 484 753 c 0
 452 753 425 780 425 812 c 0
 425 845 452 871 485 871 c 0
404 694 m 0
 609 694 758 544 758 338 c 0
 758 254 733 178 684 118 c 0
 618 37 510 -13 400 -13 c 0
 198 -13 44 141 44 343 c 0
 44 539 203 694 404 694 c 0
402 646 m 0
 257 646 162 526 162 342 c 0
 162 155 255 35 401 35 c 0
 546 35 640 152 640 332 c 0
 640 525 548 646 402 646 c 0
EndSplineSet
KernsSLIF: 89 -36 0 0 88 -38 0 0 87 -29 0 0 86 -36 0 0 84 19 0 0 65 -35 0 0
Ligature: 0 0 'liga' O uni0308
EndChar
StartChar: Oacute
Encoding: 287 211 181
Width: 800
Flags: W
HStem: -13 48<379 413> 646 48<379 413>
VStem: 44 118<322 356> 640 118<322 356>
Fore
342 753 m 1
 337 767 l 1
 432 835 l 2
 461 857 488 869 508 869 c 0
 528 869 543 853 543 832 c 0
 543 806 524 791 481 782 c 2
 342 753 l 1
404 694 m 0
 609 694 758 544 758 338 c 0
 758 254 733 178 684 118 c 0
 618 37 510 -13 400 -13 c 0
 198 -13 44 141 44 343 c 0
 44 539 203 694 404 694 c 0
402 646 m 0
 257 646 162 526 162 342 c 0
 162 155 255 35 401 35 c 0
 546 35 640 152 640 332 c 0
 640 525 548 646 402 646 c 0
EndSplineSet
KernsSLIF: 89 -36 0 0 87 -29 0 0 86 -36 0 0 84 19 0 0 65 -35 0 0
Ligature: 0 0 'liga' O acutecomb
EndChar
StartChar: Ograve
Encoding: 288 210 182
Width: 800
Flags: W
HStem: -13 48<379 413> 646 48<379 413>
VStem: 44 118<322 356> 640 118<322 356>
Fore
479 753 m 1
 340 782 l 2
 297 791 278 806 278 832 c 0
 278 853 293 869 313 869 c 0
 332 869 360 857 389 835 c 2
 484 767 l 1
 479 753 l 1
404 694 m 0
 609 694 758 544 758 338 c 0
 758 254 733 178 684 118 c 0
 618 37 510 -13 400 -13 c 0
 198 -13 44 141 44 343 c 0
 44 539 203 694 404 694 c 0
402 646 m 0
 257 646 162 526 162 342 c 0
 162 155 255 35 401 35 c 0
 546 35 640 152 640 332 c 0
 640 525 548 646 402 646 c 0
EndSplineSet
KernsSLIF: 89 -36 0 0 86 -36 0 0 84 19 0 0
Ligature: 0 0 'liga' O gravecomb
EndChar
StartChar: Ocircumflex
Encoding: 289 212 183
Width: 800
Flags: W
HStem: -13 48<379 413> 646 48<379 413>
VStem: 44 118<322 356> 640 118<322 356>
Fore
401 870 m 1
 543 777 l 1
 529 752 l 1
 401 797 l 1
 272 752 l 1
 259 777 l 1
 401 870 l 1
404 694 m 0
 609 694 758 544 758 338 c 0
 758 254 733 178 684 118 c 0
 618 37 510 -13 400 -13 c 0
 198 -13 44 141 44 343 c 0
 44 539 203 694 404 694 c 0
402 646 m 0
 257 646 162 526 162 342 c 0
 162 155 255 35 401 35 c 0
 546 35 640 152 640 332 c 0
 640 525 548 646 402 646 c 0
EndSplineSet
KernsSLIF: 89 -36 0 0 86 -36 0 0 84 19 0 0
Ligature: 0 0 'liga' O uni0302
EndChar
StartChar: Otilde
Encoding: 290 213 184
Width: 800
Flags: W
HStem: -13 48<379 413> 646 48<379 413> 766 59<469 486> 794 58<322 340>
VStem: 44 118<322 356> 640 118<322 356>
Fore
532 847 m 1xec
 561 838 l 1
 546 788 519 766 471 766 c 0xec
 447 766 425 770 376 784 c 0
 345 792 336 794 322 794 c 0
 307 794 296 789 283 774 c 1
 254 784 l 1
 267 825 301 852 340 852 c 0xdc
 363 852 384 848 435 834 c 0
 459 827 471 825 484 825 c 0
 504 825 521 833 532 847 c 1xec
404 694 m 0
 609 694 758 544 758 338 c 0
 758 254 733 178 684 118 c 0
 618 37 510 -13 400 -13 c 0
 198 -13 44 141 44 343 c 0
 44 539 203 694 404 694 c 0
402 646 m 0
 257 646 162 526 162 342 c 0
 162 155 255 35 401 35 c 0
 546 35 640 152 640 332 c 0
 640 525 548 646 402 646 c 0
EndSplineSet
KernsSLIF: 89 -36 0 0 86 -36 0 0 84 19 0 0
Ligature: 0 0 'liga' O tildecomb
EndChar
StartChar: Ohungarumlaut
Encoding: 291 336 185
Width: 800
Flags: W
HStem: -13 48<379 424> 646 48<379 424>
VStem: 44 118<322 356> 640 118<322 356>
Fore
294 728 m 1
 278 739 l 1
 313 829 l 2
 330 873 344 889 366 889 c 0
 381 889 391 878 391 860 c 0
 391 842 383 822 371 809 c 2
 294 728 l 1
424 728 m 1
 408 739 l 1
 443 829 l 1
 459 872 474 889 496 889 c 0
 512 889 521 878 521 859 c 0
 521 842 513 823 500 809 c 2
 424 728 l 1
404 694 m 0
 609 694 758 544 758 338 c 0
 758 254 733 178 684 118 c 0
 618 37 510 -13 400 -13 c 0
 198 -13 44 141 44 343 c 0
 44 539 203 694 404 694 c 0
402 646 m 0
 257 646 162 526 162 342 c 0
 162 155 255 35 401 35 c 0
 546 35 640 152 640 332 c 0
 640 525 548 646 402 646 c 0
EndSplineSet
Ligature: 0 0 'liga' O uni030B
EndChar
StartChar: Racute
Encoding: 292 340 186
Width: 720
Flags: W
HStem: 0 31<31 39.3333 310 322> 321 43<221 365> 640 41<31 400> 650 31<31 39.3333>
VStem: 121 100<144 321 144 581> 561 108<495 513>
DStem: 365 321 484 331 590 0 650 96
Fore
263 753 m 1xcc
 258 767 l 1
 353 835 l 2
 382 857 409 869 429 869 c 0
 449 869 464 853 464 832 c 0
 464 806 445 791 402 782 c 2
 263 753 l 1xcc
484 331 m 1
 650 96 l 1
 681 56 708 40 757 31 c 1
 757 0 l 1
 590 0 l 1
 365 321 l 1
 221 321 l 1
 221 144 l 2
 221 63 235 39 286 34 c 2
 322 31 l 1
 322 0 l 1
 31 0 l 1
 31 31 l 1
 56 34 l 2
 108 41 121 62 121 144 c 2
 121 537 l 2
 121 619 108 640 56 647 c 2
 31 650 l 1xdc
 31 681 l 1xec
 438 681 l 2xdc
 582 681 669 616 669 509 c 0
 669 457 647 410 607 378 c 0
 574 351 546 340 484 331 c 1
221 364 m 1
 389 364 l 2
 445 364 481 373 509 395 c 0
 542 421 561 461 561 505 c 0
 561 595 497 640 369 640 c 0xec
 318 640 267 633 247 624 c 0
 229 616 221 603 221 581 c 2
 221 364 l 1
EndSplineSet
Ligature: 0 0 'liga' R acutecomb
EndChar
StartChar: Rcaron
Encoding: 293 344 187
Width: 720
Flags: W
HStem: 0 31<31 39.3333 310 322> 321 43<221 365> 640 41<31 400> 650 31<31 39.3333>
VStem: 121 100<144 321 144 581> 561 108<495 513>
DStem: 365 321 484 331 590 0 650 96
Fore
360 751 m 1xcc
 218 844 l 1
 231 869 l 1
 360 823 l 1
 488 869 l 1
 502 844 l 1
 360 751 l 1xcc
484 331 m 1
 650 96 l 1
 681 56 708 40 757 31 c 1
 757 0 l 1
 590 0 l 1
 365 321 l 1
 221 321 l 1
 221 144 l 2
 221 63 235 39 286 34 c 2
 322 31 l 1
 322 0 l 1
 31 0 l 1
 31 31 l 1
 56 34 l 2
 108 41 121 62 121 144 c 2
 121 537 l 2
 121 619 108 640 56 647 c 2
 31 650 l 1xdc
 31 681 l 1xec
 438 681 l 2xdc
 582 681 669 616 669 509 c 0
 669 457 647 410 607 378 c 0
 574 351 546 340 484 331 c 1
221 364 m 1
 389 364 l 2
 445 364 481 373 509 395 c 0
 542 421 561 461 561 505 c 0
 561 595 497 640 369 640 c 0xec
 318 640 267 633 247 624 c 0
 229 616 221 603 221 581 c 2
 221 364 l 1
EndSplineSet
Ligature: 0 0 'liga' R uni030C
EndChar
StartChar: Sacute
Encoding: 294 346 188
Width: 660
Flags: W
HStem: -13 48<331 365> 646 48<287 317>
VStem: 59 102<515 539> 532 102<183 202>
Fore
273 753 m 1
 268 767 l 1
 363 835 l 2
 392 857 419 869 439 869 c 0
 459 869 474 853 474 832 c 0
 474 806 455 791 412 782 c 2
 273 753 l 1
525 681 m 1
 586 500 l 1
 554 488 l 1
 484 595 404 646 308 646 c 0
 225 646 161 599 161 539 c 0
 161 485 200 454 297 430 c 2
 422 400 l 2
 530 374 580 347 610 299 c 0
 625 276 634 238 634 202 c 0
 634 82 512 -13 356 -13 c 0
 276 -13 210 7 149 50 c 1
 130 0 l 1
 93 0 l 1
 28 229 l 1
 65 241 l 1
 135 107 236 35 351 35 c 0
 454 35 532 99 532 184 c 0
 532 244 498 274 399 298 c 2
 265 332 l 2
 187 352 134 376 103 407 c 0
 77 434 59 476 59 515 c 0
 59 563 85 612 128 646 c 0
 169 678 222 694 288 694 c 0
 364 694 421 679 477 645 c 1
 489 681 l 1
 525 681 l 1
EndSplineSet
Ligature: 0 0 'liga' S acutecomb
EndChar
StartChar: Scaron
Encoding: 295 352 189
Width: 660
Flags: W
HStem: -13 48<331 365> 646 48<287 317>
VStem: 59 102<515 539> 532 102<183 202>
Fore
324 751 m 1
 182 844 l 1
 195 869 l 1
 324 823 l 1
 452 869 l 1
 466 844 l 1
 324 751 l 1
525 681 m 1
 586 500 l 1
 554 488 l 1
 484 595 404 646 308 646 c 0
 225 646 161 599 161 539 c 0
 161 485 200 454 297 430 c 2
 422 400 l 2
 530 374 580 347 610 299 c 0
 625 276 634 238 634 202 c 0
 634 82 512 -13 356 -13 c 0
 276 -13 210 7 149 50 c 1
 130 0 l 1
 93 0 l 1
 28 229 l 1
 65 241 l 1
 135 107 236 35 351 35 c 0
 454 35 532 99 532 184 c 0
 532 244 498 274 399 298 c 2
 265 332 l 2
 187 352 134 376 103 407 c 0
 77 434 59 476 59 515 c 0
 59 563 85 612 128 646 c 0
 169 678 222 694 288 694 c 0
 364 694 421 679 477 645 c 1
 489 681 l 1
 525 681 l 1
EndSplineSet
Ligature: 0 0 'liga' S uni030C
EndChar
StartChar: Scedilla
Encoding: 296 350 190
Width: 660
Flags: W
HStem: -200 27<331 353> -68 26<325 343> -13 48<334 365> 646 48<287 317>
VStem: 59 102<515 539> 389 48<-121 -113> 532 102<183 202>
DStem: 307 0 338 0 282 -78 325 -43
Fore
338 0 m 1
 325 -43 l 1
 330 -42 335 -42 337 -42 c 0
 343 -41 347 -41 349 -41 c 0
 403 -41 437 -69 437 -115 c 0
 437 -166 400 -200 345 -200 c 0
 293 -200 248 -174 248 -144 c 0
 248 -130 259 -119 273 -119 c 0
 289 -119 297 -125 304 -143 c 0
 314 -166 323 -173 343 -173 c 0
 369 -173 389 -150 389 -119 c 0
 389 -86 368 -68 329 -68 c 0
 316 -68 303 -71 282 -78 c 1
 307 0 l 1
 338 0 l 1
525 681 m 1
 586 500 l 1
 554 488 l 1
 484 595 404 646 308 646 c 0
 225 646 161 599 161 539 c 0
 161 485 200 454 297 430 c 2
 422 400 l 2
 530 374 580 347 610 299 c 0
 625 276 634 238 634 202 c 0
 634 82 512 -13 356 -13 c 0
 276 -13 210 7 149 50 c 1
 130 0 l 1
 93 0 l 1
 28 229 l 1
 65 241 l 1
 135 107 236 35 351 35 c 0
 454 35 532 99 532 184 c 0
 532 244 498 274 399 298 c 2
 265 332 l 2
 187 352 134 376 103 407 c 0
 77 434 59 476 59 515 c 0
 59 563 85 612 128 646 c 0
 169 678 222 694 288 694 c 0
 364 694 421 679 477 645 c 1
 489 681 l 1
 525 681 l 1
EndSplineSet
Ligature: 0 0 'liga' S uni0327
EndChar
StartChar: Tcaron
Encoding: 297 356 191
Width: 620
Flags: W
HStem: 0 31<156 169 451 464> 643 38<20 220 20 412>
VStem: 260 100<144 609>
Fore
309 751 m 1
 167 844 l 1
 180 869 l 1
 309 823 l 1
 437 869 l 1
 451 844 l 1
 309 751 l 1
600 681 m 1
 656 505 l 1
 621 493 l 1
 565 591 489 643 401 643 c 0
 368 643 360 634 360 599 c 2
 360 144 l 2
 360 63 375 38 425 34 c 2
 464 31 l 1
 464 0 l 1
 156 0 l 1
 156 31 l 1
 195 34 l 2
 245 38 260 63 260 144 c 2
 260 603 l 2
 260 633 249 643 216 643 c 0
 124 643 55 597 -4 493 c 1
 -37 505 l 1
 20 681 l 1
 600 681 l 1
EndSplineSet
Ligature: 0 0 'liga' T uni030C
EndChar
StartChar: Udieresis
Encoding: 298 220 192
Width: 780
Flags: W
HStem: -13 48<381 430> 650 31<25 33.3333 304.667 317 509 520 745.667 754> 752 118<315 330 485 490>
VStem: 115 100<202 564> 265 118<811 820> 428 118<811 820> 607 57<226 564>
Fore
325 870 m 0
 356 870 383 843 383 811 c 0
 383 779 356 752 324 752 c 0
 292 752 265 779 265 811 c 0
 265 844 292 870 325 870 c 0
488 870 m 0
 519 870 546 843 546 811 c 0
 546 779 519 752 487 752 c 0
 455 752 428 779 428 811 c 0
 428 844 455 870 488 870 c 0
664 537 m 2
 664 204 l 2
 664 137 652 97 622 63 c 0
 575 10 506 -13 392 -13 c 0
 309 -13 253 0 203 32 c 0
 138 73 115 118 115 202 c 2
 115 537 l 2
 115 619 102 640 50 647 c 2
 25 650 l 1
 25 681 l 1
 317 681 l 1
 317 650 l 1
 280 647 l 2
 230 643 215 618 215 537 c 2
 215 270 l 2
 215 179 221 141 239 109 c 0
 265 61 325 35 407 35 c 0
 481 35 539 55 570 91 c 0
 599 125 607 164 607 272 c 2
 607 537 l 2
 607 618 593 642 542 647 c 2
 509 650 l 1
 509 681 l 1
 754 681 l 1
 754 650 l 1
 729 647 l 2
 677 640 664 619 664 537 c 2
EndSplineSet
KernsSLIF: 114 -28 0 0 46 -36 0 0 112 -28 0 0 110 -28 0 0 109 -27 0 0 44 -35 0 0 98 27 0 0 65 -31 0 0
Ligature: 0 0 'liga' U uni0308
EndChar
StartChar: Uacute
Encoding: 299 218 193
Width: 780
Flags: W
HStem: -13 48<390 426> 650 31<25 33.3333 304.667 317 509 520 745.667 754>
VStem: 115 100<202 564> 607 57<226 564>
Fore
352 753 m 1
 347 767 l 1
 442 835 l 2
 471 857 498 869 518 869 c 0
 538 869 553 853 553 832 c 0
 553 806 534 791 491 782 c 2
 352 753 l 1
664 537 m 2
 664 204 l 2
 664 137 652 97 622 63 c 0
 575 10 506 -13 392 -13 c 0
 309 -13 253 0 203 32 c 0
 138 73 115 118 115 202 c 2
 115 537 l 2
 115 619 102 640 50 647 c 2
 25 650 l 1
 25 681 l 1
 317 681 l 1
 317 650 l 1
 280 647 l 2
 230 643 215 618 215 537 c 2
 215 270 l 2
 215 179 221 141 239 109 c 0
 265 61 325 35 407 35 c 0
 481 35 539 55 570 91 c 0
 599 125 607 164 607 272 c 2
 607 537 l 2
 607 618 593 642 542 647 c 2
 509 650 l 1
 509 681 l 1
 754 681 l 1
 754 650 l 1
 729 647 l 2
 677 640 664 619 664 537 c 2
EndSplineSet
KernsSLIF: 114 -28 0 0 46 -36 0 0 112 -28 0 0 110 -28 0 0 109 -27 0 0 44 -35 0 0 65 -31 0 0
Ligature: 0 0 'liga' U acutecomb
EndChar
StartChar: Ugrave
Encoding: 300 217 194
Width: 780
Flags: W
HStem: -13 48<379 426> 650 31<25 33.3333 304.667 317 509 520 745.667 754>
VStem: 115 100<202 564> 607 57<226 564>
Fore
470 753 m 1
 331 782 l 2
 288 791 269 806 269 832 c 0
 269 853 284 869 304 869 c 0
 323 869 351 857 380 835 c 2
 475 767 l 1
 470 753 l 1
664 537 m 2
 664 204 l 2
 664 137 652 97 622 63 c 0
 575 10 506 -13 392 -13 c 0
 309 -13 253 0 203 32 c 0
 138 73 115 118 115 202 c 2
 115 537 l 2
 115 619 102 640 50 647 c 2
 25 650 l 1
 25 681 l 1
 317 681 l 1
 317 650 l 1
 280 647 l 2
 230 643 215 618 215 537 c 2
 215 270 l 2
 215 179 221 141 239 109 c 0
 265 61 325 35 407 35 c 0
 481 35 539 55 570 91 c 0
 599 125 607 164 607 272 c 2
 607 537 l 2
 607 618 593 642 542 647 c 2
 509 650 l 1
 509 681 l 1
 754 681 l 1
 754 650 l 1
 729 647 l 2
 677 640 664 619 664 537 c 2
EndSplineSet
KernsSLIF: 65 -31 0 0
Ligature: 0 0 'liga' U gravecomb
EndChar
StartChar: Ucircumflex
Encoding: 301 219 195
Width: 780
Flags: W
HStem: -13 48<390 426> 650 31<25 33.3333 304.667 317 509 520 745.667 754>
VStem: 115 100<202 564> 607 57<226 564>
Fore
409 871 m 1
 551 778 l 1
 537 753 l 1
 409 798 l 1
 280 753 l 1
 267 778 l 1
 409 871 l 1
664 537 m 2
 664 204 l 2
 664 137 652 97 622 63 c 0
 575 10 506 -13 392 -13 c 0
 309 -13 253 0 203 32 c 0
 138 73 115 118 115 202 c 2
 115 537 l 2
 115 619 102 640 50 647 c 2
 25 650 l 1
 25 681 l 1
 317 681 l 1
 317 650 l 1
 280 647 l 2
 230 643 215 618 215 537 c 2
 215 270 l 2
 215 179 221 141 239 109 c 0
 265 61 325 35 407 35 c 0
 481 35 539 55 570 91 c 0
 599 125 607 164 607 272 c 2
 607 537 l 2
 607 618 593 642 542 647 c 2
 509 650 l 1
 509 681 l 1
 754 681 l 1
 754 650 l 1
 729 647 l 2
 677 640 664 619 664 537 c 2
EndSplineSet
KernsSLIF: 65 -31 0 0
Ligature: 0 0 'liga' U uni0302
EndChar
StartChar: Uring
Encoding: 302 366 196
Width: 780
Flags: W
HStem: -13 48<387 426> 650 31<25 33.3333 304.667 317 509 520 745.667 754> 736 37<378.388 394> 884 37<390 394>
VStem: 115 100<202 564> 297 37<829 836> 444 37<829 836> 607 57<226 564>
Fore
390 921 m 0
 440 921 481 879 481 829 c 0
 481 778 440 736 389 736 c 0
 338 736 297 778 297 829 c 0
 297 880 339 921 390 921 c 0
390 884 m 0
 359 884 334 860 334 829 c 0
 334 798 358 773 389 773 c 0
 419 773 444 798 444 829 c 0
 444 858 419 884 390 884 c 0
664 537 m 2
 664 204 l 2
 664 137 652 97 622 63 c 0
 575 10 506 -13 392 -13 c 0
 309 -13 253 0 203 32 c 0
 138 73 115 118 115 202 c 2
 115 537 l 2
 115 619 102 640 50 647 c 2
 25 650 l 1
 25 681 l 1
 317 681 l 1
 317 650 l 1
 280 647 l 2
 230 643 215 618 215 537 c 2
 215 270 l 2
 215 179 221 141 239 109 c 0
 265 61 325 35 407 35 c 0
 481 35 539 55 570 91 c 0
 599 125 607 164 607 272 c 2
 607 537 l 2
 607 618 593 642 542 647 c 2
 509 650 l 1
 509 681 l 1
 754 681 l 1
 754 650 l 1
 729 647 l 2
 677 640 664 619 664 537 c 2
EndSplineSet
Ligature: 0 0 'liga' U uni030A
EndChar
StartChar: Uhungarumlaut
Encoding: 303 368 197
Width: 780
Flags: W
HStem: -13 48<381 426> 650 31<25 33.3333 304.667 317 509 520 745.667 754>
VStem: 115 100<202 564> 607 57<226 564>
Fore
364 728 m 1
 348 739 l 1
 383 829 l 2
 400 873 414 889 436 889 c 0
 451 889 461 878 461 860 c 0
 461 842 453 822 441 809 c 2
 364 728 l 1
494 728 m 1
 478 739 l 1
 513 829 l 1
 529 872 544 889 566 889 c 0
 582 889 591 878 591 859 c 0
 591 842 583 823 570 809 c 2
 494 728 l 1
664 537 m 2
 664 204 l 2
 664 137 652 97 622 63 c 0
 575 10 506 -13 392 -13 c 0
 309 -13 253 0 203 32 c 0
 138 73 115 118 115 202 c 2
 115 537 l 2
 115 619 102 640 50 647 c 2
 25 650 l 1
 25 681 l 1
 317 681 l 1
 317 650 l 1
 280 647 l 2
 230 643 215 618 215 537 c 2
 215 270 l 2
 215 179 221 141 239 109 c 0
 265 61 325 35 407 35 c 0
 481 35 539 55 570 91 c 0
 599 125 607 164 607 272 c 2
 607 537 l 2
 607 618 593 642 542 647 c 2
 509 650 l 1
 509 681 l 1
 754 681 l 1
 754 650 l 1
 729 647 l 2
 677 640 664 619 664 537 c 2
EndSplineSet
Ligature: 0 0 'liga' U uni030B
EndChar
StartChar: Yacute
Encoding: 304 221 198
Width: 640
Flags: W
HStem: 0 31<149 162.667 447.333 461> 650 31<247.375 255>
VStem: 255 100<144 284>
DStem: 88 550 191 573 255 284 332 345 474 563 520 539 332 345 355 286
Fore
313 753 m 1
 308 767 l 1
 403 835 l 2
 432 857 459 869 479 869 c 0
 499 869 514 853 514 832 c 0
 514 806 495 791 452 782 c 2
 313 753 l 1
355 286 m 1
 355 144 l 2
 355 63 370 38 420 34 c 2
 461 31 l 1
 461 0 l 1
 149 0 l 1
 149 31 l 1
 190 34 l 2
 240 38 255 63 255 144 c 2
 255 284 l 1
 88 550 l 1
 44 622 26 637 -30 650 c 1
 -30 681 l 1
 255 681 l 1
 255 650 l 1
 194 642 176 632 176 609 c 0
 176 600 180 591 191 573 c 2
 332 345 l 1
 474 563 l 2
 484 578 490 594 490 606 c 0
 490 630 471 641 417 650 c 1
 417 681 l 1
 666 681 l 1
 666 650 l 1
 596 636 572 619 520 539 c 2
 355 286 l 1
EndSplineSet
Ligature: 0 0 'liga' Y acutecomb
EndChar
StartChar: Zacute
Encoding: 305 377 199
Width: 640
Flags: W
HStem: 0 43<233 584> 639 42<113 395>
DStem: 481 627 619 644 10 31 151 51
Fore
303 753 m 1
 298 767 l 1
 393 835 l 2
 422 857 449 869 469 869 c 0
 489 869 504 853 504 832 c 0
 504 806 485 791 442 782 c 2
 303 753 l 1
656 205 m 1
 584 0 l 1
 29 0 l 1
 10 31 l 1
 481 627 l 1
 436 636 405 639 361 639 c 0
 230 639 154 599 73 488 c 1
 40 500 l 1
 113 681 l 1
 608 681 l 1
 619 644 l 1
 151 51 l 1
 207 45 234 43 279 43 c 0
 468 43 565 92 625 218 c 1
 656 205 l 1
EndSplineSet
Ligature: 0 0 'liga' Z acutecomb
EndChar
StartChar: Zcaron
Encoding: 306 381 200
Width: 640
Flags: W
HStem: 0 43<233 584> 639 42<113 395>
DStem: 481 627 619 644 10 31 151 51
Fore
356 751 m 1
 214 844 l 1
 227 869 l 1
 356 823 l 1
 484 869 l 1
 498 844 l 1
 356 751 l 1
656 205 m 1
 584 0 l 1
 29 0 l 1
 10 31 l 1
 481 627 l 1
 436 636 405 639 361 639 c 0
 230 639 154 599 73 488 c 1
 40 500 l 1
 113 681 l 1
 608 681 l 1
 619 644 l 1
 151 51 l 1
 207 45 234 43 279 43 c 0
 468 43 565 92 625 218 c 1
 656 205 l 1
EndSplineSet
Ligature: 0 0 'liga' Z uni030C
EndChar
StartChar: Zdotaccent
Encoding: 307 379 201
Width: 640
Flags: W
HStem: 0 43<233 584> 639 42<113 395> 752 118<355 364>
VStem: 298 118<800.343 817>
DStem: 481 627 619 644 10 31 151 51
Fore
358 870 m 0
 389 870 416 843 416 811 c 0
 416 779 389 752 357 752 c 0
 325 752 298 779 298 811 c 0
 298 844 325 870 358 870 c 0
656 205 m 1
 584 0 l 1
 29 0 l 1
 10 31 l 1
 481 627 l 1
 436 636 405 639 361 639 c 0
 230 639 154 599 73 488 c 1
 40 500 l 1
 113 681 l 1
 608 681 l 1
 619 644 l 1
 151 51 l 1
 207 45 234 43 279 43 c 0
 468 43 565 92 625 218 c 1
 656 205 l 1
EndSplineSet
Ligature: 0 0 'liga' Z uni0307
EndChar
StartChar: Amacron
Encoding: 308 256 202
Width: 680
Flags: W
HStem: 0 31<223.8 231> 253 43<208 451> 661 20G<296 389> 776 50<197 493>
DStem: 296 681 319 596 124 240 208 296 296 681 193 253 124 240 161 167 319 596 389 681 433 296 601 145 451 253 389 681 501 124 601 145
Fore
493 826 m 1
 493 776 l 1
 197 776 l 1
 197 826 l 1
 493 826 l 1
389 681 m 1
 601 145 l 1
 637 52 649 41 714 31 c 1
 714 0 l 1
 433 0 l 1
 433 31 l 1
 468 36 482 39 491 46 c 0
 504 54 512 67 512 81 c 0
 512 89 507 107 501 124 c 1
 451 253 l 1
 193 253 l 1
 161 167 l 2
 149 136 142 108 142 93 c 0
 142 75 152 57 167 47 c 0
 178 40 195 36 231 31 c 1
 231 0 l 1
 -37 0 l 1
 -37 31 l 1
 -26 33 l 2
 41 46 57 69 124 240 c 2
 296 681 l 1
 389 681 l 1
208 296 m 1
 433 296 l 1
 319 596 l 1
 208 296 l 1
EndSplineSet
Ligature: 0 0 'liga' A uni0304
EndChar
StartChar: Tcommaaccent
Encoding: 309 354 203
Width: 620
Flags: W
HStem: -165 123<295 307> 0 31<156 169 451 464> 643 38<20 220 20 412>
VStem: 260 100<144 610>
Fore
269 -271 m 1
 258 -251 l 1
 300 -227 323 -197 332 -150 c 1
 316 -162 308 -165 295 -165 c 0
 266 -165 244 -140 244 -108 c 0
 244 -70 271 -42 307 -42 c 0
 347 -42 377 -79 377 -128 c 0
 377 -190 339 -240 269 -271 c 1
600 681 m 1
 656 505 l 1
 621 493 l 1
 565 591 489 643 401 643 c 0
 368 643 360 634 360 599 c 2
 360 144 l 2
 360 63 375 38 425 34 c 2
 464 31 l 1
 464 0 l 1
 156 0 l 1
 156 31 l 1
 195 34 l 2
 245 38 260 63 260 144 c 2
 260 603 l 2
 260 633 249 643 216 643 c 0
 124 643 55 597 -4 493 c 1
 -37 505 l 1
 20 681 l 1
 600 681 l 1
EndSplineSet
Ligature: 0 0 'liga' T uni0327
EndChar
StartChar: Ydieresis
Encoding: 310 376 204
Width: 640
Flags: W
HStem: 0 31<149 162.667 447.333 461> 650 31<247.375 255> 753 118<241 258 412 423>
VStem: 192 118<801.343 817> 255 100<144 284> 355 118<801.343 817>
DStem: 88 550 191 573 255 284 332 345 474 563 520 539 332 345 355 286
Fore
252 871 m 0xf4
 283 871 310 844 310 812 c 0
 310 780 283 753 251 753 c 0
 219 753 192 780 192 812 c 0
 192 845 219 871 252 871 c 0xf4
415 871 m 0
 446 871 473 844 473 812 c 0
 473 780 446 753 414 753 c 0
 382 753 355 780 355 812 c 0
 355 845 382 871 415 871 c 0
355 286 m 1
 355 144 l 2
 355 63 370 38 420 34 c 2
 461 31 l 1
 461 0 l 1
 149 0 l 1
 149 31 l 1
 190 34 l 2
 240 38 255 63 255 144 c 2
 255 284 l 1
 88 550 l 1
 44 622 26 637 -30 650 c 1
 -30 681 l 1
 255 681 l 1
 255 650 l 1xec
 194 642 176 632 176 609 c 0
 176 600 180 591 191 573 c 2
 332 345 l 1
 474 563 l 2
 484 578 490 594 490 606 c 0
 490 630 471 641 417 650 c 1
 417 681 l 1
 666 681 l 1
 666 650 l 1
 596 636 572 619 520 539 c 2
 355 286 l 1
EndSplineSet
Ligature: 0 0 'liga' Y uni0308
EndChar
StartChar: Emacron
Encoding: 311 274 205
Width: 720
Flags: W
HStem: 0 31<31 39.3333> 0 43<318 614> 342 43<221 304> 638 43<31 368> 650 31<31 39.3333> 776 50<209 505>
VStem: 121 100<111 342 144 561>
Fore
505 826 m 1x26
 505 776 l 1
 209 776 l 1
 209 826 l 1
 505 826 l 1x26
602 681 m 1x2e
 671 501 l 1
 639 488 l 1
 547 600 471 638 335 638 c 0
 247 638 221 619 221 555 c 2
 221 385 l 1
 297 385 l 2
 382 385 404 408 418 512 c 1
 452 512 l 1
 452 213 l 1
 418 213 l 1
 408 307 374 342 295 342 c 2
 221 342 l 1
 221 131 l 2
 221 99 225 83 234 71 c 0
 250 52 284 43 334 43 c 0
 483 43 565 87 674 227 c 1
 705 213 l 1
 614 0 l 1x76
 31 0 l 1
 31 31 l 1
 56 34 l 2
 108 41 121 62 121 144 c 2
 121 537 l 2
 121 619 108 640 56 647 c 2
 31 650 l 1xae
 31 681 l 1x36
 602 681 l 1x2e
EndSplineSet
Ligature: 0 0 'liga' E uni0304
EndChar
StartChar: Imacron
Encoding: 312 298 206
Width: 340
Flags: W
HStem: 0 21G<31 301> 661 20G<31 301> 776 50<18 314>
VStem: 116 100<144 561>
Fore
314 826 m 1
 314 776 l 1
 18 776 l 1
 18 826 l 1
 314 826 l 1
216 537 m 2
 216 144 l 2
 216 61 227 43 281 34 c 2
 301 31 l 1
 301 0 l 1
 31 0 l 1
 31 31 l 1
 51 34 l 2
 105 43 116 61 116 144 c 2
 116 537 l 2
 116 620 105 638 51 647 c 2
 31 650 l 1
 31 681 l 1
 301 681 l 1
 301 650 l 1
 281 647 l 2
 227 638 216 620 216 537 c 2
EndSplineSet
Ligature: 0 0 'liga' I uni0304
EndChar
StartChar: Iogonek
Encoding: 313 302 207
Width: 340
Flags: W
HStem: -152 40<281 309> 0 0<264 301> 661 20G<31 301>
VStem: 116 100<144 569> 215 48<-84 -67>
Fore
265 0 m 1xe8
 302 0 l 1
 278 -19 263 -44 263 -67 c 0
 263 -93 283 -112 309 -112 c 0
 328 -112 347 -102 376 -75 c 1
 392 -96 l 1
 343 -139 317 -152 281 -152 c 0
 243 -152 215 -123 215 -84 c 0
 215 -49 230 -24 265 0 c 1xe8
216 537 m 2xf0
 216 144 l 2
 216 61 227 43 281 34 c 2
 301 31 l 1
 301 0 l 1
 31 0 l 1
 31 31 l 1
 51 34 l 2
 105 43 116 61 116 144 c 2
 116 537 l 2
 116 620 105 638 51 647 c 2
 31 650 l 1
 31 681 l 1
 301 681 l 1
 301 650 l 1
 281 647 l 2
 227 638 216 620 216 537 c 2xf0
EndSplineSet
Ligature: 0 0 'liga' I uni0328
EndChar
StartChar: Kcommaaccent
Encoding: 314 310 208
Width: 720
Flags: W
HStem: -168 118<345 355> 0 31<31 39.3333 313.333 327 442 450> 650 31<31 39.3333 313.333 327 417 427>
VStem: 121 100<144 283 144 565> 293 132<-132 -111>
DStem: 337 386 417 451 498 129 607 141 397 504 337 386 221 345 221 283
Fore
327 -268 m 1
 316 -246 l 1
 358 -219 375 -193 378 -155 c 1
 364 -165 357 -168 347 -168 c 0
 315 -168 293 -144 293 -111 c 0
 293 -78 321 -50 355 -50 c 0
 394 -50 425 -87 425 -132 c 0
 425 -189 388 -240 327 -268 c 1
750 0 m 1
 442 0 l 1
 442 31 l 1
 450 32 457 33 460 33 c 0
 504 37 521 49 521 73 c 0
 521 87 515 102 498 129 c 2
 337 386 l 1
 221 283 l 1
 221 144 l 2
 221 63 236 38 286 34 c 2
 327 31 l 1
 327 0 l 1
 31 0 l 1
 31 31 l 1
 56 34 l 2
 108 41 121 62 121 144 c 2
 121 537 l 2
 121 619 108 640 56 647 c 2
 31 650 l 1
 31 681 l 1
 327 681 l 1
 327 650 l 1
 286 647 l 2
 236 643 221 618 221 537 c 2
 221 345 l 1
 397 504 l 1
 403 509 l 1
 426 529 l 2
 477 574 485 585 485 608 c 0
 485 634 470 645 427 649 c 2
 417 650 l 1
 417 681 l 1
 703 681 l 1
 703 650 l 1
 696 648 l 2
 653 640 598 608 537 556 c 2
 417 451 l 1
 607 141 l 1
 656 65 682 45 750 30 c 1
 750 0 l 1
EndSplineSet
Ligature: 0 0 'liga' K uni0327
EndChar
StartChar: Lcommaaccent
Encoding: 315 315 209
Width: 600
Flags: W
HStem: -168 118<284 296> 0 31<31 39.3333> 0 38<289 549> 650 31<31 39.3333 307.333 318>
VStem: 121 100<115 565> 234 132<-132 -111>
Fore
268 -268 m 1x9c
 257 -246 l 1
 299 -219 316 -193 319 -155 c 1
 305 -165 298 -168 288 -168 c 0
 256 -168 234 -144 234 -111 c 0
 234 -78 262 -50 296 -50 c 0
 335 -50 366 -87 366 -132 c 0
 366 -189 329 -240 268 -268 c 1x9c
629 214 m 1
 549 0 l 1xbc
 31 0 l 1
 31 31 l 1xdc
 56 34 l 2
 108 41 121 62 121 144 c 2
 121 537 l 2
 121 619 108 640 56 647 c 2
 31 650 l 1
 31 681 l 1
 318 681 l 1
 318 650 l 1
 286 647 l 2
 235 642 221 618 221 537 c 2
 221 123 l 2
 221 93 225 73 233 63 c 0
 245 48 274 38 307 38 c 0xbc
 368 38 434 62 491 105 c 0
 530 134 555 162 601 227 c 1
 629 214 l 1
EndSplineSet
Ligature: 0 0 'liga' L uni0327
EndChar
StartChar: Ncommaaccent
Encoding: 316 325 210
Width: 740
Flags: W
HStem: -168 118<356 366> 0 31<26 34.3333 261.333 273> 650 31<26 34.3333 475 486.667 713.667 722>
VStem: 116 57<144 565> 304 132<-132 -111> 575 57<142 565>
DStem: 173 606 249 681 544 0 575 142
Fore
338 -268 m 1
 327 -246 l 1
 369 -219 386 -193 389 -155 c 1
 375 -165 368 -168 358 -168 c 0
 326 -168 304 -144 304 -111 c 0
 304 -78 332 -50 366 -50 c 0
 405 -50 436 -87 436 -132 c 0
 436 -189 399 -240 338 -268 c 1
173 606 m 1
 173 144 l 2
 173 63 187 39 238 34 c 2
 273 31 l 1
 273 0 l 1
 26 0 l 1
 26 31 l 1
 51 34 l 2
 103 41 116 62 116 144 c 2
 116 537 l 2
 116 619 103 640 51 647 c 2
 26 650 l 1
 26 681 l 1
 249 681 l 1
 575 142 l 1
 575 537 l 2
 575 618 561 642 510 647 c 2
 475 650 l 1
 475 681 l 1
 722 681 l 1
 722 650 l 1
 697 647 l 2
 645 640 632 619 632 537 c 2
 632 0 l 1
 544 0 l 1
 173 606 l 1
EndSplineSet
Ligature: 0 0 'liga' N uni0327
EndChar
StartChar: Omacron
Encoding: 317 332 211
Width: 800
Flags: W
HStem: -13 48<379 413> 646 48<379 413> 774 50<249 545>
VStem: 44 118<322 356> 640 118<322 356>
Fore
545 824 m 1
 545 774 l 1
 249 774 l 1
 249 824 l 1
 545 824 l 1
404 694 m 0
 609 694 758 544 758 338 c 0
 758 254 733 178 684 118 c 0
 618 37 510 -13 400 -13 c 0
 198 -13 44 141 44 343 c 0
 44 539 203 694 404 694 c 0
402 646 m 0
 257 646 162 526 162 342 c 0
 162 155 255 35 401 35 c 0
 546 35 640 152 640 332 c 0
 640 525 548 646 402 646 c 0
EndSplineSet
Ligature: 0 0 'liga' O uni0304
EndChar
StartChar: Rcommaaccent
Encoding: 318 342 212
Width: 720
Flags: W
HStem: -168 118<346 356> 0 31<31 39.3333 310 322> 321 43<221 365> 640 41<31 400> 650 31<31 39.3333>
VStem: 121 100<144 321 144 581> 294 132<-132 -111> 561 108<499 517>
DStem: 365 321 484 331 590 0 650 96
Fore
328 -268 m 1xe7
 317 -246 l 1
 359 -219 376 -193 379 -155 c 1
 365 -165 358 -168 348 -168 c 0
 316 -168 294 -144 294 -111 c 0
 294 -78 322 -50 356 -50 c 0
 395 -50 426 -87 426 -132 c 0
 426 -189 389 -240 328 -268 c 1xe7
484 331 m 1
 650 96 l 1
 681 56 708 40 757 31 c 1
 757 0 l 1
 590 0 l 1
 365 321 l 1
 221 321 l 1
 221 144 l 2
 221 63 235 39 286 34 c 2
 322 31 l 1
 322 0 l 1
 31 0 l 1
 31 31 l 1
 56 34 l 2
 108 41 121 62 121 144 c 2
 121 537 l 2
 121 619 108 640 56 647 c 2
 31 650 l 1xef
 31 681 l 1xf7
 438 681 l 2xef
 582 681 669 616 669 509 c 0
 669 457 647 410 607 378 c 0
 574 351 546 340 484 331 c 1
221 364 m 1
 389 364 l 2
 445 364 481 373 509 395 c 0
 542 421 561 461 561 505 c 0
 561 595 497 640 369 640 c 0xf7
 318 640 267 633 247 624 c 0
 229 616 221 603 221 581 c 2
 221 364 l 1
EndSplineSet
Ligature: 0 0 'liga' R uni0327
EndChar
StartChar: Gcommaaccent
Encoding: 319 290 213
Width: 800
Flags: W
HStem: -168 118<384 396> -13 48<380 419> 294 30<505 513.111> 646 48<366 405>
VStem: 44 118<322 357> 334 132<-132 -111> 603 92<180 202>
Fore
368 -268 m 1
 357 -246 l 1
 399 -219 416 -193 419 -155 c 1
 405 -165 398 -168 388 -168 c 0
 356 -168 334 -144 334 -111 c 0
 334 -78 362 -50 396 -50 c 0
 435 -50 466 -87 466 -132 c 0
 466 -189 429 -240 368 -268 c 1
625 681 m 1
 686 469 l 1
 648 458 l 1
 602 523 576 554 543 582 c 0
 491 625 439 646 385 646 c 0
 251 646 162 522 162 336 c 0
 162 156 259 35 403 35 c 0
 469 35 537 63 571 103 c 1
 591 129 603 164 603 200 c 0
 603 261 578 285 505 294 c 1
 505 324 l 1
 778 324 l 1
 778 293 l 1
 760 290 l 2
 726 284 714 278 707 262 c 0
 699 243 695 218 695 180 c 2
 695 0 l 1
 648 0 l 1
 616 69 l 1
 541 11 475 -13 389 -13 c 0
 192 -13 44 140 44 343 c 0
 44 438 76 522 135 587 c 1
 198 654 289 694 379 694 c 0
 448 694 516 673 574 633 c 1
 594 681 l 1
 625 681 l 1
EndSplineSet
Ligature: 0 0 'liga' G uni0327
EndChar
StartChar: Umacron
Encoding: 320 362 214
Width: 780
Flags: W
HStem: -13 48<390 426> 650 31<25 33.3333 304.667 317 509 520 745.667 754> 776 50<239 535>
VStem: 115 100<202 564> 607 57<226 564>
Fore
535 826 m 1
 535 776 l 1
 239 776 l 1
 239 826 l 1
 535 826 l 1
664 537 m 2
 664 204 l 2
 664 137 652 97 622 63 c 0
 575 10 506 -13 392 -13 c 0
 309 -13 253 0 203 32 c 0
 138 73 115 118 115 202 c 2
 115 537 l 2
 115 619 102 640 50 647 c 2
 25 650 l 1
 25 681 l 1
 317 681 l 1
 317 650 l 1
 280 647 l 2
 230 643 215 618 215 537 c 2
 215 270 l 2
 215 179 221 141 239 109 c 0
 265 61 325 35 407 35 c 0
 481 35 539 55 570 91 c 0
 599 125 607 164 607 272 c 2
 607 537 l 2
 607 618 593 642 542 647 c 2
 509 650 l 1
 509 681 l 1
 754 681 l 1
 754 650 l 1
 729 647 l 2
 677 640 664 619 664 537 c 2
EndSplineSet
Ligature: 0 0 'liga' U uni0304
EndChar
StartChar: Uogonek
Encoding: 321 370 215
Width: 780
Flags: W
HStem: -152 40<537 565> -13 48<388 426> 650 31<25 33.3333 304.667 317 509 520 745.667 754>
VStem: 115 100<202 569> 471 48<-84 -67> 607 57<231 569>
Fore
632 -75 m 1
 648 -96 l 1
 599 -139 573 -152 537 -152 c 0
 499 -152 471 -123 471 -84 c 0
 471 -49 485 -27 523 2 c 1
 481 -9 442 -13 390 -13 c 0
 309 -13 253 1 203 32 c 0
 138 73 115 118 115 202 c 2
 115 537 l 2
 115 619 102 640 50 647 c 2
 25 650 l 1
 25 681 l 1
 317 681 l 1
 317 650 l 1
 280 647 l 2
 230 643 215 618 215 537 c 2
 215 270 l 2
 215 179 221 141 239 109 c 0
 265 61 325 35 407 35 c 0
 481 35 539 55 570 91 c 0
 599 125 607 164 607 272 c 2
 607 537 l 2
 607 618 593 642 542 647 c 2
 509 650 l 1
 509 681 l 1
 754 681 l 1
 754 650 l 1
 729 647 l 2
 677 640 664 619 664 537 c 2
 664 204 l 2
 664 119 649 83 588 29 c 0
 533 -20 519 -40 519 -67 c 0
 519 -93 539 -112 565 -112 c 0
 584 -112 603 -102 632 -75 c 1
EndSplineSet
Ligature: 0 0 'liga' U uni0328
EndChar
StartChar: adieresis
Encoding: 322 228 216
Width: 580
Flags: W
HStem: -9 45<484 523> 454 40<254 277> 563 118<178 196 349 356>
VStem: 35 102<111 127> 57 99<363 374> 129 118<622 632> 292 118<622 632> 372 95<112 248 283 370>
Fore
189 681 m 0xe4
 220 681 247 654 247 622 c 0
 247 590 220 563 188 563 c 0
 156 563 129 590 129 622 c 0
 129 655 156 681 189 681 c 0xe4
352 681 m 0
 383 681 410 654 410 622 c 0
 410 590 383 563 351 563 c 0
 319 563 292 590 292 622 c 0xe2
 292 655 319 681 352 681 c 0
372 284 m 1xf1
 372 364 l 2xf1
 372 419 327 454 256 454 c 0
 200 454 155 431 155 402 c 1
 156 374 l 1
 156 346 133 323 105 323 c 0
 79 323 57 343 57 367 c 0
 57 402 91 444 138 465 c 0
 178 482 232 494 275 494 c 0
 321 494 373 481 410 460 c 0xea
 451 437 467 406 467 346 c 2
 467 134 l 2
 467 91 469 78 476 64 c 0
 484 47 502 36 523 36 c 0
 540 36 551 41 568 56 c 1
 587 30 l 1
 559 3 526 -9 484 -9 c 0
 425 -9 391 14 372 68 c 1
 305 12 256 -9 189 -9 c 0
 100 -9 35 43 35 115 c 0
 35 182 92 231 203 259 c 0
 247 270 252 271 372 284 c 1xf1
372 113 m 1
 372 249 l 1
 221 236 137 192 137 125 c 0
 137 77 176 39 224 39 c 0
 274 39 316 60 372 113 c 1
EndSplineSet
KernsSLIF: 121 -37 0 0 119 -31 0 0 118 -29 0 0
Ligature: 0 0 'liga' a uni0308
EndChar
StartChar: aacute
Encoding: 323 225 217
Width: 580
Flags: W
HStem: -9 45<484 523> 454 40<254 277> 660 20G<365 385>
VStem: 35 102<111 127> 57 99<363 374> 372 95<112 248 283 370>
Fore
209 564 m 1xe4
 204 578 l 1
 299 646 l 2
 328 668 355 680 375 680 c 0
 395 680 410 664 410 643 c 0
 410 617 391 602 348 593 c 2
 209 564 l 1xe4
372 284 m 1
 372 364 l 2
 372 419 327 454 256 454 c 0
 200 454 155 431 155 402 c 1
 156 374 l 1
 156 346 133 323 105 323 c 0
 79 323 57 343 57 367 c 0xec
 57 402 91 444 138 465 c 0
 178 482 232 494 275 494 c 0
 321 494 373 481 410 460 c 0
 451 437 467 406 467 346 c 2
 467 134 l 2
 467 91 469 78 476 64 c 0
 484 47 502 36 523 36 c 0
 540 36 551 41 568 56 c 1
 587 30 l 1
 559 3 526 -9 484 -9 c 0
 425 -9 391 14 372 68 c 1
 305 12 256 -9 189 -9 c 0
 100 -9 35 43 35 115 c 0xf4
 35 182 92 231 203 259 c 0
 247 270 252 271 372 284 c 1
372 113 m 1
 372 249 l 1
 221 236 137 192 137 125 c 0xf4
 137 77 176 39 224 39 c 0
 274 39 316 60 372 113 c 1
EndSplineSet
KernsSLIF: 121 -37 0 0 119 -31 0 0 118 -29 0 0
Ligature: 0 0 'liga' a acutecomb
EndChar
StartChar: agrave
Encoding: 324 224 218
Width: 580
Flags: W
HStem: -9 45<484 523> 454 40<254 277> 660 20G<160 179.5>
VStem: 35 102<111 127> 57 99<363 374> 372 95<112 248 283 370>
Fore
336 564 m 1xe4
 197 593 l 2
 154 602 135 617 135 643 c 0
 135 664 150 680 170 680 c 0
 189 680 217 668 246 646 c 2
 341 578 l 1
 336 564 l 1xe4
372 284 m 1
 372 364 l 2
 372 419 327 454 256 454 c 0
 200 454 155 431 155 402 c 1
 156 374 l 1
 156 346 133 323 105 323 c 0
 79 323 57 343 57 367 c 0xec
 57 402 91 444 138 465 c 0
 178 482 232 494 275 494 c 0
 321 494 373 481 410 460 c 0
 451 437 467 406 467 346 c 2
 467 134 l 2
 467 91 469 78 476 64 c 0
 484 47 502 36 523 36 c 0
 540 36 551 41 568 56 c 1
 587 30 l 1
 559 3 526 -9 484 -9 c 0
 425 -9 391 14 372 68 c 1
 305 12 256 -9 189 -9 c 0
 100 -9 35 43 35 115 c 0xf4
 35 182 92 231 203 259 c 0
 247 270 252 271 372 284 c 1
372 113 m 1
 372 249 l 1
 221 236 137 192 137 125 c 0xf4
 137 77 176 39 224 39 c 0
 274 39 316 60 372 113 c 1
EndSplineSet
KernsSLIF: 121 -37 0 0 119 -31 0 0 118 -29 0 0
Ligature: 0 0 'liga' a gravecomb
EndChar
StartChar: acircumflex
Encoding: 325 226 219
Width: 580
Flags: W
HStem: -9 45<484 523> 454 40<254 277>
VStem: 35 102<111 127> 57 99<363 374> 372 95<112 248 283 370>
Fore
271 681 m 1xc8
 413 588 l 1
 399 563 l 1
 271 608 l 1
 142 563 l 1
 129 588 l 1
 271 681 l 1xc8
372 284 m 1
 372 364 l 2
 372 419 327 454 256 454 c 0
 200 454 155 431 155 402 c 1
 156 374 l 1
 156 346 133 323 105 323 c 0
 79 323 57 343 57 367 c 0xd8
 57 402 91 444 138 465 c 0
 178 482 232 494 275 494 c 0
 321 494 373 481 410 460 c 0
 451 437 467 406 467 346 c 2
 467 134 l 2
 467 91 469 78 476 64 c 0
 484 47 502 36 523 36 c 0
 540 36 551 41 568 56 c 1
 587 30 l 1
 559 3 526 -9 484 -9 c 0
 425 -9 391 14 372 68 c 1
 305 12 256 -9 189 -9 c 0
 100 -9 35 43 35 115 c 0xe8
 35 182 92 231 203 259 c 0
 247 270 252 271 372 284 c 1
372 113 m 1
 372 249 l 1
 221 236 137 192 137 125 c 0xe8
 137 77 176 39 224 39 c 0
 274 39 316 60 372 113 c 1
EndSplineSet
Ligature: 0 0 'liga' a uni0302
EndChar
StartChar: abreve
Encoding: 326 259 220
Width: 580
Flags: W
HStem: -9 45<484 523> 454 40<254 277> 563 67<273 308>
VStem: 35 102<111 127> 57 99<363 374> 372 95<112 248 283 370>
Fore
128 664 m 1xe4
 151 682 l 1
 193 648 241 630 293 630 c 0
 343 630 399 651 433 682 c 1
 456 664 l 1
 425 603 360 563 291 563 c 0
 217 563 158 600 128 664 c 1xe4
372 284 m 1
 372 364 l 2
 372 419 327 454 256 454 c 0
 200 454 155 431 155 402 c 1
 156 374 l 1
 156 346 133 323 105 323 c 0
 79 323 57 343 57 367 c 0xec
 57 402 91 444 138 465 c 0
 178 482 232 494 275 494 c 0
 321 494 373 481 410 460 c 0
 451 437 467 406 467 346 c 2
 467 134 l 2
 467 91 469 78 476 64 c 0
 484 47 502 36 523 36 c 0
 540 36 551 41 568 56 c 1
 587 30 l 1
 559 3 526 -9 484 -9 c 0
 425 -9 391 14 372 68 c 1
 305 12 256 -9 189 -9 c 0
 100 -9 35 43 35 115 c 0xf4
 35 182 92 231 203 259 c 0
 247 270 252 271 372 284 c 1
372 113 m 1
 372 249 l 1
 221 236 137 192 137 125 c 0xf4
 137 77 176 39 224 39 c 0
 274 39 316 60 372 113 c 1
EndSplineSet
Ligature: 0 0 'liga' a uni0306
EndChar
StartChar: atilde
Encoding: 327 227 221
Width: 580
Flags: W
HStem: -9 45<484 523> 454 40<254 277> 573 59<340 357> 601 58<193 211>
VStem: 35 102<111 127> 57 99<363 374> 372 95<112 248 283 370>
Fore
403 654 m 1xe2
 432 645 l 1
 417 595 390 573 342 573 c 0xe2
 318 573 296 577 247 591 c 0
 216 599 207 601 193 601 c 0
 178 601 167 596 154 581 c 1
 125 591 l 1
 138 632 172 659 211 659 c 0xd2
 234 659 255 655 306 641 c 0
 330 634 342 632 355 632 c 0
 375 632 392 640 403 654 c 1xe2
372 284 m 1
 372 364 l 2
 372 419 327 454 256 454 c 0
 200 454 155 431 155 402 c 1
 156 374 l 1
 156 346 133 323 105 323 c 0
 79 323 57 343 57 367 c 0xc6
 57 402 91 444 138 465 c 0
 178 482 232 494 275 494 c 0
 321 494 373 481 410 460 c 0
 451 437 467 406 467 346 c 2
 467 134 l 2
 467 91 469 78 476 64 c 0
 484 47 502 36 523 36 c 0
 540 36 551 41 568 56 c 1
 587 30 l 1
 559 3 526 -9 484 -9 c 0
 425 -9 391 14 372 68 c 1
 305 12 256 -9 189 -9 c 0
 100 -9 35 43 35 115 c 0xca
 35 182 92 231 203 259 c 0
 247 270 252 271 372 284 c 1
372 113 m 1
 372 249 l 1
 221 236 137 192 137 125 c 0xca
 137 77 176 39 224 39 c 0
 274 39 316 60 372 113 c 1
EndSplineSet
Ligature: 0 0 'liga' a tildecomb
EndChar
StartChar: aring
Encoding: 328 229 222
Width: 580
Flags: W
HStem: -9 45<484 523> 454 40<254 277> 547 37<267 277> 695 37<268 277>
VStem: 35 102<111 127> 57 99<363 374> 175 37<640 648> 322 37<640 648> 372 95<112 248 283 370>
Fore
268 732 m 0xf380
 318 732 359 690 359 640 c 0
 359 589 318 547 267 547 c 0
 216 547 175 589 175 640 c 0
 175 691 217 732 268 732 c 0xf380
268 695 m 0
 237 695 212 671 212 640 c 0
 212 609 236 584 267 584 c 0
 297 584 322 609 322 640 c 0
 322 669 297 695 268 695 c 0
372 284 m 1
 372 364 l 2
 372 419 327 454 256 454 c 0
 200 454 155 431 155 402 c 1
 156 374 l 1
 156 346 133 323 105 323 c 0
 79 323 57 343 57 367 c 0xf780
 57 402 91 444 138 465 c 0
 178 482 232 494 275 494 c 0
 321 494 373 481 410 460 c 0
 451 437 467 406 467 346 c 2
 467 134 l 2
 467 91 469 78 476 64 c 0
 484 47 502 36 523 36 c 0
 540 36 551 41 568 56 c 1
 587 30 l 1
 559 3 526 -9 484 -9 c 0
 425 -9 391 14 372 68 c 1
 305 12 256 -9 189 -9 c 0
 100 -9 35 43 35 115 c 0xfb80
 35 182 92 231 203 259 c 0
 247 270 252 271 372 284 c 1
372 113 m 1
 372 249 l 1
 221 236 137 192 137 125 c 0xfb80
 137 77 176 39 224 39 c 0
 274 39 316 60 372 113 c 1
EndSplineSet
KernsSLIF: 121 -37 0 0 119 -31 0 0 118 -29 0 0
Ligature: 0 0 'liga' a uni030A
EndChar
StartChar: aogonek
Encoding: 329 261 223
Width: 580
Flags: W
HStem: -152 40<529 557> -9 48<189 224> 454 40<254 277>
VStem: 35 102<111 127> 57 99<363 374> 372 95<112 249 283 370> 463 48<-84 -67>
Fore
568 56 m 1xec
 587 30 l 1
 574 18 l 1
 541 -8 l 2
 525 -20 511 -49 511 -67 c 0
 511 -93 531 -112 557 -112 c 0
 576 -112 595 -102 624 -75 c 1
 640 -96 l 1
 591 -139 565 -152 529 -152 c 0
 491 -152 463 -123 463 -84 c 0xe2
 463 -54 476 -28 502 -8 c 1
 493 -9 488 -9 483 -9 c 0
 425 -9 391 15 372 68 c 1
 305 12 256 -9 189 -9 c 0
 100 -9 35 43 35 115 c 0xf4
 35 182 92 231 203 259 c 0
 247 270 252 271 372 284 c 1
 372 364 l 2
 372 419 327 454 256 454 c 0
 200 454 155 431 155 402 c 1
 156 374 l 1
 156 346 133 323 105 323 c 0
 79 323 57 343 57 367 c 0
 57 402 91 444 138 465 c 0
 178 482 232 494 275 494 c 0
 321 494 373 481 410 460 c 0
 451 437 467 406 467 346 c 2
 467 134 l 2
 467 91 469 78 476 64 c 0
 484 47 502 36 523 36 c 0
 540 36 551 41 568 56 c 1xec
372 113 m 1xf4
 372 249 l 1
 221 236 137 192 137 125 c 0
 137 77 176 39 224 39 c 0
 274 39 316 60 372 113 c 1xf4
EndSplineSet
Ligature: 0 0 'liga' a uni0328
EndChar
StartChar: cacute
Encoding: 330 263 224
Width: 520
Flags: W
HStem: -9 40<283 311> 454 40<276 294> 660 20G<358 378>
VStem: 37 102<230 264> 383 102<351 357>
Fore
202 564 m 1
 197 578 l 1
 292 646 l 2
 321 668 348 680 368 680 c 0
 388 680 403 664 403 643 c 0
 403 617 384 602 341 593 c 2
 202 564 l 1
469 126 m 1
 498 108 l 1
 446 27 379 -9 283 -9 c 0
 136 -9 37 93 37 242 c 0
 37 313 63 382 108 428 c 0
 150 472 209 494 281 494 c 0
 341 494 388 480 428 451 c 0
 464 424 485 390 485 357 c 0
 485 326 463 302 434 302 c 0
 405 302 383 324 383 353 c 1
 384 388 l 1
 384 423 337 454 285 454 c 0
 230 454 191 430 168 382 c 0
 149 343 139 294 139 238 c 0
 139 114 208 31 311 31 c 0
 372 31 413 56 469 126 c 1
EndSplineSet
Ligature: 0 0 'liga' c acutecomb
EndChar
StartChar: ccaron
Encoding: 331 269 225
Width: 520
Flags: W
HStem: -9 40<283 311> 454 40<276 294>
VStem: 37 102<230 264> 383 102<351 357>
Fore
289 562 m 1
 147 655 l 1
 160 680 l 1
 289 634 l 1
 417 680 l 1
 431 655 l 1
 289 562 l 1
469 126 m 1
 498 108 l 1
 446 27 379 -9 283 -9 c 0
 136 -9 37 93 37 242 c 0
 37 313 63 382 108 428 c 0
 150 472 209 494 281 494 c 0
 341 494 388 480 428 451 c 0
 464 424 485 390 485 357 c 0
 485 326 463 302 434 302 c 0
 405 302 383 324 383 353 c 1
 384 388 l 1
 384 423 337 454 285 454 c 0
 230 454 191 430 168 382 c 0
 149 343 139 294 139 238 c 0
 139 114 208 31 311 31 c 0
 372 31 413 56 469 126 c 1
EndSplineSet
Ligature: 0 0 'liga' c uni030C
EndChar
StartChar: ccedilla
Encoding: 332 231 226
Width: 520
Flags: W
HStem: -199 27<276 294> -67 26<266 284> -9 40<283 311> 454 40<266 293>
VStem: 37 102<216 266> 330 48<-120 -112> 383 102<351 357>
DStem: 248 1 279 1 223 -77 266 -42
Fore
279 1 m 1
 266 -42 l 1
 271 -41 276 -41 278 -41 c 0
 284 -40 288 -40 290 -40 c 0
 344 -40 378 -68 378 -114 c 0
 378 -165 341 -199 286 -199 c 0
 234 -199 189 -173 189 -143 c 0
 189 -129 200 -118 214 -118 c 0
 230 -118 238 -124 245 -142 c 0
 255 -165 264 -172 284 -172 c 0
 310 -172 330 -149 330 -118 c 0
 330 -85 309 -67 270 -67 c 0
 257 -67 244 -70 223 -77 c 1
 248 1 l 1
 279 1 l 1
469 126 m 1
 498 108 l 1
 446 27 379 -9 283 -9 c 0
 136 -9 37 93 37 242 c 0
 37 313 63 382 108 428 c 0
 150 472 209 494 281 494 c 0
 341 494 388 480 428 451 c 0
 464 424 485 390 485 357 c 0
 485 326 463 302 434 302 c 0
 405 302 383 324 383 353 c 1
 384 388 l 1
 384 423 337 454 285 454 c 0
 230 454 191 430 168 382 c 0
 149 343 139 294 139 238 c 0
 139 114 208 31 311 31 c 0
 372 31 413 56 469 126 c 1
EndSplineSet
Ligature: 0 0 'liga' c uni0327
EndChar
StartChar: dcaron
Encoding: 333 271 227
Width: 620
Flags: W
HStem: -9 48<250 279> 449 45<257 287> 600 118<587 597>
VStem: 37 102<230 264> 423 95<117 717> 535 132<636 657>
Fore
569 500 m 1
 558 522 l 1
 600 549 617 575 620 613 c 1
 606 603 599 600 589 600 c 0
 557 600 535 624 535 657 c 0
 535 690 563 718 597 718 c 0
 636 718 667 681 667 636 c 0
 667 579 630 528 569 500 c 1
423 441 m 1
 423 538 l 2
 423 627 412 645 358 650 c 2
 337 652 l 1
 337 683 l 1
 405 691 428 697 478 717 c 1
 518 717 l 1
 518 115 l 2
 518 62 533 42 579 32 c 2
 591 30 l 1
 591 0 l 1
 423 0 l 1
 423 67 l 1
 394 36 379 26 350 13 c 0
 317 -1 282 -9 250 -9 c 0
 188 -9 127 20 92 67 c 0
 58 112 37 179 37 241 c 0
 37 385 132 494 257 494 c 0
 318 494 369 478 423 441 c 1
423 118 m 1
 423 389 l 1
 369 434 335 449 287 449 c 0
 230 449 188 422 165 371 c 0
 149 335 139 288 139 243 c 0
 139 197 149 148 166 112 c 0
 187 66 229 39 279 39 c 0
 335 39 378 63 423 118 c 1
EndSplineSet
Ligature: 0 0 'liga' d uni030C
EndChar
StartChar: edieresis
Encoding: 334 235 228
Width: 520
Flags: W
HStem: -9 45<284 314> 289 40<147 491> 454 40<260 286> 563 118<180 198 351 358>
VStem: 37 107<245 289> 131 118<622 632> 294 118<622 632>
Fore
191 681 m 0xf6
 222 681 249 654 249 622 c 0
 249 590 222 563 190 563 c 0
 158 563 131 590 131 622 c 0
 131 655 158 681 191 681 c 0xf6
354 681 m 0
 385 681 412 654 412 622 c 0
 412 590 385 563 353 563 c 0
 321 563 294 590 294 622 c 0
 294 655 321 681 354 681 c 0
458 132 m 1
 491 116 l 1
 440 29 376 -9 284 -9 c 0
 209 -9 148 16 103 67 c 0
 62 113 37 180 37 247 c 0
 37 391 136 494 273 494 c 0
 343 494 404 468 444 421 c 0
 477 383 490 347 491 289 c 1
 144 289 l 1xfa
 144 218 149 174 164 139 c 0
 191 72 243 36 314 36 c 0
 376 36 422 66 458 132 c 1
147 329 m 1
 387 329 l 1
 387 332 l 1
 388 343 383 369 379 380 c 0
 360 429 322 454 269 454 c 0
 229 454 197 439 176 410 c 0
 160 389 154 371 147 329 c 1
EndSplineSet
Ligature: 0 0 'liga' e uni0308
EndChar
StartChar: eacute
Encoding: 335 233 229
Width: 520
Flags: W
HStem: -9 45<284 314> 289 40<147 491> 454 40<260 286> 660 20G<373 393>
VStem: 37 107<245 289>
Fore
217 564 m 1
 212 578 l 1
 307 646 l 2
 336 668 363 680 383 680 c 0
 403 680 418 664 418 643 c 0
 418 617 399 602 356 593 c 2
 217 564 l 1
458 132 m 1
 491 116 l 1
 440 29 376 -9 284 -9 c 0
 209 -9 148 16 103 67 c 0
 62 113 37 180 37 247 c 0
 37 391 136 494 273 494 c 0
 343 494 404 468 444 421 c 0
 477 383 490 347 491 289 c 1
 144 289 l 1
 144 218 149 174 164 139 c 0
 191 72 243 36 314 36 c 0
 376 36 422 66 458 132 c 1
147 329 m 1
 387 329 l 1
 387 332 l 1
 388 343 383 369 379 380 c 0
 360 429 322 454 269 454 c 0
 229 454 197 439 176 410 c 0
 160 389 154 371 147 329 c 1
EndSplineSet
KernsSLIF: 121 -12 0 0 119 -8 0 0 118 -6 0 0
Ligature: 0 0 'liga' e acutecomb
EndChar
StartChar: egrave
Encoding: 336 232 230
Width: 520
Flags: W
HStem: -9 45<284 314> 289 40<147 491> 454 40<260 286> 660 20G<163 182.5>
VStem: 37 107<245 289>
Fore
339 564 m 1
 200 593 l 2
 157 602 138 617 138 643 c 0
 138 664 153 680 173 680 c 0
 192 680 220 668 249 646 c 2
 344 578 l 1
 339 564 l 1
458 132 m 1
 491 116 l 1
 440 29 376 -9 284 -9 c 0
 209 -9 148 16 103 67 c 0
 62 113 37 180 37 247 c 0
 37 391 136 494 273 494 c 0
 343 494 404 468 444 421 c 0
 477 383 490 347 491 289 c 1
 144 289 l 1
 144 218 149 174 164 139 c 0
 191 72 243 36 314 36 c 0
 376 36 422 66 458 132 c 1
147 329 m 1
 387 329 l 1
 387 332 l 1
 388 343 383 369 379 380 c 0
 360 429 322 454 269 454 c 0
 229 454 197 439 176 410 c 0
 160 389 154 371 147 329 c 1
EndSplineSet
Ligature: 0 0 'liga' e gravecomb
EndChar
StartChar: ecircumflex
Encoding: 337 234 231
Width: 520
Flags: W
HStem: -9 45<284 314> 289 40<147 491> 454 40<260 286>
VStem: 37 107<245 289>
Fore
271 681 m 1
 413 588 l 1
 399 563 l 1
 271 608 l 1
 142 563 l 1
 129 588 l 1
 271 681 l 1
458 132 m 1
 491 116 l 1
 440 29 376 -9 284 -9 c 0
 209 -9 148 16 103 67 c 0
 62 113 37 180 37 247 c 0
 37 391 136 494 273 494 c 0
 343 494 404 468 444 421 c 0
 477 383 490 347 491 289 c 1
 144 289 l 1
 144 218 149 174 164 139 c 0
 191 72 243 36 314 36 c 0
 376 36 422 66 458 132 c 1
147 329 m 1
 387 329 l 1
 387 332 l 1
 388 343 383 369 379 380 c 0
 360 429 322 454 269 454 c 0
 229 454 197 439 176 410 c 0
 160 389 154 371 147 329 c 1
EndSplineSet
KernsSLIF: 121 -12 0 0 119 -8 0 0 118 -6 0 0
Ligature: 0 0 'liga' e uni0302
EndChar
StartChar: ecaron
Encoding: 338 283 232
Width: 520
Flags: W
HStem: -9 45<284 314> 289 40<147 491> 454 40<260 286>
VStem: 37 107<245 289>
Fore
270 562 m 1
 128 655 l 1
 141 680 l 1
 270 634 l 1
 398 680 l 1
 412 655 l 1
 270 562 l 1
458 132 m 1
 491 116 l 1
 440 29 376 -9 284 -9 c 0
 209 -9 148 16 103 67 c 0
 62 113 37 180 37 247 c 0
 37 391 136 494 273 494 c 0
 343 494 404 468 444 421 c 0
 477 383 490 347 491 289 c 1
 144 289 l 1
 144 218 149 174 164 139 c 0
 191 72 243 36 314 36 c 0
 376 36 422 66 458 132 c 1
147 329 m 1
 387 329 l 1
 387 332 l 1
 388 343 383 369 379 380 c 0
 360 429 322 454 269 454 c 0
 229 454 197 439 176 410 c 0
 160 389 154 371 147 329 c 1
EndSplineSet
Ligature: 0 0 'liga' e uni030C
EndChar
StartChar: edotaccent
Encoding: 339 279 233
Width: 520
Flags: W
HStem: -9 45<284 314> 289 40<147 491> 454 40<260 286> 564 118<267 286>
VStem: 37 107<245 289> 218 118<623 632>
Fore
278 682 m 0
 309 682 336 655 336 623 c 0
 336 591 309 564 277 564 c 0
 245 564 218 591 218 623 c 0
 218 656 245 682 278 682 c 0
458 132 m 1
 491 116 l 1
 440 29 376 -9 284 -9 c 0
 209 -9 148 16 103 67 c 0
 62 113 37 180 37 247 c 0
 37 391 136 494 273 494 c 0
 343 494 404 468 444 421 c 0
 477 383 490 347 491 289 c 1
 144 289 l 1
 144 218 149 174 164 139 c 0
 191 72 243 36 314 36 c 0
 376 36 422 66 458 132 c 1
147 329 m 1
 387 329 l 1
 387 332 l 1
 388 343 383 369 379 380 c 0
 360 429 322 454 269 454 c 0
 229 454 197 439 176 410 c 0
 160 389 154 371 147 329 c 1
EndSplineSet
Ligature: 0 0 'liga' e uni0307
EndChar
StartChar: eogonek
Encoding: 340 281 234
Width: 520
Flags: W
HStem: -152 40<367 395> -9 45<285 314> 289 40<147 491> 454 40<260 287>
VStem: 37 107<245 289> 301 48<-84 -67>
Fore
491 289 m 1
 144 289 l 1
 144 218 149 174 164 139 c 0
 191 72 243 36 314 36 c 0
 376 36 422 66 458 132 c 1
 491 116 l 1
 467 76 457 65 390 5 c 0
 365 -17 349 -46 349 -67 c 0
 349 -93 369 -112 395 -112 c 0
 414 -112 433 -102 462 -75 c 1
 478 -96 l 1
 429 -139 403 -152 367 -152 c 0
 329 -152 301 -123 301 -84 c 0
 301 -49 315 -26 350 -1 c 1
 326 -7 309 -9 285 -9 c 0
 209 -9 148 16 103 67 c 0
 62 113 37 180 37 247 c 0
 37 391 136 494 273 494 c 0
 343 494 404 468 444 421 c 0
 477 383 490 347 491 289 c 1
147 329 m 1
 387 329 l 1
 387 332 l 1
 388 343 383 369 379 380 c 0
 360 429 322 454 269 454 c 0
 229 454 197 439 176 410 c 0
 160 389 154 371 147 329 c 1
EndSplineSet
Ligature: 0 0 'liga' e uni0328
EndChar
StartChar: gbreve
Encoding: 341 287 235
Width: 540
Flags: W
HStem: -241 37<271 290> 148 32<256 290> 462 32<269 290> 501 62<451 488> 563 67<256 290>
VStem: 17 60<-120 -107> 49 82<74 111> 66 102<302 324> 379 102<302 325> 468 70<-111 -79>
Fore
109 664 m 1xf8
 132 682 l 1
 174 648 222 630 274 630 c 0
 324 630 380 651 414 682 c 1
 437 664 l 1
 406 603 341 563 272 563 c 0
 198 563 139 600 109 664 c 1xf8
196 70 m 2
 387 44 l 2
 457 34 494 20 514 -7 c 0
 529 -26 538 -52 538 -79 c 0
 538 -177 433 -241 271 -241 c 0
 203 -241 137 -229 87 -207 c 0
 45 -189 17 -154 17 -119 c 0xfc40
 17 -70 48 -38 122 -10 c 1
 71 8 49 34 49 74 c 0xfa
 49 121 80 152 147 174 c 1
 93 211 66 258 66 316 c 0xf9
 66 415 158 494 272 494 c 0
 303 494 326 489 366 474 c 1
 384 507 392 517 404 529 c 0
 424 550 458 563 488 563 c 0
 520 563 542 545 542 520 c 0
 542 498 526 482 504 482 c 0
 494 482 485 485 474 492 c 0
 461 500 458 501 451 501 c 0
 434 501 418 488 398 458 c 1
 450 423 481 371 481 316 c 0
 481 277 462 232 434 203 c 1
 397 167 343 148 271 148 c 0
 237 148 217 151 177 164 c 1
 148 149 131 129 131 111 c 0xfa80
 131 88 151 76 196 70 c 2
277 462 m 0
 208 462 168 410 168 322 c 0
 168 226 203 180 274 180 c 0
 308 180 340 195 356 217 c 0
 371 238 379 276 379 321 c 0xf980
 379 416 346 462 277 462 c 0
365 -44 m 2
 160 -19 l 1
 106 -39 77 -71 77 -109 c 0
 77 -165 156 -204 271 -204 c 0
 336 -204 397 -192 427 -172 c 0
 454 -155 468 -134 468 -111 c 0xfc40
 468 -72 439 -53 365 -44 c 2
EndSplineSet
Ligature: 0 0 'liga' g uni0306
EndChar
StartChar: idieresis
Encoding: 342 239 236
Width: 300
Flags: W
HStem: 0 30<20 32.5 276 288> 465 20G<168 202> 563 118<65 73 228 233>
VStem: 107 95<115 369>
Fore
68 681 m 0
 99 681 126 654 126 622 c 0
 126 590 99 563 67 563 c 0
 35 563 8 590 8 622 c 0
 8 655 35 681 68 681 c 0
231 681 m 0
 262 681 289 654 289 622 c 0
 289 590 262 563 230 563 c 0
 198 563 171 590 171 622 c 0
 171 655 198 681 231 681 c 0
202 485 m 1
 202 115 l 2
 202 60 219 37 264 32 c 2
 288 30 l 1
 288 0 l 1
 20 0 l 1
 20 30 l 1
 45 32 l 2
 89 37 107 60 107 115 c 2
 107 350 l 2
 107 410 93 428 41 433 c 2
 21 435 l 1
 21 465 l 1
 74 469 107 474 168 485 c 1
 202 485 l 1
EndSplineSet
Ligature: 0 0 'liga' i uni0308
EndChar
StartChar: iacute
Encoding: 343 237 237
Width: 300
Flags: W
HStem: 0 30<20 32.5 276 288> 465 20G<168 202> 660 20G<230 250>
VStem: 107 95<115 369>
Fore
74 564 m 1
 69 578 l 1
 164 646 l 2
 193 668 220 680 240 680 c 0
 260 680 275 664 275 643 c 0
 275 617 256 602 213 593 c 2
 74 564 l 1
202 485 m 1
 202 115 l 2
 202 60 219 37 264 32 c 2
 288 30 l 1
 288 0 l 1
 20 0 l 1
 20 30 l 1
 45 32 l 2
 89 37 107 60 107 115 c 2
 107 350 l 2
 107 410 93 428 41 433 c 2
 21 435 l 1
 21 465 l 1
 74 469 107 474 168 485 c 1
 202 485 l 1
EndSplineSet
Ligature: 0 0 'liga' i acutecomb
EndChar
StartChar: igrave
Encoding: 344 236 238
Width: 300
Flags: W
HStem: 0 30<20 32.5 276 288> 465 20G<168 202> 660 20G<45 64.5>
VStem: 107 95<115 369>
Fore
221 564 m 1
 82 593 l 2
 39 602 20 617 20 643 c 0
 20 664 35 680 55 680 c 0
 74 680 102 668 131 646 c 2
 226 578 l 1
 221 564 l 1
202 485 m 1
 202 115 l 2
 202 60 219 37 264 32 c 2
 288 30 l 1
 288 0 l 1
 20 0 l 1
 20 30 l 1
 45 32 l 2
 89 37 107 60 107 115 c 2
 107 350 l 2
 107 410 93 428 41 433 c 2
 21 435 l 1
 21 465 l 1
 74 469 107 474 168 485 c 1
 202 485 l 1
EndSplineSet
Ligature: 0 0 'liga' i gravecomb
EndChar
StartChar: icircumflex
Encoding: 345 238 239
Width: 300
Flags: W
HStem: 0 30<20 32.5 276 288> 465 20G<168 202>
VStem: 107 95<115 369>
Fore
150 681 m 1
 292 588 l 1
 278 563 l 1
 150 608 l 1
 21 563 l 1
 8 588 l 1
 150 681 l 1
202 485 m 1
 202 115 l 2
 202 60 219 37 264 32 c 2
 288 30 l 1
 288 0 l 1
 20 0 l 1
 20 30 l 1
 45 32 l 2
 89 37 107 60 107 115 c 2
 107 350 l 2
 107 410 93 428 41 433 c 2
 21 435 l 1
 21 465 l 1
 74 469 107 474 168 485 c 1
 202 485 l 1
EndSplineSet
Ligature: 0 0 'liga' i uni0302
EndChar
StartChar: lacute
Encoding: 346 314 240
Width: 300
Flags: W
HStem: 0 30<20 32 274.5 286>
VStem: 106 95<115 561>
Fore
54 753 m 1
 49 767 l 1
 144 835 l 2
 173 857 200 869 220 869 c 0
 240 869 255 853 255 832 c 0
 255 806 236 791 193 782 c 2
 54 753 l 1
201 717 m 1
 201 115 l 2
 201 60 218 37 263 32 c 2
 286 30 l 1
 286 0 l 1
 20 0 l 1
 20 30 l 1
 44 32 l 2
 89 37 106 60 106 115 c 2
 106 538 l 2
 106 627 95 645 41 650 c 2
 20 652 l 1
 20 683 l 1
 88 691 111 697 161 717 c 1
 201 717 l 1
EndSplineSet
Ligature: 0 0 'liga' l acutecomb
EndChar
StartChar: lcaron
Encoding: 347 318 241
Width: 300
Flags: W
HStem: 0 30<20 32 274.5 286> 600 118<275 285>
VStem: 106 95<115 561> 223 132<636 657>
Fore
257 500 m 1
 246 522 l 1
 288 549 305 575 308 613 c 1
 294 603 287 600 277 600 c 0
 245 600 223 624 223 657 c 0
 223 690 251 718 285 718 c 0
 324 718 355 681 355 636 c 0
 355 579 318 528 257 500 c 1
201 717 m 1
 201 115 l 2
 201 60 218 37 263 32 c 2
 286 30 l 1
 286 0 l 1
 20 0 l 1
 20 30 l 1
 44 32 l 2
 89 37 106 60 106 115 c 2
 106 538 l 2
 106 627 95 645 41 650 c 2
 20 652 l 1
 20 683 l 1
 88 691 111 697 161 717 c 1
 201 717 l 1
EndSplineSet
Ligature: 0 0 'liga' l uni030C
EndChar
StartChar: nacute
Encoding: 348 324 242
Width: 660
Flags: W
HStem: 0 30<23 35.5 279.5 292 380 392.5 636.5 649> 446 48<382 411> 660 20G<449 469>
VStem: 110 95<115 362> 467 95<115 364>
Fore
293 564 m 1
 288 578 l 1
 383 646 l 2
 412 668 439 680 459 680 c 0
 479 680 494 664 494 643 c 0
 494 617 475 602 432 593 c 2
 293 564 l 1
205 485 m 1
 205 406 l 1
 276 469 335 494 411 494 c 0
 505 494 562 445 562 362 c 2
 562 115 l 2
 562 60 580 37 624 32 c 2
 649 30 l 1
 649 0 l 1
 380 0 l 1
 380 30 l 1
 405 32 l 2
 449 37 467 60 467 115 c 2
 467 346 l 2
 467 411 437 446 382 446 c 0
 326 446 267 418 205 362 c 1
 205 115 l 2
 205 60 223 37 267 32 c 2
 292 30 l 1
 292 0 l 1
 23 0 l 1
 23 30 l 1
 48 32 l 2
 92 37 110 60 110 115 c 2
 110 350 l 2
 110 410 95 429 44 433 c 2
 20 435 l 1
 20 465 l 1
 76 469 109 473 171 485 c 1
 205 485 l 1
EndSplineSet
Ligature: 0 0 'liga' n acutecomb
EndChar
StartChar: ncaron
Encoding: 349 328 243
Width: 660
Flags: W
HStem: 0 30<23 35.5 279.5 292 380 392.5 636.5 649> 446 48<382 411>
VStem: 110 95<115 362> 467 95<115 364>
Fore
330 562 m 1
 188 655 l 1
 201 680 l 1
 330 634 l 1
 458 680 l 1
 472 655 l 1
 330 562 l 1
205 485 m 1
 205 406 l 1
 276 469 335 494 411 494 c 0
 505 494 562 445 562 362 c 2
 562 115 l 2
 562 60 580 37 624 32 c 2
 649 30 l 1
 649 0 l 1
 380 0 l 1
 380 30 l 1
 405 32 l 2
 449 37 467 60 467 115 c 2
 467 346 l 2
 467 411 437 446 382 446 c 0
 326 446 267 418 205 362 c 1
 205 115 l 2
 205 60 223 37 267 32 c 2
 292 30 l 1
 292 0 l 1
 23 0 l 1
 23 30 l 1
 48 32 l 2
 92 37 110 60 110 115 c 2
 110 350 l 2
 110 410 95 429 44 433 c 2
 20 435 l 1
 20 465 l 1
 76 469 109 473 171 485 c 1
 205 485 l 1
EndSplineSet
Ligature: 0 0 'liga' n uni030C
EndChar
StartChar: ntilde
Encoding: 350 241 244
Width: 660
Flags: W
HStem: 0 30<23 35.5 279.5 292 380 392.5 636.5 649> 446 48<382 411> 573 59<386 405> 601 58<239 257>
VStem: 110 95<115 362> 467 95<115 364>
Fore
449 654 m 1xec
 478 645 l 1
 463 595 436 573 388 573 c 0xec
 364 573 342 577 293 591 c 0
 262 599 253 601 239 601 c 0
 224 601 213 596 200 581 c 1
 171 591 l 1
 184 632 218 659 257 659 c 0xdc
 280 659 301 655 352 641 c 0
 376 634 388 632 401 632 c 0
 421 632 438 640 449 654 c 1xec
205 485 m 1
 205 406 l 1
 276 469 335 494 411 494 c 0
 505 494 562 445 562 362 c 2
 562 115 l 2
 562 60 580 37 624 32 c 2
 649 30 l 1
 649 0 l 1
 380 0 l 1
 380 30 l 1
 405 32 l 2
 449 37 467 60 467 115 c 2
 467 346 l 2
 467 411 437 446 382 446 c 0
 326 446 267 418 205 362 c 1
 205 115 l 2
 205 60 223 37 267 32 c 2
 292 30 l 1
 292 0 l 1
 23 0 l 1
 23 30 l 1
 48 32 l 2
 92 37 110 60 110 115 c 2
 110 350 l 2
 110 410 95 429 44 433 c 2
 20 435 l 1
 20 465 l 1
 76 469 109 473 171 485 c 1
 205 485 l 1
EndSplineSet
Ligature: 0 0 'liga' n tildecomb
EndChar
StartChar: odieresis
Encoding: 351 246 245
Width: 560
Flags: W
HStem: -9 40<276 294> 454 40<263.945 294> 563 118<196 203 356 374>
VStem: 37 102<214 264> 141 118<622 632> 304 118<622 632> 424 102<214 248>
Fore
201 681 m 0
 232 681 259 654 259 622 c 0
 259 590 232 563 200 563 c 0
 168 563 141 590 141 622 c 0
 141 655 168 681 201 681 c 0
364 681 m 0
 395 681 422 654 422 622 c 0
 422 590 395 563 363 563 c 0
 331 563 304 590 304 622 c 0
 304 655 331 681 364 681 c 0
279 494 m 0
 357 494 424 466 466 416 c 0
 503 370 526 304 526 239 c 0
 526 91 428 -9 283 -9 c 0
 134 -9 37 90 37 241 c 0
 37 311 65 385 107 429 c 0
 147 470 209 494 279 494 c 0
280 454 m 0
 195 454 139 371 139 243 c 0
 139 108 192 31 284 31 c 0
 372 31 424 107 424 234 c 0
 424 371 370 454 280 454 c 0
EndSplineSet
KernsSLIF: 121 -23 0 0 120 -20 0 0 119 -18 0 0 118 -16 0 0 116 -22 0 0
Ligature: 0 0 'liga' o uni0308
EndChar
StartChar: oacute
Encoding: 352 243 246
Width: 560
Flags: W
HStem: -9 40<276 294> 454 40<263.945 294> 660 20G<376 396>
VStem: 37 102<214 264> 424 102<214 248>
Fore
220 564 m 1
 215 578 l 1
 310 646 l 2
 339 668 366 680 386 680 c 0
 406 680 421 664 421 643 c 0
 421 617 402 602 359 593 c 2
 220 564 l 1
279 494 m 0
 357 494 424 466 466 416 c 0
 503 370 526 304 526 239 c 0
 526 91 428 -9 283 -9 c 0
 134 -9 37 90 37 241 c 0
 37 311 65 385 107 429 c 0
 147 470 209 494 279 494 c 0
280 454 m 0
 195 454 139 371 139 243 c 0
 139 108 192 31 284 31 c 0
 372 31 424 107 424 234 c 0
 424 371 370 454 280 454 c 0
EndSplineSet
KernsSLIF: 121 -23 0 0 119 -18 0 0 118 -16 0 0
Ligature: 0 0 'liga' o acutecomb
EndChar
StartChar: ograve
Encoding: 353 242 247
Width: 560
Flags: W
HStem: -9 40<276 294> 454 40<263.945 294> 660 20G<176 195.5>
VStem: 37 102<214 264> 424 102<214 248>
Fore
352 564 m 1
 213 593 l 2
 170 602 151 617 151 643 c 0
 151 664 166 680 186 680 c 0
 205 680 233 668 262 646 c 2
 357 578 l 1
 352 564 l 1
279 494 m 0
 357 494 424 466 466 416 c 0
 503 370 526 304 526 239 c 0
 526 91 428 -9 283 -9 c 0
 134 -9 37 90 37 241 c 0
 37 311 65 385 107 429 c 0
 147 470 209 494 279 494 c 0
280 454 m 0
 195 454 139 371 139 243 c 0
 139 108 192 31 284 31 c 0
 372 31 424 107 424 234 c 0
 424 371 370 454 280 454 c 0
EndSplineSet
KernsSLIF: 121 -23 0 0 119 -18 0 0 118 -16 0 0
Ligature: 0 0 'liga' o gravecomb
EndChar
StartChar: ocircumflex
Encoding: 354 244 248
Width: 560
Flags: W
HStem: -9 40<276 294> 454 40<263.945 294>
VStem: 37 102<214 264> 424 102<214 248>
Fore
281 681 m 1
 423 588 l 1
 409 563 l 1
 281 608 l 1
 152 563 l 1
 139 588 l 1
 281 681 l 1
279 494 m 0
 357 494 424 466 466 416 c 0
 503 370 526 304 526 239 c 0
 526 91 428 -9 283 -9 c 0
 134 -9 37 90 37 241 c 0
 37 311 65 385 107 429 c 0
 147 470 209 494 279 494 c 0
280 454 m 0
 195 454 139 371 139 243 c 0
 139 108 192 31 284 31 c 0
 372 31 424 107 424 234 c 0
 424 371 370 454 280 454 c 0
EndSplineSet
KernsSLIF: 116 -22 0 0
Ligature: 0 0 'liga' o uni0302
EndChar
StartChar: otilde
Encoding: 355 245 249
Width: 560
Flags: W
HStem: -9 40<276 294> 454 40<263.945 294> 573 59<350 367> 601 58<203 221>
VStem: 37 102<214 264> 424 102<214 248>
Fore
413 654 m 1xec
 442 645 l 1
 427 595 400 573 352 573 c 0xec
 328 573 306 577 257 591 c 0
 226 599 217 601 203 601 c 0
 188 601 177 596 164 581 c 1
 135 591 l 1
 148 632 182 659 221 659 c 0xdc
 244 659 265 655 316 641 c 0
 340 634 352 632 365 632 c 0
 385 632 402 640 413 654 c 1xec
279 494 m 0
 357 494 424 466 466 416 c 0
 503 370 526 304 526 239 c 0
 526 91 428 -9 283 -9 c 0
 134 -9 37 90 37 241 c 0
 37 311 65 385 107 429 c 0
 147 470 209 494 279 494 c 0
280 454 m 0
 195 454 139 371 139 243 c 0
 139 108 192 31 284 31 c 0
 372 31 424 107 424 234 c 0
 424 371 370 454 280 454 c 0
EndSplineSet
Ligature: 0 0 'liga' o tildecomb
EndChar
StartChar: ohungarumlaut
Encoding: 356 337 250
Width: 560
Flags: W
HStem: -9 40<269 294> 454 40<269 294> 680 20G<235 253.5 365 384>
VStem: 37 102<214 264> 424 102<214 248>
Fore
174 539 m 1
 158 550 l 1
 193 640 l 2
 210 684 224 700 246 700 c 0
 261 700 271 689 271 671 c 0
 271 653 263 633 251 620 c 2
 174 539 l 1
304 539 m 1
 288 550 l 1
 323 640 l 1
 339 683 354 700 376 700 c 0
 392 700 401 689 401 670 c 0
 401 653 393 634 380 620 c 2
 304 539 l 1
279 494 m 0
 357 494 424 466 466 416 c 0
 503 370 526 304 526 239 c 0
 526 91 428 -9 283 -9 c 0
 134 -9 37 90 37 241 c 0
 37 311 65 385 107 429 c 0
 147 470 209 494 279 494 c 0
280 454 m 0
 195 454 139 371 139 243 c 0
 139 108 192 31 284 31 c 0
 372 31 424 107 424 234 c 0
 424 371 370 454 280 454 c 0
EndSplineSet
Ligature: 0 0 'liga' o uni030B
EndChar
StartChar: racute
Encoding: 357 341 251
Width: 440
Flags: W
HStem: 0 30<23 35.5 279.5 292> 383 111<374 390> 660 20G<339 359>
VStem: 110 95<115 360>
Fore
183 564 m 1
 178 578 l 1
 273 646 l 2
 302 668 329 680 349 680 c 0
 369 680 384 664 384 643 c 0
 384 617 365 602 322 593 c 2
 183 564 l 1
205 485 m 1
 205 405 l 1
 215 413 223 420 226 423 c 0
 274 464 279 468 303 478 c 0
 327 489 351 494 374 494 c 0
 417 494 447 471 447 438 c 0
 447 406 423 383 390 383 c 0
 372 383 356 388 339 401 c 0
 321 413 314 416 297 416 c 0
 268 416 241 400 205 360 c 1
 205 115 l 2
 205 60 223 37 267 32 c 2
 292 30 l 1
 292 0 l 1
 23 0 l 1
 23 30 l 1
 48 32 l 2
 92 37 110 60 110 115 c 2
 110 350 l 2
 110 410 95 429 44 433 c 2
 20 435 l 1
 20 465 l 1
 76 469 109 473 171 485 c 1
 205 485 l 1
EndSplineSet
Ligature: 0 0 'liga' r acutecomb
EndChar
StartChar: sacute
Encoding: 358 347 252
Width: 520
Flags: W
HStem: -9 40<263 295> 454 40<231 249> 660 20G<359 379>
VStem: 55 88<348 379> 405 82<123 153>
Fore
203 564 m 1
 198 578 l 1
 293 646 l 2
 322 668 349 680 369 680 c 0
 389 680 404 664 404 643 c 0
 404 617 385 602 342 593 c 2
 203 564 l 1
419 481 m 1
 451 327 l 1
 419 327 l 1
 386 406 320 454 244 454 c 0
 185 454 143 422 143 379 c 0
 143 359 155 341 174 331 c 0
 185 326 197 322 221 316 c 2
 360 282 l 2
 447 261 487 221 487 153 c 0
 487 60 399 -9 279 -9 c 0
 214 -9 172 5 118 46 c 1
 107 4 l 1
 74 4 l 1
 40 182 l 1
 74 182 l 1
 88 144 98 124 116 103 c 0
 153 58 214 31 276 31 c 0
 349 31 405 71 405 123 c 0
 405 155 382 176 332 189 c 2
 204 221 l 2
 98 248 55 285 55 348 c 0
 55 430 136 494 238 494 c 0
 294 494 338 479 381 445 c 1
 391 481 l 1
 419 481 l 1
EndSplineSet
Ligature: 0 0 'liga' s acutecomb
EndChar
StartChar: scaron
Encoding: 359 353 253
Width: 520
Flags: W
HStem: -9 40<263 281> 454 40<231 254>
VStem: 55 88<348 379> 405 82<123 153>
Fore
252 562 m 1
 110 655 l 1
 123 680 l 1
 252 634 l 1
 380 680 l 1
 394 655 l 1
 252 562 l 1
419 481 m 1
 451 327 l 1
 419 327 l 1
 386 406 320 454 244 454 c 0
 185 454 143 422 143 379 c 0
 143 359 155 341 174 331 c 0
 185 326 197 322 221 316 c 2
 360 282 l 2
 447 261 487 221 487 153 c 0
 487 60 399 -9 279 -9 c 0
 214 -9 172 5 118 46 c 1
 107 4 l 1
 74 4 l 1
 40 182 l 1
 74 182 l 1
 88 144 98 124 116 103 c 0
 153 58 214 31 276 31 c 0
 349 31 405 71 405 123 c 0
 405 155 382 176 332 189 c 2
 204 221 l 2
 98 248 55 285 55 348 c 0
 55 430 136 494 238 494 c 0
 294 494 338 479 381 445 c 1
 391 481 l 1
 419 481 l 1
EndSplineSet
Ligature: 0 0 'liga' s uni030C
EndChar
StartChar: scommaaccent
Encoding: 360 537 254
Width: 520
Flags: W
HStem: -169 120<244 256> -9 40<255 283> 454 40<231 258>
VStem: 55 88<348 379> 193 133<-133 -113> 405 82<123 153>
Fore
218 -272 m 1
 207 -253 l 1
 249 -229 272 -200 281 -154 c 1
 265 -166 257 -169 244 -169 c 0
 215 -169 193 -144 193 -113 c 0
 193 -76 220 -49 256 -49 c 0
 296 -49 326 -85 326 -133 c 0
 326 -193 288 -242 218 -272 c 1
419 481 m 1
 451 327 l 1
 419 327 l 1
 386 406 320 454 244 454 c 0
 185 454 143 422 143 379 c 0
 143 359 155 341 174 331 c 0
 185 326 197 322 221 316 c 2
 360 282 l 2
 447 261 487 221 487 153 c 0
 487 60 399 -9 279 -9 c 0
 214 -9 172 5 118 46 c 1
 107 4 l 1
 74 4 l 1
 40 182 l 1
 74 182 l 1
 88 144 98 124 116 103 c 0
 153 58 214 31 276 31 c 0
 349 31 405 71 405 123 c 0
 405 155 382 176 332 189 c 2
 204 221 l 2
 98 248 55 285 55 348 c 0
 55 430 136 494 238 494 c 0
 294 494 338 479 381 445 c 1
 391 481 l 1
 419 481 l 1
EndSplineSet
Ligature: 0 0 'liga' s uni0326
EndChar
StartChar: tcaron
Encoding: 361 357 255
Width: 380
Flags: W
HStem: -9 40<247 274> 452 33<20 44.5 199 342> 600 118<284 294>
VStem: 104 95<117 452> 232 132<636 657>
Fore
266 500 m 1
 255 522 l 1
 297 549 314 575 317 613 c 1
 303 603 296 600 286 600 c 0
 254 600 232 624 232 657 c 0
 232 690 260 718 294 718 c 0
 333 718 364 681 364 636 c 0
 364 579 327 528 266 500 c 1
342 485 m 1
 342 452 l 1
 199 452 l 1
 199 163 l 2
 199 72 223 31 274 31 c 0
 304 31 327 44 361 83 c 1
 388 61 l 1
 352 14 306 -9 247 -9 c 0
 212 -9 176 1 150 17 c 0
 118 37 104 68 104 117 c 2
 104 452 l 1
 20 452 l 1
 20 485 l 1
 118 489 162 544 161 667 c 1
 199 667 l 1
 199 485 l 1
 342 485 l 1
EndSplineSet
Ligature: 0 0 'liga' t uni030C
EndChar
StartChar: udieresis
Encoding: 362 252 256
Width: 680
Flags: W
HStem: -9 48<259 296> 0 30<640.5 653> 465 20G<171 205 532 566> 563 118<253 262 416 421>
VStem: 110 95<125 360> 196 118<622 632> 359 118<622 632> 471 95<126 485>
Fore
256 681 m 0x34
 287 681 314 654 314 622 c 0
 314 590 287 563 255 563 c 0
 223 563 196 590 196 622 c 0
 196 655 223 681 256 681 c 0x34
419 681 m 0
 450 681 477 654 477 622 c 0
 477 590 450 563 418 563 c 0
 386 563 359 590 359 622 c 0x32
 359 655 386 681 419 681 c 0
471 0 m 1x79
 471 84 l 1
 386 15 331 -9 259 -9 c 0
 207 -9 169 6 142 37 c 0
 119 63 110 91 110 141 c 2
 110 350 l 2
 110 410 95 429 44 433 c 2
 20 435 l 1
 20 465 l 1
 97 470 119 473 171 485 c 1
 205 485 l 1
 205 149 l 2
 205 73 233 39 296 39 c 0xb9
 345 39 404 68 471 127 c 1
 471 350 l 2
 471 410 456 429 405 433 c 2
 381 435 l 1
 381 465 l 1
 460 471 480 473 532 485 c 1
 566 485 l 1
 566 115 l 2
 566 60 584 37 628 32 c 2
 653 30 l 1
 653 0 l 1
 471 0 l 1x79
EndSplineSet
Ligature: 0 0 'liga' u uni0308
EndChar
StartChar: uacute
Encoding: 363 250 257
Width: 680
Flags: W
HStem: -9 48<259 296> 0 30<640.5 653> 465 20G<171 205 532 566> 660 20G<431 451>
VStem: 110 95<125 360> 471 95<126 485>
Fore
275 564 m 1x3c
 270 578 l 1
 365 646 l 2
 394 668 421 680 441 680 c 0
 461 680 476 664 476 643 c 0
 476 617 457 602 414 593 c 2
 275 564 l 1x3c
471 0 m 1x7c
 471 84 l 1
 386 15 331 -9 259 -9 c 0
 207 -9 169 6 142 37 c 0
 119 63 110 91 110 141 c 2
 110 350 l 2
 110 410 95 429 44 433 c 2
 20 435 l 1
 20 465 l 1
 97 470 119 473 171 485 c 1
 205 485 l 1
 205 149 l 2
 205 73 233 39 296 39 c 0xbc
 345 39 404 68 471 127 c 1
 471 350 l 2
 471 410 456 429 405 433 c 2
 381 435 l 1
 381 465 l 1
 460 471 480 473 532 485 c 1
 566 485 l 1
 566 115 l 2
 566 60 584 37 628 32 c 2
 653 30 l 1
 653 0 l 1
 471 0 l 1x7c
EndSplineSet
Ligature: 0 0 'liga' u acutecomb
EndChar
StartChar: ugrave
Encoding: 364 249 258
Width: 680
Flags: W
HStem: -9 48<259 296> 0 30<640.5 653> 465 20G<171 205 532 566> 660 20G<235 254.5>
VStem: 110 95<125 360> 471 95<126 485>
Fore
411 564 m 1x3c
 272 593 l 2
 229 602 210 617 210 643 c 0
 210 664 225 680 245 680 c 0
 264 680 292 668 321 646 c 2
 416 578 l 1
 411 564 l 1x3c
471 0 m 1x7c
 471 84 l 1
 386 15 331 -9 259 -9 c 0
 207 -9 169 6 142 37 c 0
 119 63 110 91 110 141 c 2
 110 350 l 2
 110 410 95 429 44 433 c 2
 20 435 l 1
 20 465 l 1
 97 470 119 473 171 485 c 1
 205 485 l 1
 205 149 l 2
 205 73 233 39 296 39 c 0xbc
 345 39 404 68 471 127 c 1
 471 350 l 2
 471 410 456 429 405 433 c 2
 381 435 l 1
 381 465 l 1
 460 471 480 473 532 485 c 1
 566 485 l 1
 566 115 l 2
 566 60 584 37 628 32 c 2
 653 30 l 1
 653 0 l 1
 471 0 l 1x7c
EndSplineSet
Ligature: 0 0 'liga' u gravecomb
EndChar
StartChar: ucircumflex
Encoding: 365 251 259
Width: 680
Flags: W
HStem: -9 48<259 296> 0 30<640.5 653> 465 20G<171 205 532 566>
VStem: 110 95<125 360> 471 95<126 485>
Fore
334 681 m 1x38
 476 588 l 1
 462 563 l 1
 334 608 l 1
 205 563 l 1
 192 588 l 1
 334 681 l 1x38
471 0 m 1x78
 471 84 l 1
 386 15 331 -9 259 -9 c 0
 207 -9 169 6 142 37 c 0
 119 63 110 91 110 141 c 2
 110 350 l 2
 110 410 95 429 44 433 c 2
 20 435 l 1
 20 465 l 1
 97 470 119 473 171 485 c 1
 205 485 l 1
 205 149 l 2
 205 73 233 39 296 39 c 0xb8
 345 39 404 68 471 127 c 1
 471 350 l 2
 471 410 456 429 405 433 c 2
 381 435 l 1
 381 465 l 1
 460 471 480 473 532 485 c 1
 566 485 l 1
 566 115 l 2
 566 60 584 37 628 32 c 2
 653 30 l 1
 653 0 l 1
 471 0 l 1x78
EndSplineSet
Ligature: 0 0 'liga' u uni0302
EndChar
StartChar: uring
Encoding: 366 367 260
Width: 680
Flags: W
HStem: -9 48<259 296> 0 30<640.5 653> 465 20G<171 205 532 566> 547 37<329.388 343> 695 37<341 343>
VStem: 110 95<125 360> 248 37<640 648> 395 37<640 648> 471 95<126 485>
Fore
341 732 m 0x3f80
 391 732 432 690 432 640 c 0
 432 589 391 547 340 547 c 0
 289 547 248 589 248 640 c 0
 248 691 290 732 341 732 c 0x3f80
341 695 m 0
 310 695 285 671 285 640 c 0
 285 609 309 584 340 584 c 0
 370 584 395 609 395 640 c 0
 395 669 370 695 341 695 c 0
471 0 m 1x7f80
 471 84 l 1
 386 15 331 -9 259 -9 c 0
 207 -9 169 6 142 37 c 0
 119 63 110 91 110 141 c 2
 110 350 l 2
 110 410 95 429 44 433 c 2
 20 435 l 1
 20 465 l 1
 97 470 119 473 171 485 c 1
 205 485 l 1
 205 149 l 2
 205 73 233 39 296 39 c 0xbf80
 345 39 404 68 471 127 c 1
 471 350 l 2
 471 410 456 429 405 433 c 2
 381 435 l 1
 381 465 l 1
 460 471 480 473 532 485 c 1
 566 485 l 1
 566 115 l 2
 566 60 584 37 628 32 c 2
 653 30 l 1
 653 0 l 1
 471 0 l 1x7f80
EndSplineSet
Ligature: 0 0 'liga' u uni030A
EndChar
StartChar: uhungarumlaut
Encoding: 367 369 261
Width: 680
Flags: W
HStem: -9 48<259 296> 0 30<640.5 653> 465 20G<171 205 532 566> 680 20G<295 313.5 425 444>
VStem: 110 95<125 360> 471 95<126 485>
Fore
234 539 m 1x3c
 218 550 l 1
 253 640 l 2
 270 684 284 700 306 700 c 0
 321 700 331 689 331 671 c 0
 331 653 323 633 311 620 c 2
 234 539 l 1x3c
364 539 m 1
 348 550 l 1
 383 640 l 1
 399 683 414 700 436 700 c 0
 452 700 461 689 461 670 c 0
 461 653 453 634 440 620 c 2
 364 539 l 1
471 0 m 1x7c
 471 84 l 1
 386 15 331 -9 259 -9 c 0
 207 -9 169 6 142 37 c 0
 119 63 110 91 110 141 c 2
 110 350 l 2
 110 410 95 429 44 433 c 2
 20 435 l 1
 20 465 l 1
 97 470 119 473 171 485 c 1
 205 485 l 1
 205 149 l 2
 205 73 233 39 296 39 c 0xbc
 345 39 404 68 471 127 c 1
 471 350 l 2
 471 410 456 429 405 433 c 2
 381 435 l 1
 381 465 l 1
 460 471 480 473 532 485 c 1
 566 485 l 1
 566 115 l 2
 566 60 584 37 628 32 c 2
 653 30 l 1
 653 0 l 1
 471 0 l 1x7c
EndSplineSet
Ligature: 0 0 'liga' u uni030B
EndChar
StartChar: yacute
Encoding: 368 253 262
Width: 540
Flags: W
HStem: -241 117<39 80> 455 30<202.2 210> 660 20G<330 350>
DStem: 57 391 160 398 236 -27 285 94
Fore
174 564 m 1
 169 578 l 1
 264 646 l 2
 293 668 320 680 340 680 c 0
 360 680 375 664 375 643 c 0
 375 617 356 602 313 593 c 2
 174 564 l 1
285 94 m 1
 378 330 l 2
 390 360 397 388 397 406 c 0
 397 434 382 445 329 455 c 1
 329 485 l 1
 549 485 l 1
 549 454 l 1
 495 441 471 419 447 363 c 2
 274 -43 l 1
 241 -123 220 -158 189 -190 c 0
 156 -224 120 -241 80 -241 c 0
 26 -241 -14 -212 -14 -173 c 0
 -14 -147 10 -124 39 -124 c 0
 59 -124 69 -130 94 -157 c 0
 107 -170 117 -176 127 -176 c 0
 154 -176 189 -139 211 -85 c 1
 236 -27 l 1
 57 391 l 1
 38 437 26 447 -23 454 c 1
 -23 485 l 1
 210 485 l 1
 210 455 l 1
 171 450 156 439 156 418 c 0
 156 411 157 405 160 398 c 2
 285 94 l 1
EndSplineSet
Ligature: 0 0 'liga' y acutecomb
EndChar
StartChar: zacute
Encoding: 369 378 263
Width: 480
Flags: W
HStem: 0 30<198 422> 455 30<79 280> 660 20G<380 400>
DStem: 335 447 464 460 7 29 129 44
Fore
224 564 m 1
 219 578 l 1
 314 646 l 2
 343 668 370 680 390 680 c 0
 410 680 425 664 425 643 c 0
 425 617 406 602 363 593 c 2
 224 564 l 1
476 158 m 1
 422 0 l 1
 23 0 l 1
 7 29 l 1
 335 447 l 1
 305 453 290 455 268 455 c 0
 214 455 158 440 123 416 c 0
 95 397 78 376 54 327 c 1
 23 338 l 1
 79 485 l 1
 453 485 l 1
 464 460 l 1
 129 44 l 1
 166 33 186 30 224 30 c 0
 325 30 384 67 448 168 c 1
 476 158 l 1
EndSplineSet
Ligature: 0 0 'liga' z acutecomb
EndChar
StartChar: zcaron
Encoding: 370 382 264
Width: 480
Flags: W
HStem: 0 30<198 422> 455 30<79 280>
DStem: 335 447 464 460 7 29 129 44
Fore
269 562 m 1
 127 655 l 1
 140 680 l 1
 269 634 l 1
 397 680 l 1
 411 655 l 1
 269 562 l 1
476 158 m 1
 422 0 l 1
 23 0 l 1
 7 29 l 1
 335 447 l 1
 305 453 290 455 268 455 c 0
 214 455 158 440 123 416 c 0
 95 397 78 376 54 327 c 1
 23 338 l 1
 79 485 l 1
 453 485 l 1
 464 460 l 1
 129 44 l 1
 166 33 186 30 224 30 c 0
 325 30 384 67 448 168 c 1
 476 158 l 1
EndSplineSet
Ligature: 0 0 'liga' z uni030C
EndChar
